<mxfile host="app.diagrams.net" modified="2021-04-26T11:28:15.570Z" agent="5.0 (Windows NT 10.0; Win64; x64) AppleWebKit/537.36 (KHTML, like Gecko) Chrome/90.0.4430.85 Safari/537.36" etag="NxaMsvUCXtAzP5TLb3cc" version="14.6.6" type="github">
  <diagram id="C5RBs43oDa-KdzZeNtuy" name="Page-1">
    <mxGraphModel dx="1038" dy="580" grid="1" gridSize="10" guides="1" tooltips="1" connect="1" arrows="1" fold="1" page="1" pageScale="1" pageWidth="827" pageHeight="1169" math="0" shadow="0">
      <root>
        <mxCell id="WIyWlLk6GJQsqaUBKTNV-0" />
        <mxCell id="WIyWlLk6GJQsqaUBKTNV-1" parent="WIyWlLk6GJQsqaUBKTNV-0" />
        <mxCell id="_Lx0LoCC1SIo9x9nNZ3i-1" value="" style="shape=image;verticalLabelPosition=bottom;labelBackgroundColor=#ffffff;verticalAlign=top;aspect=fixed;imageAspect=0;image=data:image/png,iVBORw0KGgoAAAANSUhEUgAAAXQAAADKCAYAAAC11LviAAAgAElEQVR4Aey9d3wTV9bw//75/N7neXY3CeBuY1OSEKq7ZWObmkBIqMa490pLgCRAeiXJprdN74U0SE9IAUIv7hV3W7Yly0WWbPX2/X3uyAoOa7Ik2byb3Uh8Dnc0Go9mztz5ztG5557zf3C/fhMNOAAbYDmPiM/ENj/nJbYXYh9Dfu6+fs73urd1a+C30oDD4UCI3W7HZrP9W4k45gsR1zn+VHsh+7mQbf7Pb3Wh/r3260LlP2r/8Vm5gCuAbR2BuRk4V8RnAsw/B8Suo3MD/R9fB/cW/x4acEFuLFj93gE/1jGPtc51jj/VjvV3v2SdG+gSUl0YHguVrnUOJ33/AYHFx6Mt83NB7novLHeXlf4PdvnDnSm2E+I6otHthe7jh525F9wa+B1o4OdA7vcG+NHA/anzuJDPRu/r1yz/wYH+E4h02MEhkOvCpgD6CNR/4kYQfyGgbRxDTIAQ8bkL6KP2/sOjxXVU57aubcdqXdv+xKG5P3Jr4PenAddtJbVO94sEQLvTDTMabjbb78ktM9rdMuq4R1xIP4b4CDp+dK7nrBvjfEef+4Uu/0cD3QW50e3ZHu1aOwYeXTAXQP8B6q7tz+5hrCXhShk0wsCIqA0gRGOCYasT6C53i/hmycfuAOuIiAfCuTL6CEc/Ykavdx3due1Yx3ih687d1699f6Hf697uj6kByV5yQc8Odpvj9yfCzjtXXMd8nvaCrqb423P3+wve/8cC3QWfc6F3Vrlii9GfnrPsgrnQ8gV4u00WO1qdCdWghdYeC8090KKEVgW0KaFDBd0D0KuFQT3oLGf3Kr5BgFqA3iWuwVTx/lzAnw/qriN1teIMf+lrLP259vtL2l9zLL/0HNx/9++lAQnooyBmtwmo/85k1PFdEIAvtOO7gf7TnXUsIP29bl1bnacVPWzk5dpiLJgZLTCgNdGl0tLYOUh1u5bKdh3VbXpqWoXoqGvT0yA30aqw0dkHPRrQ2866XgS4BcRdPvbRrQvyo+E+1nGcu+7s0bvO4sLbnzrfc7/nQt7/mmO58KN2b/lvrYFzLFy7sNLPlX814McC+jnHPfqXxgVHPbiB/tNddywgjQ2Vs2tdf3N2zdlxUBe0RlvSZgeodRZUgwbkqmGaugapbVdT2a6hon2IyvZhqtp0VLUMUd6oprpFQ32HjiaFkXaVhW61nQEDDFlBZ3OK8L27fO2uVoDeBXWXte46np9qR5/HT2vr7z916eKn9v9zPvs1x/L3R+de8x+vgfMA7l9usY8B9AuG9k9dtPOc7wX9Chh1TH84l4sLVK7WLhQ5yvlyLjBdAHdZzwKyRgcYHDBkgeZuNU1dahq7NDR2D3NGoadOYaRWYaZOYaa+20Jdp4nSRjUVLRpq5ToaFEZJqlrUNHbrkQ/YUGhBpYNhO+jF/nGKALxrEHU01C8Epr8Goj/oZ5RuLuQ7z7fNrzmWn7oP3J/9h2pA3JfniuRX/xe7YEbB03V8/zSgn3u+v+D9HxboAjwSrB1gsYNZiFgecX0IAAmACoALwGrM0Kezo9Ra6VSb6Og30tZroFE5TINCR4NST0OPkQaVhTMqGzUKC5WdRira9ZS36ShvHaJarqe220RNp4HK9iFq5DrqOnXUd+mp79bToDAgV9tRDoPaDDqHM1rG9ZBxQdbVus5BfD4WSH8NREd/x1j7/rnrfs2x/Iciy31a/0gDrk44qv25Futvtv2oY/pHp3HBn4/e5y9c/kMBfTSEXJAUrdCd+Ewsj7bEhbU8YIYenYNOjZWOATOtfSaae400qowSwOuVRoTU9ZioVZqpUZqpVlio6rZQrbBSo7BSq7BSp7RS0aGnpFVLWfsw1V1GqrsMVHfqqXGJALvCSHOvhY5BJLAPmEA3EgIpLHXxkDnfeYxeL5bFef2a11h96tzvuND3v/ZYfs15uP/2P0QDwmIdbSH/K5d/px363xToY6Hmx53WtcVYwHHBXMBRLIuX2F7AXFjjQzanhdyjg85BK639AuImGntNNKjMnFGZqVeZqVNZqO2xUNNjlaS6x0qV0kJFl5ljjRoO1/dzoklDZaeJM70Oyjv0nGrWUNo2THW3maou4zlioKpLT41CPCDMNPba6Ri0otKZUZuMDFutGBwO6VfDuQ8i8f7cc/3Hfc6lpbG3HP3p6OVzv+dC3o/9DSPKdzduDVyIBtxA/4da+jcEugstozHiWnf2fF1rXFu5IO5qBcwFwEUrXsL6FT7xPp0DhcaKXG2htd9MU6/TEj+jMlGvslCnslKrslGrslOjslMliYMqlVPKuizsK+/muT1HePCVz3jira95f381J5oGKeswUC43Ui43UN5poqLb7JQuM5VdYtlEebeRcoVRaiuFD16po6VngO7+flQaDQM6HVqjCbPIfzHq14XrPEe354WoSzlSFI9rLyOK+InG9Wejv+NCl897LD/xfe6P3Br4kQbcQP+ROsZ68x8CdCeUHJz95wKNzTHiKx8VKeKCuYC4SQxA2p2TgZSD0CYs4y4dTUojTT1CDDT16GnsEf5yg+RmOdNjpr7HQl2PjZoeBxUKO6c6LBxpNvBZaQ83P/URC1K3c/m8VOYsyWHd9Q/w5AeH2Vel5KTcyKlOEyfadFR0W5wg7zRLVn15t5mybhMl3SZKR6Sie5gqeR/1Xb00KvppUWnoVOvpNzqkAdTRg6Yuq90F3p+EqPSh+M+puwtx0Lj269Ltz2l/8ljG6pnudW4NnKuBXzBI6Bq4/C3acw/v9/D+3xrowkb9sTjf2bBjsTsQ8eEGM1JrsoLZ5rTIxeCnwQZDJugfgi4VyHugXemcBNSqdNCitNKqMtOmMtLWM0xLt4YmuZqWTg3NXUM0dg5T32mgqQ/2V/bx1HvHyb31RcJXbsFPls6E0CR8olLwi0nFO2ot/rGJxGXcyJYn3uGNw/Uc6zBQ3weV7SZOt+g41aanpNPE6S4Tx9p1HOvQcUphoqLXQmn3MKWdGkrlGsrlWqq6dZzps9AyCF0G6BORMaPcR+ftWH9HVTfQz6sr9we/Tw24rIp/dfv71A7/hkAXmnSCyInvHyPdhgOnOKfTiwgWKYpFTLu3gsEKQ0boH3agVFuQqxy0i9mc3dCmgFYxu1MJzUobbb1W2lUGWrrUNLT10NLRh1yhpbVTS9WZHr451sAzb35H3vankK28nsCYTHxlmXhGZTEhKpvxUZl4RGfgEZPG/4aswGNuIpddm09s7s1k3/EcT+4+zL4TXVTI7dT1QUmnlZIuKyeFBd9l4lSPhbI+OyUqK6cVZgn2pwX0RRiksO577NQOQKMWuvWgNYHZAjYxWDSiJcmrIt6M+fphqzE/PXela+ufY5m7tj3vIZz7Je73bg24NfCLNfC7BboLHq529Bm61onWBQxX6/KRu9wPojWJSTsm0OphYNhBj9pCZ6+wvHW0KEy0KJzT9FvEdH2VEActvVZaek209Opp7RuiVaWTYsZL6nvZ800FDz73EQU7nuSqtJuZsTgfr7BELp6TgIcsnXFR6fwlMpU/RyTzp4gkSS6OTucvUan8b1iS9FnQgiLiU+6k6Pa3efyd03x8QsXRZit1/VDeDac6zBK4y5VWyhRCLJKUdpsp6TJR0mWU3DJlCjMVKisNvVbkfRb61HY0w6AzgtEMZitYRfyuC/Bj6Gy0Pi9k2aXrn9OK/bpfbg24NfDbauB3CfTzQcWlCtfno4EyGuSuZfG5yQ5aA/QOmunu09Op0tGmHKa5e0iaCNSkMNCkNNHUY6FJZaWpV4iZBpWB5n4DTf066nrUnG5R8cH+Gh548UvStz5GxPKNBEQl4RORjF90Br5zs/Cam8klslT+v+DV/E/UOgKWbWDK6q14LCxk/Lxi/hxdyH+H5fF/Q/L5U2g+/z09Hf+YjcQk3kverbt56r1KvinXcqROx+lWM5WdIpbdQrncTLlou0egrhAWupGSLj0lXTpKunVUdemoadPS3KGnQyHO1U6fBjQib4zJ+VCziARgI64Zl45E69KjS68/1bq2/bmt2Kf75daAWwO/rQZ+d0B3wWQ0MFzrhCrEsvhsNJDEsmugU0BL+MgFyPVWkQjLjnLAQFv3IE0d/bR0DdLSpZWA3tw9TKNCL8WUiyiWhj4Ljf02zvSaKWkboE5l4FRbHx8eKuOOZ3YTm7CZwKgkLp5+DRfPWI5fVAqBc7MIjM3GLyYDr6hUPKLWMj5qJXMSiil6+A3ufPs7Mu5+hWnXbsYvLo9xYRlcEpKJR3g+f56VwcXB2Vw0MxXPOanMvnITqZuf4sk3j3KgQk11J5S1mSlrdwK9rNNMaZcYODUjLHMB9dJuA6Vdeso6hilpGKCiQU1V0yB1bUM0dRnp7HNIeWPUemcUjxgAFoPBQlxRPmNB3qXf0dfh1yy7gf7b3sjuvbs1IDTwuwK6C9wuaLsA4lovaD4aDC6wCyAJQIkMhgLg/UMWerUWegbNKNUmFAMmFP1GuvuNkt9cpbGjHLTRoTLSqNDRrLZSozJyRm2nZRgaBuFY0wDP7f2e3JsfIWJ5Ln4RK/AJS8BXWORRadLAp58sTQK6f1Qq42auwDcskauydvDo7i841NRJqwG6rFDXb2fv0SZufPAt5q7cjMe0a/jvoKsYNzuZ8aGZ+ERkEyjLYZIsC9/ZCVwRncHyjDu46/GP+eyonEq5ncYBqFI6ON1hRIRGViptVCisSJExnSYpFLKyw0BVh4FKEUHT6swjUysXaQYstPWBQgN9etBYnCkGRkfICLiPBrzQqUtccB/duq7Nhbajr5v71nNrwK2B30YDvxugu6B9PkBIQHCctc6lkEOR78ThTGo1oLPTO2RFOSgALsBtQqk2oxg4K2IQtH8YegbtdPWZ6egx0NJrpGUIGoagVGHgk9MtPPjGl6Te8FcWpt7A9EVZ+EYk4B2eSEBMJv4xWfhEpjM+JJGLZ67ENzyRsGUbyLrhKZ548xDflnbQ2DeM0mhCrtXT0qelfcBIl9ZBfaeOb4418dAze7g242amxGZK+xk3ew3+kalMn19AUFgyU8JTmCZLJ2xxEUtTb2bzXS/x0sen+K5SRancTKXSTmmnhVJhscvNlHWYKZMLqJuoEPHtchOVYrnDSGWHkSq5idouC40KO219drq1dlQGO4MW0I3KHeNKDOay3kdDfjTMxfLo6+S6dv+o/W26sHuvbg24NeDSwP9joJ//lnd9MhoU5y6LbcQ6ARQBHzERqF9np2fQRFefnu5+A90Dxh8BXTkK6N0DZjr7TMhHSVOfmZPtWt472sA9r3xB+vYniEu6kSlxGUyUpeEXkYZ/ZCYTo3PwjUhnQvA6vEITCYpJI+La9RTsfIqnXv+ag6c76OyFfiPUdOr48EAZ9z37DtsfeJaHX/6Ab0ubaddAjxlqu/S8/105976wh+St9xF+bS6TZKsJilhDYMgaLo1MZUpUOhPDUgkIS2TOVTksy9nJpntf4PF3vuPj462Udlmk+HcRA18qt3CqVU9pu4C4mSq5hWq5VWqr5GaqOkyS1HSYqe8y0aQy0j5gpntIgN2Z3kAjon/szjQDIgRytPU+lkvGdW1c1+1CWlenc7duDbg18Nto4F8AdBcKfty6gOBaez6LUMBFTAbSSrM6kdwpcpWODtUwnb0C6kYUajMC5Mp+k1MkqFvo7rfQ1qOnQ+Ri6dJwur6Tjw9Vce9Ln5B00+OErtiEX1Qy3mEp+EVk4ReRh39kIQFRxfhF5OMxO4VJc7OJS9xO1o6nefClzzlW2c3AEAzroUs+wIHDNex66kNW5d/N9Lhk/EOWErYkjaLbHuGZ97/i64pGalVDdBrtyA1mviop474XXmfdxp1EXJ3B1KgEpkalMCkyE/+IHPwiUvGPWoNnyFVMiV3NvKTNrL/rWV79soxPT8k50jQshTsKqFfIrVR2WKnqsFLtErlYtlAtQN9uprrDID1w6pV6mnpNtKltdA6BQg+9ZhiwwaADhoWeR7lhznc9XNftt+me7r26NeDWwM/RwP8zoLtufOdczlFx0uf8fBdAd8FDwFsMcrpiyUVrtCL5wRVqm+Q66dU66NM66O43090vfOUC5GapVfSZ6O4TFruJbmHFq010a200KIb5/HAN9zz5DssydzB+5jWMm70a7/AUAqKzCYwtIGBuAT5ReXiEZ0sSEJVF8JUFbLj1Od7+uppqFfQ5oEsHHf1w5FQrjz76BouvyeeSSQu46PJleAevwj98Nb5hy/GPuIagmBVcW7STXa9/wldVHdRroMvm9LOfbOvniXe+JKHoViKW5uA3ZxWXXLoCrzlrCIhei7fsWrzClzF+9lWMm3kVs67KJe2GJ3h891G+rdJQ1wu1Sqjthmq5jcp2szRpqarDTLVksVski124YCo7dFR16qjpNlCnNNPQa6NlADpEPLsOekT5PItzspKAussF4/Kpj7bYxfUS11b67+xF/jl98JdvO/r73Mt/fw3cOvnD6eRXAf3n9heX9T26FfD+ARQjdTVdEBcTgfoHTfSpndKrNqIS1rfailKkmVULd4sdlcZBvyjtNuwU9RD0DTro6jXS3jOMUmtCqTNS09nDW18c4Mb7n+GqlC1Mi01jYngKPqFpBMgK8Jfl4x2ezYSwDLxk2VwUkozX3CzCU29nyyPv8tWxBrr7zAzaoB9o1cF7hxrZePcrxF+7kStmr2by7DX4hazDKzwF74gUfCKT8I5ch3fEWrwjE/CPTWbSogyCV28h9553efOQkmo1KIAOI7QO2fnwYCnX3fEs8cuuY2LoGv5rahx/CVnChIjleEWuxjsiQRqEHTd9BZfOzeLa7F3c87d9fFfWT00XkmunqR9KW0TaABNneqCm20q5GFBt11PWrqNCbpCShlV2mqnuslLbbZOkrttGvcIuhXEqtDb6jXaGbU5rXYDdBXfXAKq4flJO+dEX1UX5sTrIL8f3j/9yrH271/3hAPZ3hsQfvA/8aqCfex//o/cu69sFcgEGEWYoid0ZLy0mAglLXG+G3gETqn4TPcJ9IgY7hStFbUOpFjM9R0m/ne5eK4peK31qZ/y1CNVrUQ5zsKyWv+1+j/wdtxG9IoVZixKZHL0Ov7BUfMOy8Y8oxDe8CK/QPDxCsvAMz2DK4vWs3PYUt75+gDdPdUox34p+HUadkZKaJh57fQ8Z2x8kLm07VyzdwOSobKbMyWJSWA7+kdl4RYkZo+lnJTINj6g0xsvSGBedxoToPIIWbSc88a/k3PEmz356jJNyNRpAbrBR3qTms68buO/pj5mftg3/eQmMC7sGj/CV+EYlMWF2Ap6z1+E7J5nJEVmEXbmJhPz72fnXd3nj83KO1qs50wutGihrN1Darqeiy0R5l4myTqOUHEzEtlfIbZJUym1UjUh1h43aTpOUu0YM6CqGBNid0TEiR7sovvEjd8yopEk/jJae78b6MZZ/+bvz7d+93g31P3Af+F0AXYK6GJAzwbDRzpDBjtZgQyMiV9RmVAMWCeRS+OGABYXagUJYtSMiii+3KkzSe5VwGww4qJcP8+2pRp588zPyd/6VeeuKmbZgHR7BV+MTmYBfdBo+sgw8wtPxDMtkfHA6gTH5RK26mdRtz3L/K/v55KRcmsyjsDrdQBaLA5NOx74DhynacSdXzF+FR6iAbBL+kblMjtxEkGwDflG5eEVlnIX5KLB7yNLwiE5zfh6agVdwOldcWczVxXez5dE3ef7zY+yv7aJdLSZDQXl9H+98foTbH3uZtUU7iViazqSIlYy7/Cp8g9cSGCEGTzPwDU4lKDKLkCXXsyxnF5vufZtn9pzmYL2Wkx0mKnscVPXanbNNu0bi2cVkpU4b5XKr0/8ufPByC1XC5y4Xv2h0UgUmkaSsrd9Ctxb6jKAeCXsUEUbCYreKBGgjtR9d+aov2HL6pUj/A9+0F6xbt47+cA+33wzorr50rsU+2kI/10pXD1lRa80MaM30aU30asz0qq2oBqwoB0QNTuEHt9ItklKpz0rnADR1m5D3Q518mK9P1PP465+Sv/MhYhOK8I9YzUUzVuAVkYZvTC4+sQV4xeYyPjqdSyJSCZiXT9jqHSRtfZb7XjjAF8e7Ueph0Ayt3UPUNcrpUfZh1Gqx6YepqK7hqdffJvume5mXto0rlm7EL3o9nmHX4x25Ce+oPLxGQdxlqXvJ0vGSpeIVnYK/GPiMSOHSqDQmylLxnpvGpMU5xKTdRPE9L/LqnkOcKm2hra2P4WErHR09fPnNUXY98iJJedsJWZAquYwmyzLwD8/CN0wMoBbgGZLLuFlp0kMlNvl2tj22h1e+qeGr2l6OdgxzosvAaZE+oNtCaZeVMgH0Tqs0E7VCbqFShEWOhD1WyY1UdwoxUNctinpYaRN6H4JeA86wR5vz15UEdRfYR+YLuPqAqx0TRG6g/+GgM2Y/cHUSd/ur+sM/Deijr8NoF+qYQD9noFOUfzMKv7QA+KBJEtWgiR61mR7hLx+w0a220jUoxEGXBjpHpEMNLb0OauQG9h1v5sEX9pBQuJPLYlfgOWcRflEr8Y9JxSsyk4uDU/GOKeDi0HQuDk3EZ24ys64tJnHrI/xt72lKO+xSWKEYGGztg5M1vTz9yqdsuflh7nzgWfYfraKzVydZqGrh89bDh4dr2XTva8hWbGdiSBF+Yfl4R2ThGSWs8HS8I8+KV2QaXpEpeEUm4xexjsDwtVwmSyYgfA2+EWuYtiib6ITrmSRLYEb8OtLW384bHx6kWT5Et8qMXmSItMDpOhWPvfQJWZvvJ2xhBj7TrsLjihUERRcQFLcZ36gCJoRmMD4kCY/QNUQmXE/hPS/x1MfH+ay8m0Mtw5yQi/QBdiq6obzLLkG9otNKhXDDiHS+8rMiAF/VaaK6y0SdwkJjr422AQddwmI3jBS3Fu4ykQhNXNuRlMXige26/qP7hyuVqXRju4H+q25gNxzHGJD/UWf7Y33+TwH6WPpz3ciilXKS28FqA4vIemgBtdbGgMbKgEa0Nvo1VnoHLahcohEzPa30DI64VzSg0kO/8KubQGlwZhg8o7Lz+bEmdvz1NRYkbGCKbDm+oUsIkC3HR7YSL1kCHpHJjAvP5JKwDP48O5lxIcmEr7qeTfe/zN5jZ2gfGonssIoKRbDveCtb7nyRFVm3M3NeFr6zVjIxYh2zlxaRuOVhHn/3W062qRBQ1zhAlIk7WtrP43/7nqSCJ/ANS8UzMg3vqHR8I9PxiXCKV1gKnqHrJPEOTWDCzGvwC15OxJJc1u98klf3nuSJ174l4qpcfENEaoG1XBqfzlWpO7nnqU84Ua+l3wq9RqSi0rWtat7du5/N2+4kJH4dE2aswiNMjAFk4hedw5QFhUyKz8Yvah0+EWu4bEE6S/Nu495Xv+LjU3Jq+qDdCPUDSJZ6jQpqVVDZbaek3TRiuY9Y7yKvjJih2mmistNAVadeKp8n6qG29ZnpHrQxYIBhkbJYXOcRmJ/La9FXRJ8Yq8+cu+1Pvh9rB+51YyvWrZc/jF5+MdBdfeTcm1MCubDQRn5+uyAu0rqaTGA0gUGExQ3a6FOLAUynSK4VAXDNaLFLeUgUor6m+Jkv0t5aoFVA93Q7j725j6Jbn+DK1K3IlhcwWbYan9BleIddg2fEcsZHrOTPwSv471mr+N85SfjF5rG08GFue+5r3j/USLl8CJUFtEBVq5J3Pj3ITXc9yeKEDcyISyNIQDk4lXGzM7gkNAeveZsIunoLIWs2krzlNl7Z+yUaMTooStfp4Nt9LSSk3YXXrDX4xmQxeV4Bk2Pz8I/IYPLcPAn03iFJTIxKZ9ZVRVyddwc7H3+XD7+t4VSFkk/2VZGQsZNZsakEzU3De14OE2QZTAhJYcaiTSzPu59bH9vDxwfPcKZTLz3w+jVGWlra2PPVUbY9+BbzM+4mMDaLCSEJ+MlSCYrNkNw7PuFr8Q1LYFJMMiFXF7Ci6G52PvEBb31Xz8l2C2cGoL4fKhVwvFnPwVo1pZ02CfTCLVMmrPgu4Z4Rs1JHqi7J9c4QyI4hznSPgF1jp1/vnJjkCnmUWtFhRoH83H4z8rFzowv539UB3e0fBlZjWgHu6/+j6z8m0H+OjiSAj4SuCYiLVK0uiAtLXAK4AfQi658OhodhaEiEIzqkVK8i3auQXrUd1aAzDFGEIvZohDjoG4Z+gzMPSUPXEN9XdPDoG1+Rf+vTzEu8jikxCXjPuZpJ0WsJkiXgH7Uan8iVeIav4uLgFYyPWMsV1xSzbNP93Pj0B7x75AzlSpPkWhF5Tcqa+3j186NsffhllmbfxLR5yXgHr8A7OBGfkDSnbzq8EB9ZEf4Lr2N8jEjGtYY1BZvY/fnXqHVW9CY4Xabi7l0fETZ/AwER6UyaX8BlC4uZGpePf0Q6AZEZTF+wnsWpd5O34zV2Pf8VH35fLWVxbOmDAyeVbNjxPNOiM5ksy2Ti3Ax849Lxi8nEMyQVz1kp+IWkEHLVBpI2PcSOh9/itU+PU9LSL8WNd4tfCa29vPbdaXY8+Sarim8jeGk2fqEr8Qteg3/IOgJCU5kYmoR/yCqmxoiUBfmsLL6HnU98yKtf1vBNhZoSuYOyLjjabKCk005Jl1NKu8R6B6VdNmfaAblIO2CirENPadsQFe1DVMuHqVcYaOmzSC4xUZO13wRiFqre7hxYHs3q0f1s9PoLWh79x+7lH93UbvCNshz+YH3jVwF9LJibLA6MZjsGoxWdwYJOZ5cArhWpXIUMgloN/SKKQw19agd9Aw561Q5UaofkYhFuFqXGgUL4ywes1LcP8M2RKp59fS+bbn2UiGW5BMWI0L1ruGTmUrzDVhEQtZaJ0evwCluJR+gKAuPSmXXtdSxb/xA7nv2I907WUz1opE8KCzRS2dzJJ599z477/sbcpM34L0rnL+GruChUxIrnSBOLAmPWExS9kSDZZgJiNuITV4xvfA7L8nfw7Dvv0dbTy+CwifLKVm695/a8XKEAACAASURBVHWiFm2TwhanxApfdh5T4gskiIdcvZUFyXdReNvbPPNuFQfLzbQOOCfuiDDFozUKtu96Two/DJQVMnHuevxFsYzotfjLUpgUnc/UuRuYfeU2Zi/ZwuTYbCbGprEw+1a2PLabV7+r4njnAK0WA71YqelT8f6BI9z88ItcnXoDUUs3ME2WQ+DsLIKCU7k0MpkpEavxCV6Gd+i1XLEwi2U593DjQ3t45fMavq5Uc6xFFNRwjAiUdEFJN873nTZOd1o5LbdIycJK2vWUtA5R0qqltH2ICrmO8vYh6hQmWtVO15ja7AxJvSBYX8hGf7Ab1Q3pPy6kf861/zugu+6TH2CNHTuiqJsQ8e/sQJdYllwrIy4WYZkP680MDZvQDhmdorVKENeoYXAABgagf0DEl4NK7ZSeQdE66B10gl0x4KBdZaWmXcfXJ1u595kPuSZrB4ERK/nvoHjGzbiWCbNX4xW6Ft+IdfhHJuIxexles5fgNXMRl8UsZ1nOLdz76vd8WWum2eKcuNOgg8oeHe98c4z1N/+VyAVJTJi2kP+ZtYw/RSUxPi4D7/k5+Mbn4hebT1DseqbEbubS6K1MlhXhHbqORRnbeXHvfuQDw2jM0NDRz833PE3MkiIui8xn1sJNBIhBz8gEZl6Zw9XZt7L1wbfZc7ST6h7nhCQRxy2m1guYt2m03Pv8B4RcvQmvsAwC4zcRtOA6LltcxGULUpkYlcQVCzawIPkBiu/aS9GdHxC24iY8w5KYIB4+0SnIEm9g4/0vsvvQaSpVvTRpDHTpkdxJBys7efS1L0kqvocZcal4TV+Gf3ACgeEpBIlskTEiX00Sl0xfgW/oOiJXbKHwjtd45as6vq3TcrjVyAm5jdPdUKKAU10OTnXZOdVl45QAu9zMqXaRZljP6TYdp9uGOd06TGnbMOXteipFpEyXmeYeIwM6GwaLQ5pIdm4/cr0X/e/ndGD3tm59ufvA2T7wA9BdIHe1zhtMANw8SiwS1kWImqjPKarhSL5xM+gMVjRDJtSDetQaPYMaA5pBAxq1FQFzzQCoR4DeNwA9/aAcgO5BB3KR/XDAKlXaEVZ8Y/sQe/aVsen254i8dhM+EalcHJLCn8OyuChUlHkTOVay8Q5LZdysBC6adjV/mRJPyKJkNu7YxXsf76O6fYgeoN0OtUPwZc0wd730DfHrbmDWomwmRiRK0+o9I1IZF53FRXNzuDg2k0ti07hElsJ/TbsWj9BUJkUVMzl0E1NCMknMv4OP9p+WshUK3/mpmk623fkU0VfnMj02k8vnFjApKpVp81Iovuspnv/kIAfqO2jUOmjUQLfIPyMKUo/kShFQf+SNd5mXdh0B87MJXLyBcdG5jIvKxn9uOpErisi86RmeeL+KIy3w4ucdLC98kvEz1xEQmYVIRxAoy2JKTA7T5uVwxbx0kjft4rn3v6e8XUevDTpFCl+TGPRU8vzHH7Nm4y0ExWRw8YxUvELFPvLxi8wiMCZH0rNn8Dr8ItKZvXQDKzbczwNvH+CL6j7KRP3TATjSbuZkl40SJZT3QrkKjrcbKRHZH7ssnG4zcLxJS0mrjtJWHWWS6KlsG6S2o49mZT/dGh0DRrtUB1XwW/Q1MVtYmoUqyufZbWC3gMMm3oAUFnO207pvYLcu3H1g7D7wd0B3WUqitUn/jNgwYGYYKwapLLPrF7EAusFoRztsRj1ooF+tY0Ctl5Y1GiNajYmhQRtDg6AdgEG1090iZnJ29ljo6rfRLRJDmaBHDzVnlLyzex/Xb3+ERas3ckVcJlPiCxkXnsufIor4n+gt/DlqIx6RhVw8M4kJc5K4dF4+V6bdws0PvcF7Xxyn6kwHg4Naabp6ixbePqLmhie+ZVnh48xcsgWP2cmSeIZn4RlTgGfcesbFrueiuYUjUE9nXEwKF4cmcPmiIqbKCpketZmk7AfZd7CKvkE9RjuUVsu5/uZHuUK2isDQlURds5G0Lc9w998+Z/e3lRxrVNCg1tGm11PXP8Bnp8qpUg6hsjoHYTt18Pa+kyxOK8Q3ZiUXydbhEZ/N9LU7WH7D37jluc/Z/V0lhxt0krvjyyo7RXft4fL5G/ENzSQwMo+gyDwmSZLPpIhcJoZkcnl0PnOXbyVlw4Pc88x7HKpro00/jMKho3FYzv6GVl7d30rOHZ8SvupuvEJy+d/L1uAZJkIq0/CJysJPlsvEuVlMnp/BnOWFrNi0i+1P7+HV7+okoFepoVYLpSo41KLntMLOSbmFE21GTrYZpQiZ060GSlr0lP4gGmm8oKy9h+qufhpUWtoGjXTrbPSZYWgkw6MIdZReDgF0K9itI2A/T3C7ywJxt+5fNu4+cLbAhUsXLqCLG0sUW7ZK/yyYMTnFYXNO0xd1Oo02tDoLaq2R/kE9/QLmGiMarYmhITPDklgZ0tjRDtoZ1NhRixBFrU2q66nUWKnrUrOvtJbn3v+a6257mmXrbmR6dDLeM66VZkIGybKZGJ2Pr6wAj8gCZ/hhaCKXX5XHqg33cNfT7/LBNyVUNKlQqK30DkGjXMPHB+u5/dl9rNj0N6Yv3YpXRIYELREx4hmWjk90Lj5xhXjHr2f83PVcErOeS6ILGRedj2d0jpT3fEpcFjPm55BUdD97vqmWojdESF5JVSv3P/wCS1dmsSyhkE07HuHpV7/k8+8bKG/SoRGW8SAcr1fw1lf7+esrr/PUux9Q0qGULPROLez5tobV2TcwM34l0xcmEZt6Ixm3PctD7x/mvRMtnO7S0mmw0mmEEjls/euXRK68Fb+IHHzDsgiMypMkKDKfwIh8JoblMzE0j4DgHPxmpzIpPI2oa9aTt/NR7ntxN3uOnKSyRyEV3BAJwb6t1vH47pMU3fEaC9NvY8qCbHznivQEqVJkjY8YlI1OYkLIcgJiEglevp4V6+9nx1Mf8dKXNXxdq+F4p50TnTZKlXC8w8yxVgMn202Udlo51WbkVKsBAXYhp1qHOdkyyMnWAU61qilp11AmH6K0XUOdykzHMNIvCvGrRYQ8uvqjE+6jVrg+cLdnleTWhVsXI33gvBa6ALozaZYDC3b0VhPDJgNavYHBYQPqIQODQ0YGh0ySqMWyVvjOLQwNW6XZjbphK7phC0NaI1qtgUGtHrVWR69mmDNtXRwqqeTZ3R+Sf8sdRK3MwjdkNeNnJDJ+xlp8Q1OZGpNLQFgakyMzCQpPZ2p0NqHXbGRe9nY2Pf4K7x8+TdvAoJRXpFdjoLahk4+/KePuJ/ewPO9eps7PxyMinYvmJDFe5BaPzcdXuBais/GKzsYjRkg+46OLGSfbyISoTXiImZ6RRfhH5TBlbjoJxbfz+hf7GRjJFV7fNsCLr+1lyw13cdPOXbz7/ldU13XSP+iMqW9sGaauwcrezxq4ZdcrrCvcSurmbbz51T7O9A8gH7Lw1dFaNmx/ENmiZJLzb+GGe1/g6d0HOFCjkBJ0DYhc78AABqoUAzz25iFCltzoBHhMIT5hmUyUgJ5PYFQBEyMKCQgrxD+kiMCwDQSE5OM7J0vK8+I9eyUz5qeSuOF27n/pPT4/UUtNtw75MLQNwak2La9/U07xA69xZfG9TFlWzF9kqfwlPBGPyEQpqZhn6ComzFmBV8hqLo3PZFnePWx75H2e+6yczyt6OdRs4Fi7mRMiL3unRRowFWAX1rqw2k+0GjgupM3I0VY9R1uccqRZx4H6QWldSZeNahEXr3XG9YvqUyK/j2tykuivbri7H2w/POndD7ExH2LnBbqAubCUhBhtDpT9apR9alQDGvrUw/Rr9Gh0ZrR6K0M/iI1hnRA7Op0Nnc4JdK3WKA2UDmqNKPu01DTIefrFd0jJ3cKM6CWMnxaJ5+wlBMbm4B1VgFdEDv6yXC6NK2CKLIOpESnMnJvJtSm3suvZTzhQp+CM1opKTOqxQ1u/iS+/r+bOv77O4tXX4T9jBRdNvRqP4CR85+YyMb4Q/9g8PCMzmCCKVESkMy48jUsi0hgfmc34yHw8otbjGbkBr/CN+ITl4xOcwsq8e9hzsIIBB2hsDlSDet57/wteee0D9h8sQdlnQiNi6vXQ2mNh/6kWnnjhS3KLHmXeok3MCFvBlQnZPPP2h/RYbahsNr6vrOfOh59neUoRdz78It+XNtM97HTDiFzkvaKK0MigaZfBwCdHa5i1IJfAiFwmxRQyOa6YwJgCAmR5kv87IKqAgKgiJkauJyB8Az7BRXjPycc3NJ+AiDx8QkU2ybWMn3k1QbJVLM26gTuefoe9h6upUhpQ2JAif1TA3tNtXPfIG8iSrsMzYiX/O20p4+eIXOxr8YtIYbIIoZy1BpHl0St4DSHXbiLv9pd46YtKvqzs5ahwucgtHBcwF4Bvc8rxNmG9mzneZuFoq5kjLUJMHGoycrBBz/eNBg6c0UtyvHmYOqWRDrVZmrAl8sX8aJKS+0Ye80Z2g879sBN94LxAd8FcFFruFb5OlZY+tbDKLWiGLQwOmxk22qRkWiKh1rDRgc7gQKd3iYC6XbLUB9QGhoZsDGpsHDxUQXr2NgKnxjDxsvkEzriKSSErmByTgbcsj/GyYjyj8vGOyiFQWORXrWfjrS/y9ifl1LdZpEx/oqKOkOrOYZ7fc5S06x9l9sJCgsLSmBKayuWhaQQGp+Abni5lPfSWZSHEK0pIJh6RInFWJp6yLDxl2QTErydo3mZ8I4vwmJ1DYEQey7N38fUphRTjPYQdo92KfmgYlVzBgEorxdUP6qGkQc0Le05QcPuLxCbvZNbCQkJjC7hiViIrk7bxwtuf0S1+pSAGKA18daKc9/cdpbylR/IdCxeDALhy2EhNmwKF1iIBTEzGOVAhJ3nTA1w6N5tJ0YVMmltE0NxCyQXlLwaGZfn4RxXgF1mIX6QowrEev4gN+IYX4xNWiFdoLhOCM/CNysZXlo53VBK+UWuZFJuIbE0xhXc+xatfnaBaZZQmV4kHV9cwlDZ18+KeQywv2IV/VBbjZq7FOziFgPAMPGeuwy8kDY9ZiVx0xSrGz1zBpLnrpFqq977yJZ+VKjjaauJkh41THTZOtts42WbjRJuN40La7Rxrc8qRFhv7640carJyuMnO9w1W9tdq+bZSyf5KOfVKg5RmQehCGBiSlS7+E/l6hW/QDXe3Dtx94Ed94PxAF5EsdhgyQKdSR3ePAc0Q0iQaMZFmWMBbQNxoH2mFT51RQBdgt0sW+9CwDZ1IdqVxUFOn5IWXP2dlwhamhyQwcdpyJs1ex5TofLyiCrkkej0TZAV4ReXgH5XB5XMz2L7rTb4vUTAk6qKJm1vy38Ohsk62P7KH4Ku38t9ThLsmg4A5mUwVPuSQdHwFgKIyJIh7CaC7JCpTArx3dDa+0TlMmlfMtMWbJTfGZbHrSdrwFHsPtCMfdMJWfK0I2hR5C2zDRhSd/Xx/pJKHnv2AtOsfYmHmncxYfgP+i69nyvyNXCHLZcm123ju1a9pUeikYhEiRFFltdOgGqJRaaTfJt7DicZmXnz/fZ5/6y1K65vQi8lZwMFyBRvueIVp8blMjslzwjxGwLwA/+h8/KLz8JPGFvKl3C2+UYX4RhXjG7ken8hivMIL8QjLY3xoDh6RuXjH5OETl4fv3EwmhK5m/JxlRK9Zz53Pvke5XIt6JKOk+O6+AS3fHK0j+8ZnmSjLx3O2KIWXTVBELlOiCvAPzsQvJBOvOemMn7lamgNwdd4t/PWt7/iqso+jLUZOddg53W7nlJA2ByfbHBxvtXNCtNKyeA/HWuBwo53v660crLNy8IyJI61mPjktZ3+NkoY+q/TAE1AXDJcgbhepHd2DpO4Hmvuhfm4fGBPoLv+5APqAFhpbBmmT66QJQMMGMIoZoMI1IAAuQd0FdyfEBch/sNQNVgwmMzqDsO4NkpXf3jXM3s9Os/OOl1i6ehvTI9MIChN5T3LxjCrAOzIP30iRpzyDieHJzF9zAzfc8wYffFVDo9wi5UkXs1CbOs18tP8MdzyxlytTb+Gy+Gx85qzBd3YCgbIMvKUc5Bl4yjLPwnwE6pLVHp2NX0w2k+cXMCU+h1lXFpK86WHe+KKKNg2obUiANZhB2WfjRFkb7356lLsee5u0zfcTm7CVyxcXMnnxBgKvvI6JS29k+tIthCzI475HdlNa34NWuGtEMWtGoltEMepGHR8fbuaRd/aTc9vjZN14D4+/9h4t/Xppuyq5lpuf2M2sa9bjEbqOwNh8AmOKCIgpxC+mAF8B8ug8fASko3PxdoksT/qV4yUTeszFIyoHD1kOHtHZjJdlcHFkMl6R6wi+Mo+kwnvY9be9fHmiWZrkpNJBnw7Kz/TyxgffsfnWZ5m74iYmRuTjG5xFQFgOkyLyuFRWjM+sdLxnpTMpuojohJ0U3PUyj7x7kI9OdXC4WcfJNjMlHTZK222UttkobbVR0mrjtEtabJyWxE5pi4PSFigbkZOtcLDZyqsHGnljfy1Hm9TSrwfpoeqyxgTQ3aGMP7LMzr2x3e//mLAfE+gizlxYaiLWXDUAFVUqqmv7aWnVoeq1IqAuqgk5ge6CurDU7egMwhq3oTc40Isp/0YzetMQGn0vgzo1erOIa4dBAY/aAZ559TvSix8icslmAiOzpSgO/4hsAiKypJ/4viFJXHTpMoLCk7gm4w4e/NsXHC9V0dPrLIAhBs9aVTbe+eoU+bc+RvTaTUyan46nLAkPmYjYSMdDJioQjbLQR1wwkoUuEy6JZC5bkEHatgd5a98JKeKi3+Esx9bYZuHkMQVvvldC0S0vEZdyK0HxOUwQlY5i8whYtJGJV20h8OqbCLr2FkLX7CDvpsc5XtGOUmenz2ZH7EthhuruIT75vpEHnv6adRufZvo127j0mi1sfOAtDtYoGJTcMvDo258xP/tGJsSlMCEmHf+4AgJiivATA6IxhXjH5I9IHl4xOXjGiBDMTLwkycAzJgOPmHQ8YjKYEJPJn8KT+EtUEt4Ls4lOvIFb7n+b/QdbUAw4HzRqE1Q06Nm7r46bd73J4oStBAYn4jFtLRND8ggMzWNiaC5BYXkEzMkiKDSXWQu3cm3+09zx3AG+rBrklMJGWQ9SBsdSuZWyDisV7VYq2ixUtlqoaLVQ1mKhtNVKWbOF8qYRaTRzRg6NnVDdZOO7cg0vf9vCHW8e4f53DvFZWZc0hiH9cnEB3R2b7ob5D33hjwnu8z2wxwS6SH8qAd0uLFM7J063cfR4C6dL5NQ19KJQGRg2CrfLKKibRqx0gx29EKMAukMCulY3yIBWhUanYchoYGBIVB4ySelghVV4pFzJ3U98gOyaAqbPS2dKdBKBEWsJCHdO/pkYmYpvaBLjZ6zGP3gta/Pu46Xdx6huMTIgEnaZYNAONQo9L392jKQtu/CNXIH/3EQ8I9fiEZEkFZTwlmXjGZWNp7BaZVl4RGfgFZnI+OmLWZ2/k73fV0rwFQBuG4Zvy7u59+lPWZN5H3MWFHPJzDVcHJosRcj4zSvEf8F6fOYV4zNvPb4LNzP5mh1cs+lRTskNzjS8RmjoN3CiSSXlXbnp/te4OvlmZs/NZ0pUFt4RyRQ9+C4Hm3SSj11phU9O1HNtwXYuW5JBwFW5+C8swC+uEL+5RfjOLcJ7biFec/PxmpuLV2wOXrFZeMSm4zk3Ha/oTLwlEa6mNDzDk/AIWcOfLlvM9IXp5N38GB98XcXAMBhMoBW6M8CZbtj19BcsWrsDn9mruejya6WHqXCtBIbkMik8jymR+UwOz8VvVhrz1tzFzke+Zc8RLWVKqNcizSQt74EqFZTLHVS026lqs1PdaqOmxUpVi5mKViPlbUYqWk1UtFiobLZR3mCnQQ5l9fDZNwoefOEIOXfsJu32N9j+5MfsPdxEnwnEWI4ooiFY7na3uCF2PqD90defF+iusnCihuexU2f4/mgdh47Wc/h4PSdKGqVQPZECV1jpolycsNiFa0ISkVFxJKuiwWTDaLZgMJswmM0YLFZ0Zjtak0PK7S2mz4skWS29Oj47UsItjz7DgrXZ+IcswHv2lQRGrWVqvPCnZ+IZmol/lLDiU7hifjZri3fxzO5DNPQ4fd0i/lsUpqhsV/PSRwe5Mu06LpmxkP87dSHjQ9bhH1vA+AgR1ZLLn0KT+a85K/GRrSLjujs5Vt4oRVacbOzm2fe/Jn3rLhakbOPSBTmMC01lXHg6AfEFTJxfyMQFRUxcUCyJX3whAfPX4xdfxJKNz/BBWZ9UH7S8V8s7B8q4+bF3WJV3N+FXrufyyGxmxxUTOn8Ts+fnsbroTg6eUUmWuQhV/K6qk7jEIq64MoVJC9MJWJiD3/x8ad++seulXDLecUV4xebjGZuD34I8/Bfl4r0ggwnRqVL0jndkjuSuGj8rkT9PvpLLwtew6YZH+PLLk/R0DKDXOmf4Gh1Q2WTkiZe/Y1nqbXjNXIOXiNEPz+CSsHTGzU7Fd04GPtNT8Lg8Ef/ZqUQsvYGNt7/PW191Ut4JjYNQ1g2VKqjoGREFVApruwPq2qG+Fc60OKQB7Vq5gVqFUbpeLf3QJgqTKOH70xZef7+Nux48TM623SRc9zKJ217ktic/5ZsTrWhNzpTL0hwj92Co2zp3W+fn7QNjAl2a2m93xgH3Dho4eqqGg0eqOHikloNHavj+aC1HT9ZTVdtBa3sfqn6D0w0jigmLeqAiJ7aAu8mBUYjZmbDLaLFjsNjRW+wMW2wMjRKN1Uy/aYgzynY+OniA7Q8+RsxKMfC2BI9gURg5HY+IXC4KTpMiVDwikpk8L4v4pJtYf/vzvPHxCeo7dGitMGSF5h4dh6vbuP+F91mefxuXzs9mXHAif5q1jgmyXC6WpeOzOI/lm+7hjY/38+buj7jnkedJ23gL0cuzuSxuHQHRSVIN0P+R5XJRTB6+84sJXFBM4EKnBC0oZtLC9QTNL2Zp8RPc8+ZpPizv5dFPDlD80JMsydtJ+LLrCFl8HcHztzIjZjMz5q5nVlwRi9duY8+Bcrr0DsnHfrReyca7nuaKRSlMmZ/KpAVZTBTAnl+In/gFEL8B7/hivOKL8IrPx0uMFyzIwndhBt4LUvCOS5NCM71CM6WQy1nzi8hc/xDvfXiCpjoVFpF3WFTIGIbqGhVPvryP3OseY97yLUyVZTF+VjKXhGZxSUQeF0UVMj48F8+ZqQQFZyC7+kZyb3yFv71byb4SHYfrHJTJoa53JOVuj8iRA1VClKIgNdR3ijw30NQOzW1ispedRqWJ1kG7VMS6ZUAUsYbX9jbz0LOl3HT3foq3fUHm9R+y7rq3WLflJe59+guOnO6Q+pLF7Jw4KmUDEDf0P/vlhsR5IfFHt3r/nc5/TKCLQVExICqsdBfQDxyp4sDhGkkE2L8/UsOR43WUVrRwpklJl0LL4JBNgrmw1l2pc0X6XJMZJ9Qtjh+ArhNQtwqw2xHLOpsVMw50WFDqdJxqaOX5D/aRvu1+5izNwzs8kYvnJHJRcDITRDx5pIheSccvOp3LFuSwKGU7tzz6Lh8fbuJMr4MBkbIVZwm5Lw5VctdTb7Ek8wb8ZWsYH7YGz+g0pq+6ibXbnmGjKGaRfiPRy/KZMS+NwIgEAkTSr6g0aRKSZ2wh3nGFBMwrInB+EQLkEtjnF0k51qct3cLqbS+w+dEvyL3nLWJSb2T28nzpuKbMLeCKuA2ELNpC8IJNzIjLYuG6Lex6/iPE9H/hNy9rHebeZ/YQcmU2l8dnMGWeiLwpIHBeMQHz1uM/byN+8RvwjS/GJ74Ab+HDj0nBf1EmgVdl4LtwHZ7Rq/GVJTJjUS5rC+/ir898wIFjDagG7FJRETGe0dI6wN7PTrHhxqeYe/VmLo/MICgkFb/gDLxFNExoPhPCChkXJqJlCpi96DqSNzzB/c8fYO/33ZxsEm4tKGmF0y1QMQJ14Wap6oXqXqjphboeaFRCswJaFOIaiDh9kGuRiomIwtRfnFDyzO4yttz1MUXb95B13ftkbPiQ9Os/IP2m90ja8hIPPP81pyqVUl+yuoA+KsDln8p0N9DdQP8P6AO/AOi1HDgsgF7HsRONnDzdRElZM5U1HTS39TGodUgW1ejEXU6gO6HustD1VgcuMVgdGGw2THYrQ2Y9QzablI1QZYZvK9rZ8dg7LMzYyaT5WUyISOFPs5MYH5mDd2wB3rF5TIhI4+LZq7l8UT5rr3+Mh98+wtGaPpS9FkRKEPErvUPVx5uffU3OzfcRvjqfKQtzuHzJDYSuug2/iCw8ZicSEJHBpXGFXBZfxNTYQqbEFTEptohAIXFFBMUXETRvROYXETivEOGXn7n8RuIy7kOWfCeB8QX4RmVIqXOnLdzMtPlbuTx2I7MWbGRGfA4xKwu58eFnKJNrpIiW1n54/NX9LE64kYnBiVwWm8/UuGImxW8gMH4zE+M3ERC/Cf/4DZLrxW9ePn7zsvCOS8ZvQTL+i9bht2A1kxatZVHmVrbc9yyf7j9FT79WKt6s0Vlo6uzn86N13PHsRyzJvB3fWYl4Xr4Wn5kiP7qYtFSEb2gR42bm4R26gcsW3MqitEfY+sBe3t7XwOlWO2d6oaoLapVQ0QFlbVDZATVKqFaZqOnTUdtvoL7fREOfheY+u1TGr70POoR7pR+EVX68cZg3v6rjjqe/JG/H66RsepmUjW+QuvEd0jZ9QPqWD8i59SOStr7MIy8foKJ+QEoC5wK6CHD5u9mj/wyy/wfczP9OlqT7WH+bcZAxgS4AaBmpD9mnMXKipN7pcjlcw8HDtRw8VMehI2coLe+ktLSDk6eaOXbiDCdPN9IuYpo1IrrFaZkLmEtAl0IdHRiFlS4B3FmqzOV/t9gc2BwOrA47BpsdjdnuLI4ANGvhvUO15N/1HJctzuHiOQlMiMjENzafADE4OS+fSQuLEEWYL5qTQNC8PNK2PsHeb2po6TJIA6diYo+oTNQ8qOP5vV+TUHQHU6NS8Zi+Gj+RtjY63ymyfCZFFzA1VhSnGdxxEQAAIABJREFUWM+UuPXS7MxJAu7xRUwaAbqw1F3W+pTFG5myaAOTFhQzZeFGIlbfzqwl27k0fguTo69jasx6Zi5Yz/R5GWy4+wm+rq6hX0T6AG9+UsHSdTuYOGsVs+YVcHlcIVPjNjA5bqNUHzQwbhOBcRuZGFdMQFweAXFZBM7LYPo1+XjJluMpu5ppy5JIvvFOvi1vlJKciQFtMTFMOWynrLWXR974lKU5O/COWsNFM1cwNa6QybJCfIKz8A/Lkx46QbL1XDI9nekLbyRr+/u8sa+LM/1iUNdpcQuYVwq3ST9Ud0GV3E5dNzT2OajrHaKub4Az/VoaB/Q0qy1SHnRRULpt0Aly4Vf//ISS+178lrxbXiV5y3Ok3/A6iRtfIWnTW6Re/z4ZWz8ia/tH5N/5GUlbXuaJ1w9T06TFYoPRQBfn53Kl/zNYLu3DDXS3hf4f0AfGBLo4L1F5SEBdq7fT1Kri8LFaDh1xgvzQkQaOHG3i2LFmjh9rkdpjx5s4fqKZktIOqmqUtLYNSXnPjWbnfoRfXnpICFeOKAo9IiI0UtQZtYooBqtdEgF3UTRaZ4NBMR3eCu06ON2p5c391f8/e+8B3dSd7W2vb61vrfvdaWngblpCMpNGdbfB9G6b7t67TScJIb33nkwqvdckEEgjhIB7Adu4ypJ770W23KTnW/tIAsMk887Me++6Nxkra+dIQhjJOuc5+/z+e/82AQ+/z8RZ0dzy4Apum7IGO48IrN3DuW16AHc4BmPpFqHAz3H5Q6x/cT/HLxWh7hpUgN48aKCxp58rRdV8uus0q4K3M2G6P5aTAhjnHMXEGfGMdY5UBi7f4ylAj8feOQKLqUGMnxHD+JkxShYudgLjZJF0VqySqStwny3AT2Si5yYmztjCRI8tTHTfykT3BMY7BxH26Lt8m1uKLIDW6+GnvFoWrt7Kvc5+TPII4y9u4fx5hhHoEz3XM9FzI3d5buDOmQlM8IhmrJRYOq7BapoXFlMXMnlpMOFPvcGe82mUdQ+gFTnC1EWbW9vDm4fO4RG4FUuXVdwx3Rsb11XYuwdh5xyGnZNYEEdj7xiJ7fRQ7nKPxW/jp/z1eAFJKlC1GWEuAC9pRsnQixqgqBEK6/UU1ukpqhWoa8mvbSC/robixhbK2nsUKUm+s9peo19MskrHh8cvE/X4HoIf3oX/lp34bt6N35Z9+G0+iP+WIwRsPU7g1pMEPXKS6GfO4LtpJ2/v/omrqg4F6ENyhhLzRZmINQL0Efj+BuD733GV8jdAl9+T3MxA7+7Vo6loJskE9EtJxVxKUpGUpCY5SUNKUhkpyWWkpJSRmlpORkYlmVnVXMmpp6CwlbKKTlra++jq6advULJwFClAoK5MiR+CIbG/FpfUAYMSYoUtgJcFVoFUhx6ls7K234CqfYiLxe28cziV5QmvKTMzb5+yit/d58PtjkHc6hjMHx1CuNU5gjtcI7GbHYdHyGNsems3p9KvKkOWpcJDbH+battJTi3l9Y+/xSvyde6VEkTRlB2CmeAmcDdKLmPdY7B1kSlGUYrB19iZ0UrFi1L1Miv2Rqh7rmPCjE3c6bGVu9wfUuKemRuYsng9u7/LRaUdpIkhqgcGuVzRwbYX9zLbR/RsP8ZP8+VO1zBFcvnLnA3cN28L983bxJ9nJShj7WynrsJuqjf3zwkg8vG32PVNKmmVLZT1odRqy5VPeUUt+05dIOzx93nAZz1WnhH8brqfYrZl5SplnP6K9YGlUzg2TmHcO3893nFv8creZE5nNJMl1SnN12Fe2gISqhYDqmY9JU1DSqgahyhtGKK0vpuimlrKWxtp6O1TmrHapO6+D9LUfew+W8ATH3xLzNOHWbt5J2s27WHN5n2s2XKANVsOsnbLEXy3HsPvoeP4PXSCwG0niXrmDAFb9/L+/hQK1N0jQB+B18gJ7B/cB34R6AJeyahvBvrFSwL0UpIUmJeTmlxJaoox0lIrSU+vJj29hvSMGjIza7mSU02ppp6a+mZa27vR9vYrC6TysyVrl9pimWcg1teKTiA22KJ7D6AcyJLJaw0GOg0G2g0GxYxLJt9L2dtXKRqeef8kXlHPYu/sy6hpa7ht2lpudw7GamYkf3IM4A/T1zLKxY97l8SxatOrvHP4B8Ujpa7TqMWK+VNZs4HjP+TzyKv7WBC4jYnuAdg7+DLBI5Lxs+KwnhnHaJcIReIRk68xMifUM8ZYxngz0GclMH5mIhNmrGfCjI3cKVm653omL93IYx9+yanLJRR1tyuSS40Okq7W8cGB74jb9i7z1spJIIBxbkFM9IzkL/MSuHduHPYOfoxz9MV5WTyBG1/mpU+/UEocy3qMXagyVu9qQxcnz13h8Zf3sDBgGxNnhGIpU43EiMwp7FqIIdmt09dg7xnC7Iin2fz2Cfb/qCJfwN0JZd1Q2q6nqFFHacsAaiUGUbcOXQtNm56KVj2VrXqq2/qp7+qlc1BPl3QW90FpI5xJreX1PanEP3OMNet3sjxxJ6s3HWDVpoOs3nyI1VsOs3rLEdZsPcrah47h+/AJJQK2nSDq2TOEbT/MZ8cvo6rUKcmFMUM3jGTo/+CB/d+R/Y38zP8e3fu/8vf6zwH9UiEC9IuXSkmWzDypktTkatJSakhPNUVaLekS6XVkZNSTmVlJTp6G4hINZRU11NY309auVfxYboD5MKCbwT40aGBAP4TOIKM1xNNjgG69VMQYL7vlKryqFY5+m0Pckx/junIT46TJxi0Im1nh3Oriy6gZMrAijFsdQ7h9eiB/XpBI5JO72HP2MnlVXUpDkhwjUhGTU97IJ8e/I2TrKzh5JXDvPKluieKPblHcKu31M6XJJwp7TyPQBeoiuVyTXaQKRh7L856xCtjHz9zIBM9EJs6JZarPOiKefptd585zpaGZCu2AIgPJuLhLedW8c+Bb1qx/gek+8dwzN5Q7PYO50yOQe2YEsTj4MZ565whnU1VUdhlH2DXqoaRDx7nCYt489DXeMa9wl1sco+/3xWZKoHKFYecQjq2UIk6J4E/T4rCdncgDqzfh8/ArvHbyAj+Wd1A2YByNp+nup7RDi6ajC3VbF5rWbjStPWhadZS1D1DeMUhF5xBVnXpquwzUd0JztwE5KYrXSn27gaz8Jg6ezuXhlz8nYNNufGJ3sCRqD0ti9rFy4zFWbDrGys2m2HKMVVuPsfqh46x95AS+j5zA/9ETRD13hthnTrLvdAHldUPXgG4Y1P8t0M2AM11Z/ssb888Z2Y5kw7/ifeAXgS5arMguYsJVXtlCskguJqBfUoBeTkpSFWlJNaSnVJGRWqFEZmoVmWlVZKVXkp1RTnamhpzLGnJz1OTlaSgsrKCysom+PpPUItm52TxmONTlvtIdaIR6nwJ243ANRRKSKwiTgVi7ThYAYefJZNbEP8ufPf2xc16luAvKQqmNWwTWbrFYOEXwH/cs50/3r2DSknjWv7SLc3lVqNv7lAVKWaQUSBY2a3lj35csj3uCuzwDGO2wlvGzY5QSRWlOUlrxzTBXtHSBeDzjPBMZ6xnHGM8oxnhGMlaajjwTlK39jDAsHFcxduZK3PwiiXvuDQ79kEJxcw9tJsdFGU+XUdbOcx8dxTtyG5Pn+jF5ji8bn/mQz3/MV6pEZGG3RQ91A+Jl3s5bh8+wfN027vL05bYHVmHrGI1Y6t7lEcM98p5cZVRfELdO8sXaLZo5MS/z+pfJfF/RQkEvqPqgsGOAMq1eWdAsrG+jtKWLul496tZeE8z7FZhXdgxRIxOmuqCpG6XjtLkbGrRQ0mDgq6RyXvjgDAHr38cr8h3WbtzHqvUHWRq7n0Uxe1m+8Sg+m46yfNNRVmw2xsotR1n90DEj0LedIGD7CSKfPcO6F09x7PsSqlsGjFdyypXb0DWgyxWk4s/1X7U6+is+iP8rM7yRn/W/Pwv/e9/RNaCbMxvZr+VmBrrUkTc29ZCSWsilS4UkXSoh6ZKalEvlpFw0Aj0jpZzM1BIyU0rITlFzJUVDTnoJuZn55GYWk5tVTk5WNTnZVeReriQ/r5Lqqla6OgcYEnD/3E3egLR6mzR2cViUagcJpXTN9Lzo75Lpy627H64U1fLJgdP4xTzFuCmrGDctBJspwYyaFMioKUHcPjWQUQ5BjHb0x9rVn0le0ax79WO+yy9Fo+1V4CrZZnV/L+macj49+jWhCc9xt+Ma7KYFMMZNMu847p63jvuXblEycXuPGOw9ErCfsYExMxMxlhaGYz8rAvtZUcp2zKwwxngGM26WP3fN9eP+RQE4Lw9j4wvvczolX1lIlEocsdNt6oX0q2UcPX1eiepmnbKWIAZfctIpaTHwwbHzrNnwLHd5ruGOqYsY4xGIjUso42UBVawCXEMZPXkVv797AVbTljM7eDtPfHqaswX1XOkYpKBXr8BcrTNQ1mOgqsdonVvdhQJt2ZY09VPeCVValKuCynaD0tXb0mV04ezVQXULfH6xhjcOX2HDK6fx37qb5YmfsnzdTlas38vy9QfwWX8Q7w0H8dl0WInlmw+zwhQrtxwxAl1g/tgXhD51WpFcNr/2NV+nVdCk7aOnf4DBgUEMA0MMDRmUE7nIdSNA/3XD5++BaeTP/rXv9m+AbmargF0OGBkC3dY2QGpqEUkmoCcrQK/gp3MaUn+qIjNFQ3ZaAVnJ+VxOLiYnWUVu2lWuZmRxNbOAvIxKcjMayc2sJzer1gj13HIqyhpoae5GJhv1y3W7+ab844pnrbGywaSpi44qIXr7DSGLqH0wIM6P3QM0NLSTcbmCt//6DauDX+NB8UCZ5MfoSb7cMcWf0U6hWLiGM0pxIgxiwrwgFsQ8xNOf7uaH/Ms00ks7/TTrtVTUN3PpQg4vv36Qxf5PMlGajKZLpUgIdyoVLnGMmSk+KwnYum/AdkYCdrOisZsdfi3sZwvcwxGoj50VyrhZwUzwDODuWb5MWRTEsvAtbHv1I774IZ02sVIYgs5uHe1tHXRr++iV6g4puWzSse9sKpHb32TKklDunu2PretaLJz8sBRnSacQbN0isHMLVXxcrBxWMWlpNJvf2MeBH3NIKW+ioL2PUp2B0j49Gt0QZbpBKnsM1GihrtsUJqiL42SFPNeH4nGjTFHqRXk/Ta2QlSUnz1Q2vHKWgCdP4bXxAAvid7IofhfL1u3Fe/0+fDbsx2fjAbwlNhnDZ9NBlm+WOMQK0dIfOorvthMEPv4loU99ReQzZ9j8+td8k1FGs64L7UAPgwP9CtAHh/T06w1GGcbk7SLGiwoAzPvPv7I1/4yR7Yjk8iveB34W6PJ55CZbyYy7ugykpRWRnFRE8qUSUi5pSEuqJOnHCgXoWall5GSpyMvWcDlVQ3ayhuzUIi5n5JKTWUxOZjW5mU3kZjWQI0DPriQnW01Bnga1qobammbamrvp69FjkNHvJulF7psXSGWRVGCuDIMfDnR5TmrdtUPKScGc8Uu3qrqqjxNnr/LoS/tZGLCdCS4B3Hrfciwdg7FTXAvjsXAKw8IhAHtXPzzWJBL39Ot8eOIrUtXlNA4MKV7cbV3iBNjCgdPJbHzuI2at2cgEFz+spq5hjJsMyIjFzlMGTkdhLZ7jnjHYDwvR2o0h2rtEFOM8wxnvGYy1gzfjXZezMHgjb+/+nLrOQbp0BqWUU74D+VWUN+s4nVLM4+8eYn7oI4z1WMNoBx9s3P2xnRGiOEreNs04Zu+2SWuU7lnnVVsJfvQD3juRzI/FLeS36NFoobwXykxR3gMVPcYMvFaAfi0M1HUblMcNvShdt2IBLHJPvRZyNUOc+LaUl977lshH9uKd8BmLEnaxIG4H8+N2KPeXJu7Ga/1evDfsw2fjfryVMILdZ9MBlgvUNx1SMnWRXPwe/ZzgJ04RJkB/+gySof8s0Ad/BugmN13jXvsv/v9XfBCPZLP/Wjb7W/y9/V2gy6EhWXpPD6Snl5CcVEzKJRWpl9SkJ1WSmVJHdmq9kqGnXMzlp3OXSUvSkJ5SSUZaKRnpBWRllHIls5acYUDPu1xFYV4V+Tlq8nNLKS4qo7K8nqb6drQdffT36BnUoYTAWiA+PG7OzuU1Q/I6OQGIHm8aaCNZbeeATBVq5MPD3xO46TXunxej1HTbytg5xzhsXRIZ776Rsc5xxk5Rj0A8VsTz8CufcupSLkW1Wlp0xkXTTr2BrJIS3t1zEv+E55m8IJqxbqHYz4jEdnY4VnODsJoVqsB87MwEfi7GzBQjLwmxEojmL4sTmB/xFJtf28ux8zmK3NLRK5OeemmqrSE5M4+/Hj3HsoQXGD8riD9NXsYt01ZgOysCm9lRWM6I4FbHIP4weS3WrqHcPTeOJTEv89THZzmTXUf1AFT1QZnWCO+aPqiU+90oNsEynFksCGp7DNT1DFLf00d9Tw/12l4auvvokhO6ARp7oagOzl/p5O39WcQ9dZxViTvxitvBgqhPmB/zGQvjdiowX5y4m6XrdrNs/W68N+zFZ+ONUL8R6CK5HMd/+xeEPHGa8KfPDMvQNTT3dqLt1yoZun5gkMHBoWsZullyMbvp/osoN/61EaCPZOa/gX3g/wh0+Yy9vZCZUUJKchEpkqFfLCXtUjnZKXUUXWknI1nNwX2nePLxtzlyOInvzpVyMaWMpMxSxXr3clY9ORmN5Jgkl6uXqylTNaMqrFaAnpdTTFG+Go2qivqaFjpae+jtGlCybjOozUCXjP3ngC6Si7xWAfqwI1s7aFDK6Zr7xYOkg+c+OsXCkGcY6xyGxZQQ7pm1mXEuidhOj2KMYzhjHAKxuN+L0fctYNbaDbzwyef8VNhAjXi7mwZVtMqCZEkjL35yEk+/TdwzL4TxswMYMzfQqJPPiGKCRzwTlJFxMjZO7sss0DjGigbvEcef58bjsHwjCS/u4kRKGZoeGQp9fQhGRlENOw6dYm38Y4xxW83/98AybnFYjaVHEKNcA7lDvN49QhntFsIdTgFYuwbhsvpRtr93hq+ymihph2oBeZc0CekRkDfJYmofVHdDVZdJFx8O9N5B6nR91Ot6lJry2o5+5QpF7ImvlPWx53QB0Y8dYM36XXjF7sIr/iDLNxxhUdxuFsbvZGH8LhPQd7EkcRfL1u9RYL588358Nu3Ha/0+FsfvYknCHrw3HGDFliOs3HKMNQ+fJMAE9IinzxD1zFm2vPGNkqE39YjlcjcD/f0M9Q8yMDBI39AQ0nymAF0GF5li2Nf+z9/9DRzMv8WMc+Qz/XNXHz8L9BuOBilJ00F2poq0FMnQi0n+SUXaTxoyf6ok48dyks8X8fFfDzFj5mocnNcSs/4ddh1N4WJuPVkFraSn15JxqYqslCqupFdxOb2cgpxKCnLLyM8pJT+3RInCq6WUFGgoK62mrqpJkWF02iEGdEbpRRGSJe02VcUoYDfLMOataBTyGoMBA3oGGVRK6mRBscPU8PJVWhWbXz6M49It3HHvKmynBmPvEIHdNGmFD2eiRzR3zYzE2mE142f6szDmCd48+A3q5gFlqo8sXArc6/oMXCyuYNs7O5gVsJ47PdZi5yDGXoHc7R7NXa6RTHAJ5273KCbKyLhpQYz+y0rucgrDf92bnE4ppbBRh/igC8ylnrzWAPsvqAja/gF3zwvjj1O8GeUezOiZkYyaEcZtroHc6uTHaPcg/iRe55OXc9/iBNa/coS0cihoAE07VHWj6OKSfUtIaWStaeFTKlUkZOFTXlfdYxzA0TAoWrlBWXg1f0ZNE3xxQc3jb37Bqrh3Wb1uF8sTD+CdcJRl8Z+zNPEYixMPsChxtxKLE3ezOGEn82M+Yfmm/fg+egz/x06waushZoV+wLiZW5k4dzuzwj4k8PHTrH7oBL7bviBw+ylCn/yKiKfPEvXM1zz2/k+cu1xNo7aTjp4u+vv6GdAN0NcnE6sG0A0MKkC/dsDfsNP+Cw9GgD6Sof8G9oG/D3TTB+zXwZUsFekpxaQmFZN8sYTUC6Vk/lhGxg8aUi+U8OnHx3BxX8Wd9y7lXscgFvht56E3DvH5+RIu57SRnVxDZlIF2SkVXE4rI/9KJfk5AnSRXYxAL8gtoTBPRXG+GlVRORXqGprr2+ls7UHXPagsfEqGLsLyzVm6+fF156YhDMh0JB1DDDKAQTHDEhdGaUm/Uqnj8PfFbHnpEFMXxmM71ReLB2WgRgh2TpFYOYUrdeu3OqxhlPsa7lscroyd23H4B3LLmpSBFDIWrb6vj0xNBce+S+fxV/czd+UmJjr6Mn7aWsaZY+paxk5dg8viDcQ8/BmfHrpMWn6H4lUjI+pa9aBqNXAytYy4lw/gEvwM9gsSuXVmNLfOjOGWGdGMnhPPaM9obnUJ5HeTl/PHyd48sCyB8Cc/5cMvs7hY3K1UotSaFjaljFNZ5FR08SHqtOYwKDq4/Lno5gJzaXCS7N1cZSOVNBVaPT9cqeXDw+lsfvEYfhs+xif2Y5Yn7Fdg7pXwOUvjv2JJwkkWrzvIonW7EZgvSdjNkkSRW/aw+qHD+Gzci2fYe0zyfpZ75m/nlgciGOOxhZkhfyXgsdOsefhz/B49RdBjp436+TNfE/n01zz7aRoX8upp1Mq0qy50vSLF9dPb24dWJ976A9eBLvwenqnLfvvP3n4DB/O1k9vIZ/m3PTn940DPLiUjtZi0JJFcVArQM35Uk3leQ2aShr27T+E5N5g7H1iB9b2rGOcYgNOqLcQ+9jEffvod578uJCu5iitpVb8I9PxcFQWmMINdoF5X3URLQztdCtgHGOozAv1vwC7ZuWTvEsrcyUEMhgH0DGHEO4r8Itm1VmDcD6nqet46+CVBDz/PlCWRWExdza0yHGJqEH+cHsIfnQL5ncta/uSwUsnYFwRu59HXD3D8fC6ljf3IGq62X0o7+7iaW87Bo+dI3PYmM5fHcZejN+OnLsFpUTihm1/j9R1n+Ta9WpnhKfCU8siyDj1fJhfy5AeS8T6H/YxA7nAJ4I9O/vzRJYTbZ0Zyq3sYt7uLvBKEtXsA9ywIxyfxeV7c+RXfZFWhajItaHZBY7exRrxJ7ndBQ7eeBu0ADT39NOj6aNAN0Ninp7EPZapS/QDKFYJcHcjCZ7WUTKrr2ffdFR5+5ysCHj2IV8KnLIn9FO+EvfgkHMIn/ig+8SfwjvucZfFHWZp4wAhzAbpILet2s2rrQebHfMz01S9x17yHsXZJxNp5HX+4L5Txng8zO/xj/LefZu0jX+K3/TTBT5whXLLzZ78h4qkzvLY/j5TiNpp7u+ns0dLbo6NP209PTx/duj56+voVqUWBmMBbgD6s6sUswwzfXnvtz8F+BIL/thD8LZ0I/2Gg51xWk5FaQlqyLIqWkvZTKennS8m6oOFKWgWHD37HgqUx3DXFlzHTwrB1DMHSJYi73YNZtmILb754kNPH00j9SUVeVtXPZugC9PycYVC/qqKkULT1CqrKaqivaqS1sZ3erj6G+g03ZummrP060E0rugJ2owaj/F+YL5m1SDAC9U701Bu6+fZqBts/3MWc8McYNyea/5zkz39MDeM/XcL5vWckt3tG8cepfoya4s/dntF4RbzMm598R05uCw2VPfSL0NzTx1DPIGlXSnj544P4x29jVeRmnnp7B+eyVahbBxWjMWkgkkXJ1NJWPvn8Ev5bXuGeOYHcNnkp//nAUmWO6B3uwfze0Z/fTVvDHx3WcruTL3cviGJexJNsfm0PXyYXoWrsU1rtO/uhpRuaO43NPm3dIJU5Ui/e3D1Ak1ZHU28PTf1amgd7aB7qo9kwqEg8AvImkXoGQAy9Pr9YwKs7ThP55G4Wr9/JjOjdzIrdy4KEQyxJOIJ3/BFWxB81RtwRfOIE+PtYKpl5gmjnO1mcsIOFcZ/woPfT2Lgncvs0mfoUjaVDPLc+GMk9859gfvQO/B87zdptp/B/7AwhT54l4tlviH7uW8KeOM0HJ0vJLtfS2tdDl66HXm0ffd1GoHf16oxAHwZmAbd81cp53Az2m7YjQP/n9NjfEuj+XT7LTUC/6VrVlLX090FejobMtBLSU0pISxKgq8j4UUX2BTV5GVWcPHqeZSvWMWHKWuwdw7B1CWW0sz8Wk1dy5+TVOLmGEBn9Mp/tPEdaejXZl6vIyakgL6+MvDwjyIuuqCm+rKHkihpVjobSPA2lV9WoZcG0QE15cTk1ZTW0NbbR09XLYN/QNahfA7mSnZt2XFk1Mx/hJqjLR+pjkG69jg59D+JK3i2WAhioHTLwTW4F8S/swN7NDxtlyLQft4ntrPNaLFxCsXSK4PYH/PjTxOXY3reSJaseYefu8xTmN6FtG0Im6yjWtVrIUtWQoapSIC7Zr1jmykLlldohDp0vYs36l7h3TjDW05dj7+bPPQtisXD2V4Y923pGMco1lN896M3t07y5f1EYEU++x4EfclB3GGWatgHjdCa5QmjvhvYuqV+HTi10yGOtgN4EdF0PTYNamvU6mhlU3ou8n0aRV2TRu6KXt/dfIPzhD/GOeAXvuI9YvvkYc+MOMy/uCIsTj+O17iQ+CcdZHneMFXHHWB4nmfpBJXNflrCTJfFS6fIJM0Pf4e75D2PrlsAoh0jumBbO6OmRWDpGM2paBA8sfZrF8XuMQH/0NP6PnyXo6a8Je/5bIl/4huAnTvLpGQ25Nb209fcqc2h7tDp03X1otWL0pkOr679xUdTkCaT4At0E8uGZ+y9CfSRDH8nQfwP7wDCgD/80w1MfGByAyvIWrmSpSUsW2UVF+kUVWRfVZP+kJjetnM8Pn8NrZSJW9y3DyiEIa5cgLF39sXUJYsz0YMZODuQex2DcFyUSsf51jp7OJDW7nJyCKnKulpKbXULplQrUGeWoM8qouFxBbX4NlbllVOSqKbtaSllBKeXFamrKqmioqae9uY3e7l704lHwczfleluObrO/gJ4hwxADhiH6DIPoGKTH7BHDkNFedwBKm7QcO5dBwhNv4LzUnzFTZ2IXCrKeAAAgAElEQVQ1eSF3iA+7Qzg2jpGMc4nhbo84rB9Yy+Q58QRveI8dx7OUGZmSMStzME3qj1wJSCZc3AF7vy8kbPtuHliwDmsHP8a4BTNhZgQTZkYxxiMCKxm15xzC7dMCuGWyL2PdA1m74Tn2fZ2Eun1QkUXqdcba8PZBY1lmd59pWHcPaLXG6O6BLh3Ie2kbGKJNP0g7g0onbM3gAA2mBdiMqm4+PJlG+LZP8V//CatiP2FF1A58YvbhFXeEJXHHWBJ7jGUisSScZHnC53jHHscr5ihesUfxFglm/T681u1gdvi7POD1JNYusVg6RWPhGIWFQyQWCszDsXGN4LapAUzyfpJl6/YpUsvaR0/j+8RZ/J/9hsCXviP0pbMEPXmE3d+XUtDQS4tOS3N7G9ruXnRdJqCLjt7bT6+uH52unz7dAP39g4j3jwBdiZ+D+nCd/eb9ZfjuP3J/BO6/0n3gJqAr5SGm9Na0x4vd7QBUV7ZyJVutLIyK7JJ+ScWVpDKyL6jISyvjq+M/siZgC5b3L8FCaasPwMrVFxvXECynh2PrGMcYJ5mOE8K9HsEsC3qEZ97YwxffpZN1VUNeThmFqRpKLmpQJanRpGqoyCyj+ko5VVfUVOSWUpavoqxARXmJmipNObWVVTTW1dPe2saQtLTKl2C+KV+ICeZK2iZQF3OnIYb0egb1egYMetOyqSyYGtBJGAz0DOlpaO8kt1jF3iPHidmwiftcF3HLPfMZPS0IW6cIxUt8jEsMFtPCsHKMYuLszbj6vkzko3s4/nUB1Q2Ga2WOtf3weVo+Mc9/hIff40ycvQVrp1gsHSOwcYnE3i2Kse7R2Mus00lrue2B1UycHYd34ru8tu88F/IqUDe1Kd7wcnJoGzTGNaD3GweK6HTQ22PsG5DegW4dyBBusR+WK4RW9Iq8UgdcadRx6KcCnvzwFKHbdrAi9kOWR+9kefR+fKKO4BN1FJ/oY3jHmCL2OD5xJ1ghQI87gVecEfDeiYeZH/khU5Y/xZ1zN2Ev1gczEhjtEIGFQwSWEtMjsHIMxdYthNumrmGSz+PXgb79K3yf/Brf577F75XvCXnlDEFPH2D3uSIKGqUHoJumtla6u6SUtY/u7j46RUfv6aOntw+duHf29ivVL4OKn74J6j8HdPNzw/eTG/aXEUni30Wa+K1+zn8J6OkppWQml5KXVknWhRIF6N99eYmwqCewEg14GNDlILZzicbOKQ57xwjsHQIZO30Nd7usZqZ3NHGPvMoHe7/g+x9zKc5toCSjloKUcgpSNKgyy1Bnl6G5oqZMgH5VhaZAhaZIRZmqlPJSDRVl5dRWVdPR1kZfrw5pPjEM6TEoJuvmdO36Vp7XD+mNUDeYoG4wKAuUoq0PD1k81TQ08vXFS7z4110sCNrIvXNCmODqz3jnAKVm3XZaCNbTwrGaGonV1BjudI3FK/QFXvroK05eKuFUhopXDnytlD6OnxPMHdMDuH1qpDK709o5DmvHaKymh2IxJQBLGdbhuBZP/0fY8sYhDl8s4WrTgFKF0iwQNxi9XNr0KL7jZqB39RsXZpXB3NIEpQNtnzE7b9INXDMea0CPqlvPj0VdvHfsKonPnWRF3IcsDn3PBPO9+ETvxzv6kBI+MYfxlog9gpcSR/GKOcKKRKP0sjDyAO5+7/KXhY8qnbejHcOxdInEziMOC0cBejiWEtPDsXIUW4LrQPdavx+/x77C97Gz+D71LX7Pf4f/q+cIefUsQc8cZM+54huB3tlDT6cJ6NpfAPqADEgxKH4v5izdrKublbdfbEL6lWZkv1UwjXyufy25+OeBnlpCRqqarBQN+ZnVZF4o5mqahgtn00jc+BLWDy4zAt0tEGs3P+zcQhjnHoedYwy2DmGMcRIgGgcx205ayD2uPiz0T+SpV3dy7lwhuRl15GfXcTWrmvysCgqzNBRfLkWVU4o6V4U6vwR1QQmaYhWaklI0AnaNhprKKlqbmunp6qZfJ4um0jp6HeTm+wJ0Af7wLH3AYFAGYkvViRnosmgqtdjS7i4+7FVdvez/+kfin3qd+QEyIzSQsdNWYjNpLbaTQ7CbEo3t5AQsH4xg1IO+/GVeLF7rXmflQ2/zl6Wx/D93z+MPU1dzm1MYtzvFMdopAVuX9dwxKZxRDxiHakxdlEDQ1jf44Ph50spbqFeyalmw1NNsQJFLxJlRyhyl/FKA3jFgkl0GDPQMQE+/QRm63T1ooGNQT0NfvyL3VPTryKiv5niqiqc/TiNw81csDt3DPP/PWBS8C5+og/hEH8Q7+gDeMfuV8Ik9gLcSB/GKPYR33CF8Eo4oMT9sFw4r3ubOWdu4dZJIREGMcghRfHJGi52CY/h1oDuYgR58LUMXoPs/fgbfJ77G75nv8X/xHAGv/UDoa1/fAPRmXTeNba10dfQoXcRdXTo6unV0aXX0SHZull36BhgQ8y4B+nCoD98FRjL0ESnlN37i/hmgm2UX07WoDKEYgNrqNsV/JT21mIzUUrJS1ORnCdCLyEtTc+nbTB7a9hY2w4HuKguLwYpEIa3141xjGCuDIhwDsZm2Gtvpy7nj/vnc8hdP7nZeTljiS+w/kkRaZi25V5vIyqwgN7ucq+L7crmU4isqSnJLKMkvprSomNLiEkpLVKhLVKiKS6gsL6epvoHO9g50Wi36wQEMYu4yTHKR8UgCdL1JdpEZpgJ0seI1A11gLtE+aPRyEciLZCFyh4xb+/Dwl6yN28b9HqsZO3kF9pN8GTcljLscErnLbR3jZ8Yj3iq/e2A5v5+0glsdfLnN0Z/RriFYuIRj5RrNWI8E7vRYxy33rGGsQzDLwl/grX0/UNSsp04afBTdXU/DkNEzXTmxiNwiYDcBXRZF2wcMir2BVq+nR99Pj6GPbv0gYlMgr5OmpaK2QU5naXhx71lCt+/FK/ogXpGnWRxygsXBx/COPI531FG8og6yLGo/XjF78Y7dh0/cPrxN4RW3D5+EA/ht/RzPwA+5d8HT2LtuUewTbnkw0Aj06XIFEmS6H4qFQxiWplAydNdg7pi2linLn1TcF2Ux1P+p7wh49gcCXz5P0Bs/EvHGN4Q8d4h9P5YoGXpTTxcNLa10tmnpau2lo72H1g4t7Z1aRUMX/VyajSTMOvoI0P+17G4kK/71/95+Aeg3Ql142NHWR35eOempRWSkqMhKKVVcFCVDF6AnfZfF9ic/wHayNxZOAdi4BWLpspZR09Zi4xCG3fQo7BwilCzdxjEEa8dArMQl0GkNFk6rsHFcgc3kpTgviiRx+3sc+CKN3KJWilRt5F+tIT+ngsLLaq5mFVKYV0Th1XwlivILKC4opKSoSAG8WlVKWalagXtHWyu92m4MckYy36SDVD8M6ArYjUDvvwnqIrmYa9alCqaLIdoN/VR3d5NeXMEnh79h/ur13D19DeMn+XL39HAmOEcp9ry3uYQw2i0CC/dIRruGM9o5lNFOwVg5BWHjFIDtdD+sHliN69KtPPHmF/yU20rjADQNGZ0NWxmgFS2tGL3a5YQina7tEkMg9gP12n6ae2X4h/E2QL/SFysLvVLnLln9xeJW3jiQTPhj+/GKleagIyyLPMOyiB9YFv4tXuFn8Yo8xbLI48wN3MXswE9YGL6D5Yn7FS9zH2nTj9/DsthdzAp+nwkzH2KM2ybl6sLaOQErpxhFK7dwCGW0o0QIox1CGCUy0jCgW4pl8bS12LmG4BnyBn6PfkHAE98Q+PQPBD1/geBXLhD61k/EvHOOdW9/xVc5TeQ3aKlqbVaA3tGqpbOll/Y2rTL5qr3DCHTzoqgZ7D+XoV+rchnJ0Ecy9H/PDF2ALmG8CdA7O/qNQE8pVBZGM1NKyUktI+sn0dA1pPxwmedf3sWYaSuwvAHoa7BxCMVuugwjjsDGQRbIwrFwCmWUcwijXIIVX5LR4l7ovIYJM/yYtCCUxUEPsf3lnXxzoYDc/HqKChu4ml1GZkoe+bmF5OddpeDqVSPUCwooKSxCNSxr16hU1FRV0tRQR2d7K309WvRSU6ho6zLKTBZGZRqObI12rEagX9fTzZm6Eex6euijBx1dDNDc14+6oZPvUop49s2DzPPZwIQHVmA/zRcrtxBucQ3hFqdQbnOMYLST6Mkh2LuEYuuwmjvdVuG5egNbX9jHie+KyS3rpUEWMxV5R6SVftrQ0kY77UhppR7pKDWHLHLKwmiTboiWPr1y5SD19WJ2oKOXhsFuMsqr2PFVChteOoL/1n0sidzFvOADLAo7xZLwcywJ/4llEefxivgOr8ivWBJxgoXh+1kavZ9VGw4T8MgJZWScd8JO5oa+h8Py57lr1lZsnOOxViIWa+dorJyilMVdC0eRWUKxcAxRtqMdbgL69CBGK+6UocwOe4uA7acJfPJbgp75keAXLhLy6kXC3rpI3Ls/sOHdM5zNa1aAXtnSRH1zK+0tWjqae2lr0dLa1kV7R7exyuUm2UX80iWuqW1miA/fjiyKjoD9Nwr2v5Oh/y3QC65Khm4EumTol8UH/aJK0dDTf8zlrXePMMFxNZbOgdi4BSlVLqOnS4YeYoJ5JNaOkVg6RSozOm+XMja3CG5xD+c29xBGzwjCaoYfdu5rmOCxhukLQ4je8gof7jjFDz/mkZtdwZXMYvJzi34e6GYJRlWKplS0dTVVFWXUVVXSUl9Hd1sbg1IKIrKLwVjCOBzoRi1dgH4d6iK3GMEulTDGUXi9CNyNAO4egvyyZvYeO8eGbW8wa1Wi8v7vcPXlDscALB3DsHcOx/LB1dzl5IvnijgSHnuZz459TUZRLdVtelp6jVq40uhkEHiLzNJHh8Dc0Een8twwoJtkF5FU2k0hkJe/X9baz5m0Ul7e+TVhj37Gooi3WBqzg8XRe5kTso+ZAftZLACP+pqlUWdYpmTnJ1kqkkvsEVauP4rvlqOs3XqYJXGf4O7/Kvcv3s4Y90QsHaOwdhaQS8Rg7RyFlZN8n+EmmF8HugJ3B5lragyr6UFYiAWCmxHo/o+fJvDp7wl87gJBL14i5LVLhL99idhrQJcMvRsBel1zqwLydhPQW1q7aGsfBvRhlS7XQG7WzoeD3Hx/BOgjQB8Bej8FV2XMXJGSoStAT1aTfckI9Myf8vjg4y+4y8UXK5cgbNyDsHb1w8LB9zrQHSOxdorCwjmaO1yjudUthj+5x/J7j1j+4BHJH8Rwyt0Xy5n+2HqswXLKIsZPW8yS1Yk8/fwnfH7yEhlphVz9O0AXPV0WSgXoZWqBeimVajW1Gg1N1dVoTVA36AeNlgAGc4YusossjurpV6pejFAXXd0YZtCbyhtNz5tPe716yCvR8MbOw/gkPsGUVYmMmxGCnUMIf3aPwGFuDKtDH+f1v+4j+XI2Lb3dim1AR5+Ojr5eugf70eoH0RoG6TZFl0G08CG6DAbFwvZahm6qdhFZRUKGZpe3GkjL7+HQ6XIeeeUsq+I/YWHYB8wL/Yhl8QdYlnCEuZEH8AjcxeKYE0osjTnOsuhjLIuWKpajrFx3nJXrD+MVv5u5Ye/hsPJZJs7dpIBbJBQpsxSIW7uYQoDuHIGlsghqhrlk6OYYDvRALKcZgT4r7C38nviKwGfPEfj8TwS+mETI60lGoL9zjg3vfsXZvBuB3trSQ3uzjtYWLX8P6OYM3bxVAH9zB+nNB7NciN783Mjjkd/Jr3Af+IczdBkXV5gvPudGoGemqLgsQL8odegaMi9e5cNPvmSiq0zPkQw9UMnQLRx9sXYMUaQWyc7lEt1CdGbXaG53M0NdwB7Bfzr58wfntfzJcRWjnFYz1t2PsY4rsZ+0hPtcVuEb/jg7D33PhdQCMnJKyMlXc7WglIICsQgoQV1YTFlxMZXFRVQVF1GjKqautIS6UpUxNGqaa6vpEglG18OQfoAhcWQUqBsMxsBYymjO1gXuN4YR+PLcMGXerE7R1DtATnULz358hPl+G7jf3ZfZXnG8/PZhpZGqqV2HbmgA3VC/YhhmlEqM9jO9Q3qMYaB3yBi6Ib1iF6sbGqRHb6Bbb8zUxUBLYC5t+yWd8F1OM1te/BLfhN0si/iEpdE78Irby4LIXSyK3c8Sad1PPMKShMNKLI47yJLY/cq8T6+4/cqC5/J1B1gc9Slua1/hz/MfMgLcJRIbVwG4MRMXgMt9JZwjsZKrj18EuhHslg4hWDkEYiVmZW6hmIEe8Ow5Al64SODLyYS+kawAPe6t79n6zld8n9tEcX0vVU3t1DV10trSS1tzrwnonbS1d9Frysyv1aLrBpBadHOY9fRrWbs5Qx++/RUetCMnn5ET8C/tA/8Q0GVRaaAPSopqyEwrVtr/hwM9R+SX5EIOHbvIpLkRyrxOCydfI9Cd/LB2DsVacTCMxNI5EguXSCxcoxjtZoxRblGMcovgDtcQ7nANZrRrMJYy3FkqZFwCsXP2Z4yzH3e6BeKwJJa4x9/n4NkMMgrqyC9tIi+/jOJ86SQtpqqggNr8PBoKcmkqyKOlKJ/mkkIaS4uoUxdTU1ZKbWU5DfW1tLW30KPTKt2jclybb3JfzLwUyCsau2TxJs3dMKS8Xk4EEnrFpFfUa/kPBf4dOrHZHSAjV8Xpb5O4mJJLa3s/Mp9VJkANGQzIkGMJmY0poQy8HkSZVDQwgGIhIA1dir+7fAFD/QwODaHTG6UegbkMr/imoJVn9p1n9cOfsizhM5bE7GJRtMRuFsXsYWHsXhbGGWNB/B4WJexlxeYjLI7fzcKYT1kavwOf9btZEPkBbr4v8+CSx7jLcwN2LjFYSl25U9gNIQC/OYyvEVuEXw5rxyCsp/ky3j2M2eFv4/fkGQKe/4GAFy8S/lYWke+kE/H2JRLf+I6n3v9GcaOsbDRQ29xHbYOWFoF5s5aWli6aW9tpbetUGot6e/oUB0YF6rp+pdJFql0GzTXp5jLG4aWMNwFdGopNzhAjWan8LkbiV/s7+MeALtDpB1VxLVnpRj+XjGRjhn75UilXkksUoJ88lc7UBdGMmu7LKIe1CtAtnf2xcg41XprL5bmESwRWrjdHOJauYdfDRZpUwozhGoaVhFsYdu6h3Ds/hsXhT/HUO0f58nweV/JrKMovQ51XREVuHrVXsmi4kkVLzmXarubSUnSVRlUB9eoiajQlVJWVUlWhobqmkobGOjq1HfT29zJoEIxfvxkMxsVT6S41xiB6kWoM4uIoOvz1MFk8KgQeGuhXSib7erVouzrQ9XSD3lQ+qZcqm+tGUjLgWpwLBvTQP2jsylWGdfQZJzAplwHKi8Tw3bifiVaeXa7jo1O5bHznDCse38+89Z8xN24X82L3MT9mHwuU2MsCydLj9rAgbrdx3mfCDrw27sFn0268NnzG4rgPmBX6Gg8ue4SJc9Zh5xqFlVKdInAWmA+HdNjfwNzK+ebXDH/99fsCdJtpvkycGcWCmA8IfPYb/J8/j//Llwh/J5uodzOIeOsSG974llc/Os/lvA4qaw1U1w9QW99LU1MvzU3dNDd30NTSRktbO9oeHeLx0iPbHp0CdoG5hNSkC9SHh2Tsw7P14c1GI0AfAflv4UT2DwFdPqhki6UltWRlmICeVEJ2cilXktRcNgH99NeXcVgUZwT69NVYu/hi7RKAtUso1sMv1V0jsHGLwPqGCFceW7kZQW8pA5xdjZA3w1yAbuMWgr1rIGOd1+LiFUfk1tf4YPcpktMKKbyqQX1VRXlOPpU5V6nJuUp9XgH1hUXUlZRQW6qiWjT1slIqykopL1dTWVVGfVMtrR0tdInvdr+OQWUwqTFNkcXTG2CuH0T092v+MGafGCWVNlUHiVdMr9ZULqlnUAzlzSRRXq9HOVkMy9KVChuBuh76hkBmosp2UP4p6ZHqk2HdUFLWx/cpdbz48QWCHtnH0sTPmJ+4h/mJ+5gbt5e5sfuuQX2+uCSagR6/iwXxO1iUuIPlW/axfPMeBayOa0Qn34ityChSqTI9BItpIcpippVTGDeEcxjWLuE3hJKt3/w65bEMqr4eNo5BSqnm/fMS8Nqwg9CXJDv/kYBXkgl/N5vo9zKJejuJTW9+z/t7U7hytRNNZT8V1b3U1PXQ2CRQ76LJDPTWdrQC8+HRo7uWoQ/0DylQF7Cb4wag37RoOgL0EaD/WwFdGKdW1ZKdKZ2iKjKSSshKMgI9O6mY7JRCzn6Xi9OSeEZP82XUNCPQxbHQxjUUa5cIbFxFj43Exi0SW/dIbN3ClSn1tu5GwNu4R2JtDrdIrFylCceUnZu2Nm6hTPCU8sfVjH5gMRMcvVnku57X3j/A2W/TuJxVQml+GVVFFZTnlVKRp6KyoJSqIjVVKg1VajWVGrUJ6KWUV6qprCmntqGaxuZ6RYbR9nQxONiviCmSFksmLpm5gNzYqGTOts1UuG7+Zb52l/r3gT4dQwN99HR3Xs/QTZM4DAZjpi9O7bI8axzFoVcqaq7XvoNWukE7oaoSfkpq4uPdGWx8QhqC3mN24F+ZE7aTuTGHmBd7iLmxBxSgm6E+72+A/hkLxdt83WfMiXyHqSufZrxnIqOmBjNqqtSJB2E5XfTuUCPIf0Zeke/x5rhZgpGsfTjM5b6NQzB20/2ZumQzax7eT+TrFwl86QIBr6UQ/u5lYt7PIvrtJLa8dY4dx66Qk9+JqqwHdUUX1XVaGpsE6l00NnfQ2NxKiwL0XrTa6yFZ+rUMfQTov1rZ4LcA1v+pz/B3MvRh4oNkkoOgKa3jclYpmTIAOqmEzEsqspNKyUoqJiulgDPf5uC8OB6Lab6Mnr4GGxejBa0R6Ea3PXHcs3WLwM5dtuEIzM1AF8jbeEQZQ8CuZOs3Al0GIYsnyPgZYYx19cdmmg82kxYx0XEZsVtfZu+Rc2RerqCyshN1SQMlVytR5VegKaqkXFVBWWkZ5Wo15UqGrqKispTK6jKqayqoqa2krq6G5uZGtNouBgb6FJgbtQ4TtBXp5BeALlqKQXxkBhWQ6+WkMDSg1L9fOxFcA7pM3JECyUFFixegC8jFbkAWPKXFXxlJp4WcEj2HjqvZ/uwZfCM/Yd6at5mx6l0WhO1ldug+ZoTsZ07UIebFCdj3m6C+FwH6wvj9LEzYy4L4XcyL+wTPiPeYvOJp7py7GRu3GEUKE4MwS8dhFSmSWUuW/U8A3do5nGshf9cxTMn4JeuXsHUIUqZCOXk/TODjR4l9O5mAl34k4NVkwt4xZujRbyWx9e1z7D9VQG5BJ8XqLkrK2qms6aK+UUtDYyeNTe00NrXS3NJGd3fPDSFwHwH6SKb9PwXT/w3/7i8AfRjMRVIWW/EhaKzvoii/msw0NelJKgXoaRcKSb+Yz+X0Is5fKmaB7zbsnYOxdw1igqdcogcojovWLmHYuIYrUosZ6HYekdh7RDFmRhT2M6KwmxGFrTk8IrFRMnf5O8awdgtTJtvbmKQXW9cgbF38sXNai73DSsZM88ZxYTjx297l82/zKFB3k1fYTFFJMxUV7VRVtVJWVo1Go0GjUVFeXkxlhYqqSg1VVeVUV1UoUVtdSWNDHa0tTXR3ddDf12uUWcyyyS9l6iKniN6uWA6I7YDResC8Nero5vl5/eiHpMJd6lyMN6l5F5iLR7n4uBR0wdFLlYRt3ktA7H5WRezFK3Q3i4P3sCB4P/NCDzIn9BCzwg8zJ+ow82PFu/wgc2P2MTtyN3Oid7Ni6wlWPXySpev34hL4BnfOfwgb9wSsXWNN5YdSsRJhgrdA3BgKnH8mG785O1ceC8yd/jZsnMIxh61DMDaT1+C6fBtBjx8j+s1L+D5/Dv+bgP7wu+f5/Fw5V4u6KK3oRVPZRUV1J3X1XUagN3bQ2NRGc3Mb7e1digujGewCdOkc7e8z6uiKlj4sUze7MZqrXxQJZtgCqSK7mFSz/w0H58h7GDk5/bP7wM8A3agdmyGjbMVHWg9Njd0UF8jCqMYI9CQVqT8WkPrTVbLTi7iQrMI79GnGuYZi5xzIuBminZuA7ipADzPJLOFKhm7vEanAXIA+ZmYU9jOjsfc0ht3MaAXwAn1zFi8nAgXy7hFYu4vmHqaE6Oq2UhXj5MdY10AekEXTkKd4/v3TnP6xlMtF7ZSUdVOiaUZdXoemvBxNmYryskIqy0uMC6SVFdRUVlAt26oKBOr1tTU0NdTT1tKsLG6KfHJ9cXPQeNlyDfJm+UVkGTPIjRLNtezc/FpFRxeQS+GjTDs1LqkK0Ov0UNQDpwsaeeHYJUKfPsySyB0sCT3A4tBDLAo9zILQw8wPPcrc0CPMDj3M7LDDzIkUoB9hYYIMozjCknWHWbb+CCsfOsncmJ1MWfUyY2Zv4naxs3WJwcol2gR0o4TyS9n4NZnMJJfdDHQbgf4wcJsBbuMUhjGMUBegW09azczVjxPy5Ami30wyZuhmyeW9LGLeSuIRAfoPAvROSst7KK3opKyynZraDuobOmhs7KCpsY3mpjZaWzvo7Oi+BnXxTBfZRfFHHw51k44+AvQRQP6zgPy1vf4fA7rsB3poFqAX1pKdXkZGcimZMrnoQiGpF6+SnVHETymlrI19mQlu4VhP98POJUDxa7F1FeCKVBKGnVu4EvbuMiw4krEzIhk7M4qxM6MZOyuGsbNilRgzK8YIeMncPcSSNdIo00jW7hGJlXuEEpbukViKNOMegZwE5M/ucAjg9gdXMW3hOmIe+Yi/7rvA98kacoobKdYI0CspK5dF0XwqyouoqlBTU1muAN0MdSPYK6mtrqK+tprmxnp6ujoZkgVOs+HXtcoVkWNMmbeSvf8c0M3AN28lNTReCUlSKM1L4uNyvqiND7/OZ+MHX+O9fTezYz9mbtQe5kccMkb4IeaFH2Ju+CHmhB1kdtgBZocfYE7UARbEHWJhwiEWKXGQBXH7cAv6kHuXPofdzM2Mco5hlLTqu0RjpTQHGbNzI6TNi53XNXIjzKOwdZOIVrbm52xcorgWzhHYOEdg6xyphI2zQDzUFMaBILiu/uwAACAASURBVHYOodhOXsv8wOcIf+ZzYt9OIfT1ZILeSCPy/RziP7hM3DspPPr+BU5+ryG3sEM5CavK2lCXt1BZ3UpdfTuNje0K0JuuZemddHVpr0kvSpZu8ke/Jr+YgS5VL6Y6dXOW/jeVLiMZ+r+X9m7+vodvzTntr3D7DwNdzlTNjV2UCNAzBOhqspLVpF0oIu1iPtkZxVxM0xC68W3uco/AYvJqrB19sXL0xc41GDvJ2t3CsHc3xhiPcMbOiGDcjEjGz4xivGc042fHMW6OMcbOjmOMZwxjJGsXScZDIhJbkWI8orDyiMLCPZpR7tHc4WZsUrLwTGDUjHh+7xDO/3vPSv5jwlImOAazJOhJHnvtAEe+SiXtiori0jIF6BUVAvQCqitKqan4W6AL1M0Ze31NNa1NjfQK1PuGQ90EaAXoUlo4XGoZnqGbQW7aKkXoxoypuxc0dYN8n93AszsusPrRvXjGfYRr/E5mrT/EzJiDeEYdZnbUIeZEShxkdsR+ZofvY1b4XmZH7GVu1D4WJxxmQdx+ZkXsxC3oI6atfouxs7Zj4byBOxzjsHCNwXZGPJYuUT8DdCPIZY3jGrRdo7BxFZBHY+cWg61bjPJYnrORn+Uai61rDDbOUUaYu0Rh5yL3I7B1CjGGYwS2jjHYO4RjP9WfZRGvEvX8KeLfTSXqnQxC384k5q95JH6YQ+J76Wz/4CLHv1WTU9BOsaaLEk0rKk0T5ZXN1NS20tDQZgR6YytNTa20trYbs/RherrUppunGCmyy7BKF3M54/8V0M0H/6/wgP+1ZZz/be/X/B3+3PZX/L3eBHTzJ7lBcDE+MEBLUzclRXVGoKeoyRSg/1RE6qV8sjOLuJRRSuyj7zLRI5DRk3ywdliLtaNk6qKph2LvFsYYUwjIzTC/c1Y0d86O5c45cUyYE6/EeAG7ZOsmqI+ZEa3IM3YeUdjOiMbaIxor92gspClJJv24RHKbcyS3OEXwR4cw/jQ1iFFTA7Ge4o/VgyuUDlaf8Mf56OB3nE8vJre0hpKqWjSV1VRXVlFXWUFdZSW1lRU/G+IH01BTTVtTA71dHQz19RqL88XJUSljlAxdOoFuhLq5hl0pf5QSSFmPkEYiaRAagGYtpBX08NdDmURs38fi2L8yN/ZTZsbsxHPdIRZtPcXMmCPMipIwQ12Avo/ZEXuYHbGb2ZE7mRu1k6XrDzA78mOmrX6ViQufwG7GZgXko53isXSNx8otVsnOpbFLBlFYKR2f1zNyydSHw9xWYK4APQY7t1glBOAKyF0E5nHYucZh6xyNjZNk51HYOUdj6yQLoQHYuQRh7xyJnWM8dtMjGDMtkJXx7xD70hkS3ksj7oNsIt7NJvajqyR+lMO6DzJ4/MOLHP+umCv5jRSp2yjWNFOiaUBT3kh1TTP19a00Npqg3tRKS3O7oqV3dcoCaa8SUs5onGIkWrqULepvCKU2XWk0uj5yVq5Ar82llftyKJi35sPC/JzMrR0+u1aOkOGvkfvm50w/Vy818NI9Zv6Z5u3Nf+9feTz8Zw2//6/8rP/Bv6PT6uhq76ZL1kY6utHKcFz5Pct7ks81/Hf+f3qf8npzDH+tPCc3uUAW1dP8muHb4a//ld0fBnT5lPLub74Zn5MdvrtzgDJ1E5czyslM1ShDLtIuFpGWlM/lrCJSs1U8+uqn3DvHF4tJS7B1EGMuf0ZNXq2AfLxo5gJ011AeXLyRu+fE8ed5Cdy3cD13z43nrjnx3GmO2fFMmBXHOE8j1BVJRsnWo7HziMbWPUoJKYG0lpp1pREpAgvncIwDFqQGWiwHgrCZHoCtgz/jXQP4i2cosU9+yqEfirhSo6esaYCq6kZaamppraujuaaG+ooKGqqqaKyuprGmhibR0mtraJYKmPpaWhvraPv/yXsPr6qytI3zH5hvzeruMpQ5lpXN5Jwx50jOGQEVs6VlLHMWBQFzzrnUUktFMioZTOQoKCqo6DPrec85gJTVXVXd803PzF1re/Fy7gn7cH773c8bdkUpaqvK8Zbx5swE+uivgyGOb5UkpPfMClWyThsa34tq/oaLVDBRqxqIPFcC/2WXMCowFvY+0bD2ioGV925YeO+Duc9BWPgcgYXnEVh6HoWV52FYeR5SLXTGmO/FEH+2WFh6bsfgCcvx9bA56GoRjHaG3mij74nPdN3RhsXQ9Ng85b2tngJ0gbqBmsavpvN30Nesb8Uip1WuwbyToQLwzgZ+aNk66fugPStp6niiI9cRHTAF//P1UPQyd8N3dmHoZRyGdn1d0G2QE5ymRyJg9WWRXGihe21Jg8+2B/DfloagrYlYvOs2riQW4n5OKbIeViDnUQXyHpXj4eMyFBZVNAOdkktFDaoqa1FDCAjQ61FXVy8LSb9+xbVGCfT3Te3tG4L9g7R3hKv24o+SjEvoqh8ysotJAfxdy6aCQFPYtF188p0JZG/fo7a6FkVPi1H4pAivOB2Tz3kA9VstYaL93PKYv/ez+vXGN5z1KcB7W0/DotU5/7f/n9fxHjhy6CgWL1yMebPnYenipVi3ep0C9fdAPVepqq1Dwys+a5/o7Zb9xkQ93vvXb/CBadja73iYFvf9HZM9tN/9q/f/9j5Uz68V0D/RUXLFiob+8sU7PH5Y+btAv5uajYUbduI727FSWEsDei9TT8xYfwER5/KwIOI6Bo8OR0ddR3TSc8IXFj74xjYIfSz98IWlH3pb+ivNwh89Naib+6Cbmbe0rqbeoLXe2dgLnY24Hqe7tI76rmDrIGUGnPG57qdb20EOsn9bzzUI33IVZ+4U4FFBLapKylFVXIbKolJUFpdIqygqEsBXFRWhijq6AL0IVWVsCthfPKtEfV0t3tW/BN7VKxa6YJtx5izPqyQL1b15LzHljGspqHqHY9efYEFkGiYv+AUWPodg6BILc68DsPQ6qLZDsPQ6BCvPI7DyOAprafyZn+2DjfdeDKMF7xcDQ4e16GMXjm4WgTJ7aWvgin/oOeEzPSe0kcaVhNwE7G11PaAAnYMgY/01+UUpuNUS6ArINaAT5hrI/dHZQGldDQPwhUUo2g/2QAe1fdZvIv7RfwS8l8RglP8W9DQKw9+/moouAxzgNH0n/FddEqeox/p4+Gy7Lxa6/7ZUAfqSmDu4eb8ED3ILkZlfiuyH5ch7TAu9VAV6Fcopt4hjtAbVVc9RU/MSL57TOleBXteAVy+51ug7vGl439TevlFhrhbQoZHC792NS8L2rTuxa2csIrZG4vCBo7iX8gBvWWfhUw86Qay6Td68bsTTR4WIjtwt39+xLRIH9x1BatI9eZiePHqK6MhohE2bjukhM7A3dh+qyqsUmMs+WgCn5bH+CEDUx7WR072Wluwf+e5/2TbvGhqxaf1mTBo/GTaWNhgzcgxmhs1EdUW1AJwDKAHMReFv37yNg/sOYtfOXYjaEYWtm7dhzaq1WL1yNTas3YDtWyPk8/179uP2zTsoKSxRSmiwv9R+Itjf1nM2/TtWeuvP/8v66/cG7T8O9A/Ay7q3CtATHyPp7iMk332E+FvMHM1ESnI24tNysHRrDPoPmYj2/e3x+QCuSjQZFg6LceROJeIKgJOJtfhpXwLsPX/CFxbe6G3uhW/tAvGVtT/6WPmjj2WAtC8s/dFLBXp3Al2FOoHelfILwx2N2DykEeydDNyaoE6w/6apkP9swBT5Xf8RM+E0Ywu27r2EOym5eFT4DCVlz1FSUoXy4nJUFBajurAQNYVP8azoKapKClFZqsFcAXpNZRmeV1egrqZKAXsD0/wZr6IkJtFAaKC80ggUVAJxD2oRczwNgYtPYIjvbpi474WBcwz0naJh7LYHFk1Q14BOq/wwrKUdhBXjzT33wtaH2nkEdCauwhe2sxQphbMT1pjXc2oGuj5XSXKRmQtB3mydMyOXQOcMRynAxSJcml5Ozby5KXILLfSWljl/7mrkj69swkRy6aDjhi8tg2E8eT6G+/2I9cduY0LIdnQeHICO/d3FQncJ34WgNT+LA9RrYyJ8tz+A7/b0Jgt9aWwc7mRW4F5OAR7kFiErv+RfAr22FdCbrfS3aKhv/BjoAnV1ESsV6GfPXISbiyfGj5mEsSPHw9PNBwf3HUbDq39uwREy5SVVOHPyPEaPGIexo8ZjzIhxCAuegQtnLwluz50+Bx9PH1iaWcLWyhYOkx2QFJ+EVy9ei/X+TrOu/18KkN8Dy5/6nM9H3WsB8oihI6GvayBQD/IPQlkxg3ibX3W1L2U7V2c3TBw3CZPGT8Ko4aNhZ20v/TvUfpgMBuPHjAe3CZsWhs0bNuPmLzfFwheAs57Sm0YZIATw6gDd9HPre8H//38N6OxSBegVSE18jOT4x0iJfwwudMEKjKmpOUi4l4dVkfswePgUtO9nh7bfj5b6HY4zd+JM8gvE/vwEaw4k4cL9euw8nwfnuTEwmDgX39gFCNC/tArAl1aBSrMMQG8LP7HS6Swl1AXsZgrQuxp7QmuEekuga9b6x+8K4PlZex0n/KP/ZPyN64HqTobRuGmYv+EATvxyH2n5lSgofYHiokpUFJbgWWEBXhQ8Qm3RY1SXFLQAekmT9EL5RQP7q+dVaHzDzNBX+CBZoMDLt8DTcuD01TL8uOEmnIP3wcZxOwwmb4ee4y7oO8eIhW7ERKHfAJ0W+SFYex6Eted+WHvthaVHDAynbsK3wxehq1mIUo54sCs+03XGZ7qOAnQuHPKZCvN2+i6KJKVHqaVFDR3KVYZa5q4nOhl6opMRZz/e6GykAt3IRxaAVuDug84GhHpz62Loi55mAeII7aDjCkvnFVix7zZirt7HphO/wtp5Cdr388IXRoHore8Oz3l7ELrhuujltMr9ItLhG5EhTlFKLkt3xyEuqxKpmY+RlvUEGXlFyP8XFvongf47VrpmsdN6p4VOq/369VvwdPfF4AG6MDEwg62VPVatWIOq8mfNFlzLB5oPAw3rt0BOZj7Wr9mIQf11YKBrDFNDc4QGTUfcrXjZhhbkuNHjYWxoIpAyMzHH5QuXUV35TCQdSjKftBJbHu93fmb0K6UIas5FBcV48vAJyksr/j34/D8Br0bKuS+x+qc1GD1iNEwMTTDEdigC/QJRWlzWTHNWGK2pg6+XL8xNzGU7K3MrsNlY2QrQrS1tYGFqIb8zMzaHkb4RbK3sEBQQDA6uHBA0OGuyWct3gfr/X4D+6uU7PHlUidSkpwJ0Qj0xLh8J8dlISc1B/L1cbIg9Ar2RDmj/vS3+8fVIdBgwCe7zYhF1IQ+TQreil4kb/JYewp0C4Oesdwhdexr9hoegt5kXvrT0w1dWAfjaOhBfWQWCVnpvK3/0tGRT4E5dvbupt7RuJlybU7HSNaB3UqWXj2GuyDHaZ5RjaL3Tou9i5IL/87sR6GHqgPGBy7Dt8HWkM/a54BlKiipRWVSGmsJCVBcWoFokl5ZWeglqCPOKMgF6La31qlLUv6gUqDe+Z4lcoPw5sPtYOtxZ5dBxG6wddsDSORrGTtECdAOnaJi6M8OTVrkquXgyWYgwPwhrrwMis1h6xMLcbRcMpm5CF9MwtNPzxT8GuePvg1zwGVeA0nX6COhtWgNd/+PCaEotHQKd2boMC2V4qBZRREnLC11NfNCFgDf0QhdDL3Rl45qoht7obOCFzgYe6G7iha9sAtHN2B1Oc6Jx7xlQCGDWln3oa++Hdn1d0dvQD18Ze8Fn4QFM33QTwduSERhxH/47MuEnQE9F8NZELNsdh1sPSpH4IB8p6Y+QnlOIvMelePi4pFlDl0iXGtHQKbk0Af2FIrk0SS8vG/D61cdWOoFOq73uRb3UJ2KtnIz0HKxYvhqDB+phqN0I2FjYYXrITKQkKrKJPOQfYUUB+ruGD0iIS8bsmXNhpG8i3xs9Yiw2rN2EilLm+QJnT52Fm7M7TI1MMdRuKLzcvVUL/VUzyAlsDSKataj9/58A9m3DOxQ9LcKlC5exYd1GrFq5GmdOnlH21XoQ0PbTcr/aZ9q2LX+nffZn3lt+v/XP2n5aH5Ofs37RqzdYv2Y9xo4a29RXocGhqCxT+lEgTEv+xSu4OrmCsDYzNsMw+2HwdPPEgrkLRH+fNXM2/H0C4ObshiG2Q2BtYQ1DPUMY6BrAYYoj0pLvKf2j3k86qwn0j6xznpMqqTUBXj1PuU/atfze+6eusfW23EZ7ab/T/t/yXfvdH3z/fcmFO5BX85FZoKus5CUy7pUiOf4JkhIeI+FuPhIScpCYnIVbSRnYc/oKTMe5ou23Nvj7VyPRceAUjAvciHWHkjApbCva9R+HLvoOMJk8H1tOZSDmyhMErDiKPhbe6Grgit6m3vjGJlB0dWrqX1gFCNSprfdSZZie5r7oYebz+1A3cGuSXxSIU4pxQ0fGR7fS2NvrOaO9oQvaGzqhm4kjBg73gUvoSlyJy8HDAsY916GiqALFj5/iWXkZylkeoICrID1GRXEhnpWXSqspL0VNeQlqK0rwurYC7+pr0fi+QWq0PK36gNkrz2G4azQsHaNg6bYXFu77YO6xH2YeyjtDEq29D8HGhxKLEprIEEXC3M73IMzdojFowjr0tJ6Hz3T80FbXB9TDFW3cRaQWRS93VHVz6ueK3CIWutTFUaxzOpK1JjV1GMMvWbvu6KzmBXA2JIMpB1ATL3Q39kRPYy/0MvFCTyNP9DL1RicOinpOcJobjY3H72Fs8AYM816Bvdez8OQD4LpwJfpYOqFdXwd06O+Ib8x84PvDIUzf9CsCNifCd3MKgiKz4U+gb01BWEQy1hxMxq/3S5BwPw/JDx7iQXYBch+VIP9RiTivKYeVlT5DuQp1cYo+q8Pz2lcC6SaYqxa6BnRC/KPWwEqMSpRLWWkVjhw6Lha2oZ4xDHSN4DTFBUcPHVceAUK21Yva+fPqOpw6fgbjRk+U75gZW8DF0R1HDh4XpxydqtSAL52/hI3rNsrUP/FuIurp2OOLj1bz4yUQocVOOeDN67dN+6AlLkDTzoHfaYTAfOG8hRgxdAQM9YwwfuwEREZEipSjbaq9y0xA1ezpKGQTp6G2b9WBS7iJk1X74j971yCjbsMBRlr9W/X834qsIY5JbtMIOaZmITe9fwLoQ+yGYlpQCGqqa5Vr5zV/AF7X1cPP2x/2NvYC/pHDRkq/Fj4plG1rqmpQWlSKlMQUcapOnjAZ9jZDZHsjA2Ns2bgFFZzF8CXO1noF6E28U371pv4tXj5/pZyv2t/U3MWRqv09aO/KV5r+bXKma59o/aS9q5KP9mueh9zjpg9a/aB97w+8fxro2hdlv/yP8mI+TXnpa2TeL0OSBvSEh0hgwa7kTAH6wQvXYTnBHe2/s0Wbb8agw4Ap+NrSB6v3x8N70R70NHZBdyNndDd2he64WZi58TxW7ovHMO/VsHJaAt3Rs8RS72VGbT0YX1oHCtQJdoE7rXVzX2ka1Jut9GYnaWfWjGmy1glzJr60ALqOEz7XcUJbLt5s4IbPDN1kLdCuxo741soFQx2nY9mGffj55n2Jg376tBylRcUCcsK8rOipOEmflZWipqwMNfJegtryEtTXVKDxdS3eNb4Gkf6o6j1Cl56BLeuuOMXA2HM/TDz3w9zzACw896vtAKy8mO1JvZzyygHYeB2Cjdd+GEzdjq+HLUVn05loqx+Itnq+SuQKHZ08f3F8EuRaU5yhbVsAXQqdSXVLFeYGmkXO8gvu6GLCrF13dDH1QFczD3Qz80QPcy/0MPNCNyM3fGHmBcupi7Bqz13M2XgexpPm4gsLT0ycvhXX8t7hfg2wYOclDPVegvDNB8RCD167Gd/YOqPN9xPRZbAzvrP0h/+PRzFjy20EbkmG/9Y0BEflIECAnoywiCSsPaQBPRfJD/LxIPupCvRiBejFvwX6MxXoL1781jH6SaA3NIrUQqBziVkOBjev3xYd3MLUGgQz9fA1P61T/vBbQZfQo9xSXFCKndujRKKxMreR782dtQDxtxMFXnywCVJC5umjAjzKfyw/C8hUSLSEWhPgVfASji2BL1Dm4ygROe+Rl52HGaEzxQodPFAHY0eNQ+SOKPm9QJTAUUH4m0FBe6j5rj3vIiO1vNgWG/Hj3/mVbNXyd+rg0BRRoiFE/bzl8bS+aG2hC9ADQyRCSI6rDjx0ivr7Boj1zVnPyGGjsGPbDtlOsbY/gE5i+ige5j7E8iXLm2QcDnrh02chNytPOeW370FwS1/xHDXQyjurpDbK4CYWvNrvvAccCDkoE+5sTX2tAv6jAbFF3zZdN6uotrq38rsW3d3046e+/08++zTQm/bGH5rvFIFeUfpKgJ6c8ARJiY+RmPgQCUm5YqHfTsrA8cu/wm6yFzr3G4rP+05Ap4FT0fb7sVi4/WdMX3sShuPC0d3QCb1N3dFJ1wEj/dZi/varmLXxAnwXH8LC7b9g0vQd+MYuEL0svPGldQD6WAeizyeArlnq3Uy80dXYS5yknQ0JdaVRUpGmT7i3ArquEz7XdUI7XcWSpTzRXhbVmIpOehPRYcBI6A7zgtfsDdh24BpuJeehjNEVJYUoLXqC8pICRWopK0OtAL0ENeXFKtAr0fj6Od41vpRlpR9Wv8G05adg5R4DQ7cdMPCLgpFPDEy99qow3wcLTyXb09JjH+x8jsDG+xBMXXZj4LhN6Go+Fx2MwgTmbfR80VbfG23EAdoS5g5oo8fmiLb6Tmgrcosz2hm4SMXKz9UMW8Uip1auSCtK2QUPBeQazM0Jdzd8NnAyOug5oe+QIEwJ3YrtJ+7hQSVwNqkSI3yXw2DiDKw8cAvRV/NwqwBYvu8mJoStw7S10XgKYM2xEzCc6I/Pvh+HrrrO6GcbjKDlpzArIh7TItIQtOMBpu3KQeCODARuTcb07Ykq0ItlcZCkB3m4n/0EOQ+LkfeoGE8LylFMoJd8bKH/WaBTdpHwxTcfxEpvaGhEbs4jzJk1H3bWQ2FuYgV766EIDghBWXFlUygjUwzevOJDrIQcpiSkYcHcRaK7W5vbwsbSHlE7YlBSWKY8NlzvtaoWBY8LkJedLwB+mPtIsfr48GvA5XbV3K4Q+Tn5ePq4QCxRgoMPflVFNR6kpePX67+KVU4LlLC6cukKAv2CBG7GBsYYN3qcWKU8Xk5mrhSiq654pljsEm75QSJsnj56KgMMoz842HA2oJ2LDBrq888wwcKnReD2PF5ZcZkAUKhA7V97NULCCxmayetMTU6TSBSeb2pSKh7cS0dFWaVct0C+NZB+z0L/BNDpPP1XQNeQRdAyEmbC2AnQ1zEALXQ6WjPuZ8j9ERCz+Abhqr5ohbNP8nLykRSfLFEyd369IzJZVnoWiguK8bzmhfKdRoZHKlY7v8OIpkd5j6WvGKLKzySSptX1cqDgzI0DMv8e+B1KZ4zD/82r1XebBoXf+fxPAZ2lSCrKXiHzQSmSE58gKekxEpMfITE5D4kpObiTnIkz1+IwwskPPQaNROeBU9BVx0mkF6eZEZi/5SKcwnegi84UfGXpjd6mHtAZNQNu82Kw5UQGFmy/hl9ygD2/FMF14W7ojp+DrxjS+E+ALlA39UE3Y290NaLO64nO0jSwu4vO2+k3QHfE57qOaK/riHaEoB7fp6K91G+fina6k/C3fqPQxcgRFs4L8cOmA7idkIYn+TkC9IqyIkkyonVeW0qoE+hFKtCr0PiKQH+BN3iOhzWvEbzyOCy8oqDrtRk6wZuhHxABE59YFegE+x5Yeu6FtfdBscyNHKPx3fD16Gg0B//T1wd/H0yQ+6GtgQ8+03NHGz3XZstcfyraSGsGejt9Z1BqYfnhz1nczNgdHU0UjZxx/Az7ZPhnVzPPj1o3cw9I4+fMytV1wnDvn7DpcCISnnxASjFwNeMZHGdtwITpaxB9LRs2nosQ80seFsdegdsPO7Ao5gSy37zFybQUjA5aiDb9xqLDwMkYNDQMoavPY25UCsKi0hESlSlAD4rMRNA2Aj0B6w4m4ea9IomYSryfi3tZj5CdX4jch4V48rQMRUwuKqlGWSlDF5U49D8FdIYxavHoKtBppVdX1uLg/iMYOWw0aKXT4p4y0RG3b97F6zpFIqGl9rae5psSnXri6GmRWPR1jGBlboupkxxx7efrePu6UfLL+HASaLG7YkUf3rppG3Zs36k4+lSLU0AKICUpVUIa16/ZgOjIGHnYn1U+E5AzRG/RgkUIDpwmEL947qKA6of5P2DKxCkYNmQ4rCysxVoNDgjGzu07ReKh5UqoUnfmub9+WY/LF38W2YHhfRFbd+DXG7dEgmDYIGEu1qgKOcoWlHC2bNwqGv2pE6dR8ITeEUX6oCVMJyUHIQ4uDBdc89MazJ+7ANMCpyHANwDUtJcsWooDew8g8W6SInd8AkYcvHjtY0ePa9LQQ4JCUPvsebPkwoXZ/wjQVUuZMN2+ZbsMdNTRW1vomlUs0OU1178VkNPvsXnDFsybPV+iZKaHTMfcWXOx7Mflco/ibt+VwY19xQGK/fY4/4n4LzZt2Cz9GrE1QqS2ksLSj2ZAPOazyhrpL0bfbN64Bdu2bMeJoydQWV71sfTyiX76k0DnHlq/mj8j0CvLXgvQkxIeITHpERKSHwrQk5JzEZeUhYs3EjHGNQC9dEeji44juum54u9fj8L31n4yVf9p9x30o/Vt5IZu+s7obeKBUb5rEXE6A8tifsG1nHo8qAV+zm3EouibMJk8D30Z1mgVgD5WQfjCMgi9zAPR00xrAehh6o9uxr7oauQtjjs68BSoq3CnvKDPTEZKLq5qjDotdAXoAnWCXZoD2us5oqOhCzoaueDvAybif74bg56GE+DoNweHj59Ddt5DqcbIpexqSsvwXAV6bXkRnpeX4PWzKryte453717iLV7h4bM3CPzpBMy8CfSt0A3cDgP/SJgygciT1jmBvhvW3nsxMuQY9CZvRQ/LhfhMJwR/G+SPz3R98bdB7vjbYDdJSUUlVwAAIABJREFUFOLiHxKKqO+ENvoOzTDXVyQXWudKZEsz0FkyoZMKdKWMAguitQC6qRe6S6y/J3pYeKP/6HC4LNiPb2yCELT8MPZeysKmg79iScQpRJ1LwLRVsZix6SB2XLqP9rpjEXP9EZbuvQHvZXuw9thNXHtYjmsPS+GyYAvaDhiPv387FrqjZmH6ukuYH52GGdGZCN2VjeCobARHZoqTdMb2BKw/lIQbaYVgTkPivRykZT5EVl4BcvML8PhJKQoLK1BSXCVQZyw6NfQ/B/RGBehqTDotdUovL1/UIyXpnmjn9jZDYWs1BGNHTUBM1B5UlrGY8cevVy8asGHtZgyxGQZjA1MMsR2OH+YvRlZ6jkCx/iXTx4Bjh4+BIXSDBwyWyAxGZ6TTQlShI+8fgH2792HyxCmgdEJN/OSxk6IDE+SM4hjYbyD6ftsX0VExIiOMGTUWOgN1JaKDzlY7azuJ8mAMN6NE6ATk935a/pMkNRFWjH/n/kwMTaEzUAeG+kYCUVqeTNgRqYCGN9etffYc+/bsl2gTnvuAvgPg7+OP61dvyO/FmnwPZGdkyz5GDh8loZmUQXjsQep3eBwDPUOYGpsJ4M+fOa9YrTwO0aIej9IHBxnOMujsZPhhSFConId0pDoh4OBEp6e97RAB/6gRo38juRCwlGbycx5i7qx50i+cwTDSaMumrQLjj+4mF5R59UYGHCY0KX1oKuGTeoP15XoYLTOw3yDYWtvJdcTu2i2zFwk7BSTCiDBn31uZW0vfBvgF4pcrvzQnN6mSVlpyGjzdvWS/pkZmoB+ACVWceUlOgXZyWh/9CbC3sNBbfkvb48fvBHpN9Ts8zK1CErXzpHzEJ+UjISkPSYm5iE/Kwe3kTEz2DkFv/TFoP2Ay2vabLMW6uus7Y1LwVmw9no7Yi4+hNypcHKadBk2FteMSrD0QhxMJTxB7NRU/7LqAlYficbcYOPprASb4/oT+dsH4znY6vrefhS+tZqC3eRh6moWip2kIepgEo4dpgAp1H3Qx9EEXwl1rBLwB64xosksz1NvrOqG9rvNvm44T2lFjH+wIJiO1HzgBbb6xhb69E9ZH7EFGZobUf6ktK8eLsgq8KCvD8/JiAXpNSTEaamvx7k0DGj+8x6NnQOCq0zDziYa+ZySM/HfDxHePZINaee2HlddeWHnthonLDnQxD0cH4xC0MwhULHJ9b7TV58LahLgb2uq7qjCnw9MJbQ0c1UaZRZFaNJmF1jkjWJqiWJrKFavWuQDdSwqjdTP1Rk9zPylx/P2IGfBdcRKnU9+ir30YApccQOSJJMxetQfbDl/DzNVR8Fm8GYtizmDL2UR0NZuKiMs5WLrvNmZuPoefDsVheMByTJm1CYPGhKLNgAnopOsEa+flmLXpF8yOTEawSC7pCIrMwrRdWQjeliSfbz+VjhupBYhLyUJCWjZSM/KRmfcUOXkFePS4BAWUXcRKrxLH6B8BOkMUm1r9O1BioZVOkGuN4Yt1z19LxMpw+5ECaQtTK4RPn4MnDwuVJCMNwgDycx5h9sx5Is+Ym1jC1MgCu6P3oqK0Sh6aRlr/DY04duQ4pk6aKlAjKIYPGY77qfdlei3yBg3+t+9xcP8hTJ3sIA85Q/do7dLhSWARiJQL+E7wr121VuKv9QbrCdAJBYKEgwXj3WmN8ne02teuWieRIpQXykrKZZ/cxsTIFITc9i0RePLwaZOlqVmADIXcv/eADC4ELKE+LTBELH6BsNoX6fcyMH/OAhkgGFEyavgoGZgcJjuKpm9sYCLg5bmZm1hI9MntX+8oGjJ5/vaDDCYNYqEzykWx0DWnaG11Cwv9A/Citg5+3n7QwhM5Q+GMhAMQ+5F9ylkDrehZM2bJ+ejr6ION0TCUWyiFcACj5k4/Bwens6fOSZgko2c4KPG8zU0tMHzoCIm84eDIkFO+s/94jwh/SXxSrXtKNKHBYfJ7bsfQy1kzZkssvTig30FkMDpmeY+Yl8B9zp8zH/dS7jVr8RqK/32gt9zDxzDn/wj02mcK0BMTCPM8aYmJeUhOyENiUg7iU7PhEhiOL43Goe2AyWg30AGdBjuJ9PKtZQCmhEQg9uITHL9djeBlx9HXJgiDhk7Hmv23cCIhD4fupMFzaQSMnedj2qpDuJxSgTVRlzHcdRm+spyG/sPm4zu7ufjSajZ6m89ET9Pp6GESgp6mGtSZ7OILxkdLMyLgGWJHoNNKZ2VA1u52wec6zmrjz80LMnCFnXaDWzdHtB0wCZ0Gj0PYog1ISk3F8+pqPC+rRF1pBerKyvCCQC8rwbPiYtTX1MofLav5Pa4m0M/C1CcGBh4xMPE5BDNvhicyimUfrL32wNprN4ydt6G9YaDIKm0NWKfGHW0NCXHGkbds1MaVhbSb3vWdoMkszUBX6s+zPgtDElncrGXJYq2cAmHew8wXvcz90dHAHQPHzsf0jVdxIrEeA4bOQNiKwzh18yEOXEhG6pMX+HHbPoStjsKSPWexdN8VfDPMF2tPpGHpvjiEbjgLn+VHRcqixU/Zpt1g+iVcYOe+GnO23sScqFRM23EPQTvTEbgzEyG7sjFtWxLmRCZhx+l0XE95KvJdfGoWUtLzkJH7FNm5T/GQOjplF9VKLy9jLZd/baE3wVwFu5ZspJQBUKDOkjzvGt5j66btmDLBAZam1qKjuzi6SdZnA5MJCDEVZFcuXZMEJIKcuvsw+xG4fTMOb14367GExYmjJ+E4xVHgSSuawKMezvhxTcMlWA4fPALHqU4SN82YaobmMWqFlio1YEKMcdmUNq5fu4EjB4+I9T15whSBupG+MQhBbqNkUO4Sa/7WjVuK5NIIsUw5SBA2tJgJdMou1Ox5LjLAqDBpCXTCmECnBEKJhn2gWZKUDzho0dkYExWDS+cvi37OaJ5bN29jd/RuuLt4iOOWVi4HtB9/+FGgK4OH2qe0qJntSVDyWthX1LspO2nnxnfC2NvDRx3ITGV/lHZWrViFVStWY+WylWLtMhJmmP1wgStnSEsWLQHPiZINr5ODLf0T1M9/vX5Lrs3Oxl5mBwa6hhJeSrnp6uVrMohREuE1jhg2UvqPIZHjxoyXa6efgoMcZ0BXLl+VvAP2MfuXGa/sA4KfjtQLZy/Aw9WjaRbF+8zZGCNqmmYsGtD/wnsrC51A/32o01MuQM+rQmKCAvN4OkQF6PlI4s/3cuE7YwG+NZuEdoOmorO+O7rouqK7niu6MtLBKhCOYVE4dL0CR29WYcGWa5ix+hxOxpfhwI0MHIvPgt/KaHw11A/9RwQgdFksok8kwHdBDL63C8X3Q2bi+6Gz8a3dLHxpPQO9LULR0yxYbUHobsJ46AB0NfJDF0M2gr0l0KkLKzW8P5ciUs0g16DO1XZaA70963kPnoqOg8Zi2oK1SExJQV1tDV6UVeKlAL0UdQL0YjwrKcLrmlo01rPaIvC0GghafQ5mfrEw8oyFme9hmPscUpaOI9C998DaOxbGLlv/BNAJ9ZbNRRygTTCXWvHaEn/NC4loteelZDEjWFjl0txbyiHQQu9k4A6DSYsxf8ct7L9RCYMxszF33XHcza5Fduk7lNUDh68kYvXe8yKtbDmXCseFu7D0QDwC1pzEiMCNMHZYjH8MmIx/DJwClknmilVM5rL1WIvZW3/FnF1pCN55H0GR6QiMzEBodDZCtidiXmQidp5+gF+SH4MO9rspmUh+kIeMnCfIynmC/IdFeELZpaAcJcWV+KtAJ+AJdVrlmoVOoPNeXbt8HQG+QaKhE9TDh4zEmRPnUF1RK1IKs0cJ7W2bd0hmKYE+cuhoBPpNQ+GTko+sIELv5PFTcJrqJNN9htrR4k6/l67UJFEHB2qxRw4eVbYzMBZLm1CnlMJyATG7YvHzxZ/x86Ur4qBk2B0dmnTWBfoHibVKCGpOUcZuc/rOUD6ChFYwr41OTQ3otLopQVDrVYBOa7m5ds2/Ajr3R1TQ8qTD9O7teBQXliiWMrNf1RBFOvuYXDVx/CSBGJN8HKc4iURBqMoAqcaXM7GI0g21blqvHJzoEOZ5UQ5ifzIhi7H8HGRoRVuaWwn82bdaoyxCoPIarS1swHj2i+cuySDa8gZxv0w0WrFspfQ1+5D9Pn7MBJw6fkr6jwMABxsOJDd/+RUzQmfIttpsiL4CWuZatAvzD1YsXSEDDaUnziSYKcyZQcb9TJldaZY5B9Vtm7dJ9NNH2P0LINdmVr8D9JZgb+4C3sTnzxrxKK9SIM7olvhkBegp8Q+RnJSLlPt5CJm3FH2tpqL9YAf0NPNDL2Mf9NT3QHc9Nwlf4/vEoO3YcTIXJ+/U4mr6B6SVAesO/YJ9N+5jfuQ5DAlcA1OHOehjOB7rYy5h4eazMJ+6SLJHv7UPxXdDZ+Ab++n40joEvS2C0ctchbppMLqbBKObUSC6GvqrUG8NdAXqBLvAXccNn7do7XXc0G4wod7c2g9yQtuBk8VCD120AYlpqaitrm4C+ssyAr0IL+gsLSnE69oaNLJWBFP+q4Fpay7A3H8PjL32wNzvCCx9D8OKDlDv/VKXRQH6FgXo+j5oa+CJttTKDT5loSvaeOv1VrX/0wnKBUA6yPJ+mlVOacUbXc2adXOGJnZjaCKjiWwD0NPcR4Bu5rQCK/YmY+8vJTCZOAeLt5xGQvYzJOVUISW/CjfuPcXOM3GIuJiGC9kvse1SLgLXnYGp6zL0svKXqphcXpAx/qzBw5/b6TjD3msD5kTEYW7sA4TsSse0XZkIispAWEwWQrcnYkFkAnaeuo9fkh7hVlI64gTouUjPfozMnMfIp2NUBXpxUcW/BXRCvaXsQqDzoWIo4pJFy2BnPUQcnebGlti4bgvysx+BMgodpIx8CZ8+W6xyyi0sFxC5fRde1rJSjxb+pkznaX3R8qa1plnoGtA1B2RrC51TfmY7EgSnT5xBaVGZgJOyBP+eaKnS+udyijPDwgV+hBGhSXjKi3ot605og8YngE6Zhk5DRsVwuz8MdNXm40BBkFFHFsCz4AVr0b9SslfLSypQXFCC86pVSjmDgKVmnBCXKKBkn7MfqI3/FaCznwhvQpwDIGcpmj+B0CWgacHvidmD+6kPxDJXOkiJt2ekCcsxKNmlpjKDot+BAJfXexZVVQYeDkCH9h+WGZcidynlHA7tP9QkvXDgSYhLEAc2JSieA8+HgzIHTy93L9HXKYfxvFgGQpyyLe3o/xzQW+9Ju3TlXYBe04jH+VVIpGaenIO7yTkC95QEAj0P9zIeInzxSvS3cZCp9heWgejFbEMdF3TTdUVvIy9p7b6fhEFDZ2DG6vM4GfccF9Pq4DxrI7adjsPqw3cwP/oG1h9LxPeWDpi3eg9WxV6F4+wIdDKYii9tvKE3cTZ0x8/G98NCJQqmtwWdpcHoaTpNJJjuxoR6ALqKlc6UdS900veSEq8ddD2V2iO6BDtXu3f/qLXXcUf7wYR6c2s/2BmfD3ZAh0FjEbxgLRJSU1BXo1jor0popZfiZdmfA7pEtKhAt/GOgbHzZrQzCEAbPVZK9ECbFpr5R5KLGoooADd0RftWTWDOqBZjLWGIYYmMZlFg3k3izD3Q3VxpPS088ZWtH3pbeKGrkSts3H/CxuMPsP9GEfRGBWN5xBkcu5SM4NmrsX7nURy9nIy1e69g27l7SKgE9t2pgJHzUnw2eCr+NoDryLriHwOn4nN9F5F62uu7SNbpqKAdWBidgh/252DmnlxM35OHoKhMhO3KRNj2BCyMikfU6fu4lviwGej3c/Eg69F/EOhvUf9aaW8kHl0JYWT1RUKd8eUxUbsxcdwUWJrZwNTIHNOnzcTdWwkS4UJnJwt3UYqxtxkm20waPwVJ8al4UfNKvs9IGMZBs+KfoqE7iGZKuLBWyW809DcExSEBC3Vywp/WJT+jJS7SgFZIir7Edx9EKiDQqdkSkpQzJoybKNo74Uz4Cyj+BdC3bW4GOgcJzdKjhc7IFJ4vte/WkgvPQSofEkR8qY5UDg5378Tj3OnzIgvt270fy5eswISxE2U/1J8JOEbbPH/2Qvlu4x8DOgccSjBeHrTQLaSfaJVT0lmyeKkchzOQkOBQODs4q7HqZqBjk8CmZJT5IEsGD14nj09JjFo3k49oOTs7uohUxIGp6aWGVfL/mQ8yZZZDn4aNpa04TikV5WblSh+wXziQMiLI3cVdfBk89ugRY2QGxe9wIGUNGsozlGtk9tGi77V78FfeW1joPN2WQG+6nKaPqaHXvwJKCl8K0BNSchGfwizRPKQkPkJqaj7yn5Zi7rLV6G89FX/vO14iS7oZeKCbvju6G7ijp6Enehp5yXsfU1/0tQ2BzohZ0B01Hd9Zu2HN/usIXXcCrov241RSFU7eysf5uDzEXkyFz9IYdDebCt2Jwdh8LhnzIi/CxHEeelsqcei9zIPQgxa6cQh6mYWpVnqz9NKZCzKwXrfU72YNb4LdU8q+svSr1j7X8ZTqgawgqDVZ6Jhx6/1Gwm/WCsQlJeLl8+d4UVqJV8UVeFlSirrSQjwvLUR1cQFe1TzDO/5RvAOeVn3KQj+iLBnnfQB2Pvtg7RkNvcnr0F7fH2316Aj1+MgJKkBvCXIDZfFsDd60xsUybxmiaOKBzqaMKVeThcw9BeI9LDzwhY0Pelt6oqe5G3qauaKzwRQMGhWCL629MMxvNXZdzkPUxUwYjgnEhtiLOHIuDlPcpmNb9GlEHbwG3/kRcFsQgx9338E3w8LQ2dQbnxtw1SOu+8q1ZF1AkPO9nZ4zeloGwmXhUczekYDZsekIjc1CSHQWpkVlYfquLDDCZenuZBy4kouLtzNxKzEdd1OzkPxAAXpWLiWXf9dCV2Fez3IArMRI2YXO0fdoFGuTCSkNOH/6Ivx9AmGkx/or9hhmPxJnT55XLckGiTWnw1RnoD4YETNn5jxUlTOe+x0aaURLYwLKW4lymUKnqFpwihEsSnEuwp9hgrS2PwY6Yc7t4u/Ei9ZM0HI7mZYToIR0o+Jgo5VnaWYluvOkCZOxc3uksp0Kcu0ppjHWWnIhWFipkPHv3J+mi/M7jEFnuCStaQKJ0SqULqiL8zx47pp1TkmCkTJ01lL3njJxqqTk06nIgUaTPkS7N6IMYo3TJ04LnHlcDjx/xELnjIBhjJy50MHMKB32U8S2HVLLhlY1W3lJucTCs/wuZSgOkHQC87iM8hH4QtG86VDlICMSirmVRPI8zn8sMw3pcyJRHUR53Qzb5HVamFqqUpcR5s6eh4S7iUq/c2NZ3a0KkRFR0g+ccfHaWUDMwsxSdHWGgvI8qeHL7OY/b6ErJ/7Jf9U1RXlgrutQWvQSiUm5SEihE7QZ6Cmp+ch7WoLFazdi8BBn/K3veHFAdjVwV4HugR6GbArUexl7o7eJj7QvTDzQw2AqftxxCeGbzmH8jJ2YvfkssqqAhzXA8du5cF2wGV1Nx2LK3FW4nF+J/XH5mDx7E7oYO+Ar20D0sZ4mFno3o1D0MGkNdJZ+5WIM3tI66HqpAOd76+aJzwezeTQ3rlyv64S2fUfAd9ZyxCWqQC+pxKuiSrwsLsXL0kK8UIH+8ll1M9CrgZC1F2DhvwcmXMDZ/yis/BSg23sfgD2B7rELepPWop2eP9rqeklaf1s9V8lkbXKK/jOgGzevtyrx5rJGq7JWK/VyRV5hjLkbupo645shvvjK1gs9zZzQb7gflsRcReSFdIwJXo2RAT9h341H2HIyHibjA7Ax9hyOn7sNv2mLcfVmNhYsi4HluBnoNyQEhpMXoaMU+VKiabgQuACdAw6hztIKes74wiZElp6bFZGIWTEK0KdFZyE0KgfTIzMxY1s8lu9JxsGrubh4KwO/JjzA3VRq6P9poL+RhaQbGt5CW0RagC5OQWXN7vS0TCxdvFyscwKbUKfVTmiXFpVjWmCYyDEs5MVYdZbMpbZOy5yyjEgpajbg8SPHxfImfKgfU0NPTkxR9FwVzK0lFwKUzjSGtzHVXQBOsPChb9FooTOEj5AgOJnmTkde0zYtHubfBfqmraIV8zscWLRXM9BHCbw0oLN0rdh9UnP8rcTUs34MrWI6fAk6xQq3lwgRfkanLh2UhDB/R7nh5LFTYp0SmrSGuZgFy99yAKFTkttysKKjkefFwYODCGvLe3t4y+85myHQKWdIlMsbNZZeHSSYEEVJiZEwhDqtYzpdqY/TMmYxMzpSCXr6E2ihz545W6KBmmYrWoeo75S/Nq3fJN8hpDkQ0FkadyuuyfCVTRshkTYzp4fLwMOZBK+bgxtlF+Yn8Jq0vpR71tKe/os/t7LQW5299t/WQC9+JQ7QTwE993ERVm/bCeMx3vhswCRJ6umirwC9mwGtdA9pH0OdYPdEDwMnTA3bAue50bD2WA079yW4mVmFn5PzsXjHEZg7h+JLu4lYeeQ8rj2twIl7TxCy8QC+tvdEH2tf9LYMkvKunXSD0MtsumKhi3NUiXhpaaF3JNA1C12s9JZQ/zTQmWRDoPuEL8edxAS8rH2OF/8U6M0aeui6S7AK3AdT332wDDwOa/9jsPM9jCE+BzHEdz9saKFPWod2en5oo+uFNlyY4veArkosTQlD6tJ8Hbmak7EnOrFevJmXLOHX1Yy15Fl+2BvdLdjcJMzwK3sXfGHtCN0JQQhesw93i94jpQLwWxaDCWFrsP/XPCyNvQCTSf7YsPsM4u89xuFTN3H2UhomOM3BN8au6GbI6Bh/qQsjswMDN5FbCHTKLgQ6rfP2ei7oYxsK10UnES5Az2iy0EN3KUCfuT0eK/cm4+CVHFy4la4APSUTSfdzcJ+x6P8xC/3TQOfsUx4uMLvzBfbGHsAQ22GSZMRSAMuX/IR7KenISs/F+NETYWc1REIWaclfvnBVImSYQcpsUgEwtdeGRkkYYZSLFrkxeuQYSSJi3LMG3tZOUUKPRaoYysZomKaHvQXM+VkT0E3/KtBNJcmIzlPu7w8DncBseCchhGdPn5NwRp4zLVHKKYy/ZoIRo15o5XOQIYQZRUInJvXuM6fOKjHmlPnfNMp10qLmQEa4UgIJDpimaNniN1AGMw40jPghIDnDYOnc1kDX7iMHAEb5hE8PF5ASqAQ7j0PtnPLQ0h+XyeDAz7lPFvmiU1msc41/Ld5pVTMZiAMO480J6PAZKtDph1BnUpSjGINOmYf75qDBAYWzFhdHF1z7+Rfpwyag/0WAy/dbfPfPAZ1e7XqgtPiV6OXMDiXUk1TJhRZ69qNCbIndB+spwWg7aIqSvanvjq56TCTSLHV3dP+Npe4lyUYDhk6DwYT5GDB6DvoPC8Dq2PNYv/sExgfORS/LMTB08MblhwXYn5CE7T/fwoKYk7D3XYxOho7obRmIr23D8ZXVXPQym6ECXQ1fNKSOTuuca15+3BTZ5Q8AXccRbb4fDp/wZbidkIC62tpPAp1OUVro4hTlNK0aCFt/GdbB+2Hutx/WQSdgG3gc9n5HMNT3EIb6HYCtVwz0J/9xoDc5PQlzEzbC3BudTHzQ2dQHnbl0n8DcD93M/NHd3A/dLXzQw9IVvWymoo/9ZHw7zBETZ65A9NU0nEkrRmLpewStioXDrHU4cDsHQat3wczBHzuOXkZBxWvcTXmMOT9sg66pE3rpOKGHcRC6mgQI0Knja5a5AJ2OWQ3o+i740i4MrotOITwiCeExGtCzERadKxZ6eEQCftqXjIM/Z+PCr+m4mXBfnKJJ93JwLyP//3agy7SXDy6Nl3fAjau/ik6uO8gAuoP0EewfgjMnz+H61ZsSAWNtYSdhjYsXLkVe1kMBekuYE5D/7UAngBkT/ZeAXv8WlCYWzvtBIE5Nmz6C2eFzpEwtI19oTVNKoe7MVYiYDMTZB8HOUrbU6fkiBGmlr1cTixhXTwcnYUjLuwl6zBR98Uosdzo/uR0HyN8AnQMfJ1sN7ySiaNmS5TIzIHwpfTFunuUJGAn0Vy10Ap0WPePbmUVKRyiteq3lZOVi4/pNMuAwkYv9w8GO8hhnK0wkotSlObpbg/mv/v9PAZ0HedPAiosvkELtPCUbCSnZKtAfIjUlDzl5TxCz/wiGO09H+8FTlBorBLq+G7oS6JRfaKkT6EZKBT+p4sdqfkbu6GXsgV5mPuhpEYBv7fwx2ncJthz+Bc6z1qKP9VRMmrkMBQB+iIyF/4pNWBh1AjM3HUXbgWOgP242PObvg9fc/Rg0NBx9zAObskdZ9lVi0dWV6bUV6vlOx2hzU7T0j+QWSi86rujwr4BeokguBHpdddVHQJ++4WfYBB+Auf8BWAefhF3QCQXofodVoMf+e0A39kIHJlKZ+aOLuS86m3mKhd7NLADdzYLQnVA380EvKzfoTPSF7iQ32HiFwnv5ZiyOOYkJYUtxMb0Mvkt3YvLM1Tia8BSO8zbBym0Wdl9KwZ2sSoQv24UvdcbiC51J6G3ogS4Gfmg7iFY5F8lQpRauGsWFRgzc8bmeK9oxaUvPBV/Zz4Dbj2cwc0cywmMzEBKbiZDobEyPyUfYzgzMikjAqiagP8DN+PuIS86QbNFPA51hi2qmaLVSbfHF83rUvWiQ9rJFtUXNCcp1RqXVv0FryUUDesMrVjlsxIO0DCxa8CP6fTcAA/oOguMUZ2xavwVRO3YJ4OksdZjshP17DoLfEZgTJJq19L8JdCYT6RuJo42asFj0zeqJQrdGLsZRAZYLoKVKqYBAZ8laShM8b1q08voAgTGTmOgUpaSjSS6ioStb4erlq5KsQ+ucjkXKGXduxSk1x9VtOKhRs2YJAFqo3JbWapPkomnojEP/aY0AkPIRrfjWYYsEPx2Z3pqGrmckEg2BTm2dlj51dvEH0MnYCJGtqJsTqOJINTQRpyajbBhSyWJmnDUQ9jw3Xy8/OV8t8UjuJ69FnSVwVsSYd8otjEXv910/iavnbIpOcFr29AlwZsIYc1rnnEkwFp4x+JSkCHhCnVnEdHrLzEibIWp/P3/pZph/AAAgAElEQVTx/Q8DXftDleSimlfIzHyExJRMqbLIhCImFqUm5SAv6xEOHjyO0c4z0KbfeLQb7IjO+m7oQqAbuDe1boYeAvXuRp7oYeylwF0A74keJt7oZsq6517oaeqKhTsuY+62C3CYswMz1x9CUQMQ+uNa2DkGIWBpJHaeS0Ev4yn4cecl3Ml5jdwy4FJiBcb6r0NX1vrWdZHyrx10nOVcOum54bfNHZ30WDDMQ1pHHQ983D4N9Od0iBZWoK6oBHXFBXjOol2lRairrsQ7Fj16rzhFPwX0If5HMcz/MIb5H4Sddyz0p6z/15ILLWGGJFIz1+qzmFJm8cbnlECsQtDd0h+dTN3AdP+eliHoZRGGbqYBstLTgNGBmBd5GEv2HsZQ/zB8O3Q8xgTPx4FfH+D205fwXhKBSTNW41RqBTaeTsPIoHWYOGMLRgWsQk8TZ3QzcEI3Axd0NfBQZjz6XLrOXXWI0ip3w+d6KtB1GfbJpQBd8e2w2Qhadx2zotIwMyYdITEZ4hQVoO/IwKzt8Vi9LwmHfs7C+Zv3cSP+ngr07E9a6Ez/Zz2XyopaVFfVobbmFZ7X1uPF8wZpBLsGdQXoKswJ9X8CdD64hAJrcBzcd0hiojm15iIVlADmhM+VaTMfyiD/YFy5dFUBaEuY82H8TwOdUGn1kLN6IzV0ApKW55iRY8Xi5uBEsIiWr4KV50O5gjHStG5pYRLqvt5+SElM1bYSB50C4TyRJghhXr/OIF1JxWdtGO6b2ZW7o/eIPs1wRNYld3NxR252nljbGggJKxbnUqJxrBXpwcpWwjFZuIznRauWEGSJYYKP2ZO00FsDndf18sUrGUQIRmZbUqIRoFcriXy8f3wJ2D9ABg5miBLYtJAJV9ZkYaQRHahMHOJAxD7k7IGZqhwUOXvQ9iE7/KDMDo4fPSHH56BDqOsO0pVaPSw+xmOzcBd9JMyq5fHoN6FfgPV32PeMs2fEEEHPzGAmNdFPIsdq/TfU6n63vv+f+v+fAzr/phieVFuHrOx8JKWkq0DPFqCnJWYjPz0Pp46ewUS3WWjTbxzatwB6l1ZAF6gbeQpsaa1rFnt3Ex90NfVBVxOunOMBS9eVGB28DQE/ncaRm4W4k1GFDZFHEb5sJ1ZEncfey+mwc5qFXacTce5WDo5diMPRn+/janodQtacgf74ueig44C/fTsWnfVc0FnPVa3lzXrebPw/mwp6XXd01Gnd/hzQX1RV4p0aasYolxkbr8B22kFYBByEzbRTsAs6iSH+xzDM/4gK9N0w+HeBbuCDnlYh6MmFt0cGwdDxR3w7dC66Gk2D0eTlsHL7CSYO4Yi4+Ct+OnwUQ3yDYO0RgPXHLuFabgWuZFfCae4GOMzZhBtPgP13KmHpvhp97EPR0zYYnc190cHYEx2MlGqNnbhkHZevI9CbmgL0TrTaCfRBCtC/HzEX07fEYVbUfRXo6QL0GbEPEaoCfY0APVMB+t17uCMWejbSMvJ+I7koQH+GyvLnCtCfvf4doDcoVrlmnf8O0EVDV1ggDyblAj7stMIID8oJfPAJHD74fKDpxGNhKu2B/+gB+18AOjVgDjCEEZNsCGrGpbO+CrV3WpkfVRJseCdOQkJF0YyHiAzC+GhqygQLJY2czBypecIFIWidUyKhA5KlesX5pyYCHdh7UMoaUPNm6CQHFGaSMrSQsdscGKrKq7EzIlKSiUR3trAWS/j4EaUYFSNrKDtwgGCZAob38dwIQw5W1LO5H1q/nEEwEYjhgBxEWEGRGjrr24h0wRuhJjRxQOYMgoW1ODhQu+YAxoH5zMmzAnNKMiyHQMmEGbm8r7SimcnJmQj7QntxYGLU0ZzwObINZze8bjo4mVTF6+AM4vHDJ/jxhyXirOUgy78fzopYpfHGtRsiIzGGnUlFHCgpM7G/ObDJYPQXIN7y7+6PAV27qhZAz87OR3JKBhKTMpGU2Az03Pu5uHT2Cpx8F6Jd/wlSCIurCHXWdxUrnVAXsBt6oKuhB7qpQOcCCgJ1Yy90ZzlcVlA09QZXJWK1xW+HhGJk4BZsPJqKpTvOI+THCGzYcwlXUopxM70CM1fswoFLqVi/+yJcw1ZiYsBy7DyXgf03SzBr80UYTJiDz/qNR2d9WunO6KTXumlgd0MnXTd01GFrCXUXGRQ++344vGcuxe2EeNTV1OJTFnptWTEIdNHQPygW+sxNV2EXcgiWgYdgG3Ia9sGnMDTgGIb7H8HwgEOw8yHQN/xhC70jk4ak4JYnOjOixYQJPN7oYRGE3jZ+sPRcBN+VxzBgxAL0NpsOv6WnEb7pEuy9fsDxpCwsiIrB+Olz4L54FXZcvIPt5+JwOqVYYG7vswQbTqbBd8VxfD98JqQ6I++Hhb/AnEDvSKgbKkBXYK6AnNY5SysQ9gR620EsguaKfiPnY/bOZMza9QAzotMxjVZ6dBYE6BEZmL09Hmv3JeLQ5Qycv3EP1++m4U5SutRzSUv/3wA6nyT1RWnx9Rs8SHsgMc+cirMRMuLYMrEQSBw9fEyZ6rfIsGx6uP4F0CXOmYdUE2taZoryWL9xivLUWj3sDEPcuG6TyB0EFs+PIYOULg4fOCxZqiwzIN/j999DUvOZFk9octpPiHHtTWrJhw4cxtFDR8VRyIgZDmKEOeUPwml66AzJTuX+eP4s1KWksZtKCB8HFqbYUx+npkyAMdGJtWx4bvw9r43neuzwcVnVibBmSjwzMn8jufgHKZmuDO1kHzNeve61YqGrMhPPb/bMOZJSz7juC+cuipTBsEAuO6dE3lgIQDmgUGKiBKTF6XPQ4/nSiqf0ooQX2gm4GUvO67jzaxxYVGzB3IUyqNPKp8XPwYe5AnSUsk84+Bw+cEQGfc1h6urkJv1Ai5/bsQwAo344INAHwKQz3ita9iL7/ZtW+r8F9JSUDCS1Anr2vWzcvHoLntOW4fOBk9BBV7OCFcuY8otIMCrYm6z0FmCXpeUIcy41Rz2dmrChO76xD8GY4E2wdl0E4wmhCF+9F1eTniCj8DX2nbmDIz+nYu66g9AdHYR/9B0B06lzsfZIMlbsi4Pz3CiYOS5ENyMXdNJ3bNGcZNUdBfAa1Bmi6KpCXYM7E4um4rPvhsFrxlLcimeMcM1vgc7QxfKSj4D+pBII33wV9qGHYRV0GHahZzBk2ikMDTyO4QFHBej2vntgMPWPAb2DkRsIdFllyMRTMjOVZeK4NJ8v+tj4YMrczdhxMQ/DvLZCb9RSrDuYju1nsjDCbzF+zipEyLpN8F62FnN37seqw5ewOOYsDsU9wZTZW/DdMH/Yeq5ALwtlUO1u5otuZn4yaBDmGtA7Gnoq+jmtc9bHYdNVgM5qlx103ZqA3n/0QszddU+AHrbrgQA9NCa7CehzIhSgH7z0AOeup+F6XCpuE+ipWUh9kKum/hfiMZeiY+p/kbLQxX/OQqc3tBnofLiob9JqJAgUi4paK9eyNJVY6Lu370p9cCYRyXdbAvc/BvR6xXr7BNCpJ3N9Uk7dCUptJjF8yAiRIphcQ+C0fNGqZygfi05J2J2phcCJliQXXSZsmHpPq9ZpqjOcHJzFsmWlQcaY/3L1umoxvxXt/Yf5iyQ6RNPkuR9WZZwza66UJeCgoQ0MhBxnNoQhBzAuAM0qi4Q0wxY5qFCz5+BBh+NHUS6qxsyZByNmuC/OSngveEyWV3BxcpVznjhuonyfx9IGYg6QDC+8n/ZAjkWJhzBnrgBLFrBIGUsScICj5U3gMhqFqybxurmkHfuL++TvWeaXAxDrnmszBw5wHBjYFzIbGDNe/n44q2CsPrej/MRSA7xX3A+vlQtZ3755R6QnsdL/Daj/NaA/r0NOzkOkpBLoGUhKzEJyYi7SErOQlZqJuJvx8JuxCh0HT0YHrt+p6yw6dscW8kYT2A3d0dWIlroHqKfTUifQxTrXgG7mI6sV0VLvbUVgKTHU31u7wCFgMU7dyJB1KI//koEftp+BndcydNCfgg56k/HdEH/oTwiH28IYbD2Tga9t/dCZQNdzaIa6nhM66zk3yTGdCXOtMf5crPV/BvRy1BUVKxo6gV5R+pFT9LEA/RqGhB2BddAR2IedwdCQ038I6MqKRKysyAU41Nrmhm7oZOgOLo4tC2Wzv9g4uzH2wHdDfDBt7V7EFQArY5IxxnsHth7NxNbjqRjiPhfXsksRsHwDZm2JxZbTN7HzYhJOJZcg8mIGRgeuQRdDZ3QxchO5q5dlgETIsH46LXVa5k3tU0AXC53nxgQud7QZ4AgWOxs4djHm7rqP8KgHCI26j5DYDMzYk4eZsY8QFpGBeTsSsG5/IvZfuIezv6Ti2u0U3Eq4j/iUTKTcz0Fm9mPksYTu42IUPC2Tiotciu5PAb2e+nmDtIaGN3jz5i3evn2Hd+8a8b7xY6DTmmWEBYthcVUcOh1p1fIB5MPO5BLKFNR/m6zt1kB/0ygJNNSWCRbGTDObU3GgsXiMaqE3QsIbae0qALIHocQZQlPY4ieATi2b0hCLXQ21GyaaMq0+QonTes4mmuLS1WNxN6xzzkqEDKUkoAgXfoea9KD+1HdNRCZgHXeG9dEi7f99fwkX5HJ6hC8BRVnlwtmLsmgz5Q/ugwMfB4TBA3SkUUPm+bHmCeFOLZ6wO7DvoMCQsgb7mXo2U+6lr/WMxKJnlItWi4Yw5D3hcRm2SIufAwOPxWtl2WHeGzZmhirXZSGwJ4w5k+GiHxL7rY1wBKfUo3krUgmvlwMDz4/XzH2xRDH3T12fESocnJgotm7NeomSkfMCJLGKqyNxe/598PiUezjoa5AWH8Dzl7hx7SZYVI3HYJQMBy8pWFZb97GW/hfA/ueBTufAy3o8fVqMtLRMJCVrQM9BWlIWMpLTcevaHQSEr5a1Q9vrOKpQdwGBri0Lx5WEOktzRxfCydBdoE6wE0xinUsVQGXtUC43J0vOmfuguyXD7zzRx8IZ/a0dMcQhDLtOxuHo9WxsPpGESXMi0V7fAX1HTJMsSDpWJ4Rtxt7rhRjpv1ZS3Al0gr2jngM66tJx64IulIWopeu4oJOuizIINVnqvwf0crwsLFOB/lQSi+oqy/Cyugrv1WWmHpXTQv9rQP9Mxwn/R98JspgFJRbWMGfFRK6N2p39pDqVv7TwwzfW/uhp5Ax7jwXYfuYOcl8Aa2ITMDUwElsPpWHrkbsY7/8jkovqMWNNFFbEnsXVrCokFQM/7ryMqWFboTt6ptSeZ72c7mZ+6Gbuj660zhkKaeLdDHUV5hLh0qSfu4ueztWhNKB/1t9BatObu67H0oP5mB2diZDI+wiOfoAZu/MQHvMIM3dkYWFkMjYcSMT+82k4cy0FV28l49f4e7ibkvEfBLoCc0K9Gehv8e7dO7xvVIDRZGmLs65RFiOg5ciEE4bksVgWQXPt52tKjLSEObbI4lQhwYdYdNe4BJnmU39mKVWWSqVVR5DISwUtF3+gHBAWMl0aY6cZTigREC23bTVo8PdMkGFWIjVnWtjMSKSTkk5F1oLhoECYyJRe1Zi5DBvjsekUpfZNi52ZplwBibDlij0csFgFkotmcJUgLvqQppZ5pYWrDHovBFrrVq+XGif0MzB5atL4yZgZNhMXz1+Sei4sjrV86QpxFrIvWd+FFjrPnzo/ZzmM+qBkQxCyrwhhKQ+gXTP5+/aDFLTiPny8fGV2wjR6zlKYQMSa8i6OruKEpRNyb+xeGcAoeWhRKAJYWvxs7FtJAmuUwl/JCcmyfzpxuS9a9hyEuW/G1+/YthNJCclKtUg1eYxWPjV3LuRBZ+iMsJlgHXbG6HPwk2Oofxd0VHMVqOjIaLnPHFh5vct+XKYmGyleXQ7WTfde/W7TfrT++MT7XwP6q3oUFJQg7R6Bni6yS3JiM9BpoYfO34Aexi5oO2iqLPX2uS6dY84CIsLoI7CrQGdEijQj1Urn4sS00tWmAN0bXbmgtIUXepm74EuzqRhg7wG/xZHYcyUL+28VIWTzRfSxC8DXdv742sYHvczdMDJgDaKvPILTnCj0sWQ8uoNYoh11FaB3M3JHT2NPSXrqTJjrcFbBplnrrYF+Fy9qnuF5cTleFn0M9JdV5RKHLkBvBB6WaUA/DOugw3/YQtcyRdtwuTxa5Sx/a+Ipg9239iGYMmMXrJ1XgBm3nQc74kszT1g7zseiiFO4eO8pfk4rh9mYWRjnsQ6Rx9Kw5cBNjPf9AdnVgPf8TQhdEYvIsynYdjwZ+iPDMHhoGL63mYavLILwhXmQxK93NQ9Al1ZA5/J1zA4lzFsDnXo6naSEOrXzf/SfKqGj1p6bsfTgQ8zSgL7rAabH5CA8+hHCd2RjUVQKNhxMxL5zKTh9NQlXbiXh5t00xCWnC9Azsh8hlzXRWUL3SamU0P1TFnqTdV6P+vp6NDQ04M2bN3j7thXQWzw8BCAtOkaTUHdlbDXD1ujEYsSIAIFU1uCgAUKFBL9Py5PfYWo8nZWMAqGVKQ8nvyvSzDvJXKRDjaClo1VxUr5WpuHcH1+feIC1z1iBkRX96KDjYEP9mvICV8Hh+REkLRshRA2e32GoIa1GvmemZ8nn1LYJlPLSCokIYUExhjfWEVA8D62fWKO85oWcN2FIsDGblOUNsjNzJNOTp87+4gDFJeqyM3LkGHSE8hiEF18sxcs+oCXNfmAVSM0Clg3Uf7gf3g8W2+JAyGMxq5YzD0aY3Eu9L/eIS7sx1lycmy3uSVM/tLxvanEy3hs6SlnzhQ5gSkzsG14b7x/7jKVutXOWey9LDdbIPeM2vH88P2rmv4Eys+1fNUipAm7Lvyluy0YNXrufTf2r9XPL93/yd/DngU4P96t6FBaU4N69LKQkZyA5KRMpSTm4l5yF9JQHSLqbitlLItDHwgNtBk2R0qlckPnTQHdvWgNUs9RFglGlFw3mTe8s98riUuZu6C7NHb2tvWHq/APmRV7F1vPZWHkoEc4LYvCVrQ++svZGDxNn2HoswZbT6QhceQxfWfsJ0LlQdSeuTqTrKAswdGZYo9o6CcxVqUjXVWYZn+s4QHOK3oqPw4tn1XheUoaXRaWoKy5CXbFiob+qLsermmq8b2CRbSC/9INo6EPCDsM6WAP6KQwLPIYRgUcwIvAQhvjuhqFo6FwA2hNtqD/ruTStDcrVhmiZM42eUsvY4O3YeioXjjNj0NvYG4OGhcF1dhRCVh7Aqj2XcfjGPey7/ABd+4/HWI81iDqehsgT8QhavAMl7wCPuZsxzOMHTA5Zh9F+q9HT0BVfmvriS7MA9DYJQHdjP3QzpXXu/y+AzggXNVxRe2eG62An/F/svXdwFGe2v//3r+p77921jcnBcb3rdcCYIJAIzsYJg8mgHAABAgUUyZgoCZEFEjmDABFNzlkICYXRBOUslHMA/PzqvDMjBhnb4LV3fW8xVafenpme7p6W+unPnPeE1t1teb7rKF7qN47Px4fz/c40/DdomRqZyOQNCXhuSFFA91unZc76WFbsvMH2o7FGoF96CPTYO1qSUwToWaSl5f7bgN4MXbnwjcwxIsVyWV4xweKRi9AECGOiialMrAlICgbmbZgmRQVcZreCWk3FhVvUKJcXH3chm7bZPMgNQiJMTBUCLV9XKl2B/WEVRjlmmXAUt1Gz66j5Q8YFpezlO5qPucX7sg258UmUh6hgS4g94uIwfU7WUQ/Td2yGY8vtttyfPLcEm+m8q/NmSghTx2r+nIymm5n5pvvwHDx6gzO/r7Yvx2HKYJWbgYRKmvcrNwP5mz7uRqPOj/n4ZN9mM79mOl61LfXd5QXjd3rkf8L4qvHzlp81L5u3+5jxXwJ6YoKWOPFxxoppuROrUUCXFOlZwZv45yfjfxboSqWLe8PK2POzo8Q19xG4W/iGzf50s49YFHtfJ17uZ8/L/ezoNMCZdh9MoP1HE3n1Kx8+dF/O2Flbmb3hDJtOGxjjv5Yeg73pYDWSPiP8CNkdQ1D4Gd78dKIC+Sv9neloZauALr7nV/u68oocR3dbOiqgy3v2tFNAl3GMyhR1mzaPSzeuUllWTGV+ATUqBv0h0OvKBOjicjEW50otuI/vylMM9N7DJ1ME6IcYODWaLyebgD55NwMnbKHPGIlDF6A706qn9Ay1a+4b2tbaXk1+StOIt77wwm3uXtYdTWeYx1q6feHD1EUH2He1kMAV0Xgu3kTYzh/YcDiGl7oNZZhbCFuPJnHsRjZr9l4mLg9Ge4by7mdu/OMjF978eAJvfeLBGwMm8aqNOy/1cVdVKrv0NQG9n9HlIrHuyo8u0S3NCl2A/miWqNx0nnt3BK26jeaFrqN47QN3vpoUyfc70/HfoMczMskI9I0p+G1Kx2+dhjnrY1ix8xo7jsRw6HQMpy7FcEEU+q0k/mNAN11Yj0BCXhPAWz7MF1rL0aQAlQq1/IzlssV2FPzNETOmWHKBZDNIH3MBy8cFLuoYLbalFmV9y2NqVuoSo26CuukYlWq1PC7z51pu83HPZV3TdpqP1bSefCf1kGMxrSMToc0Pk8vKDOXm12VBPmP5MLnBzEBUb8nXMJ0z+U4tz4M8V+fHFJffrM5b/GIxv66O0WK/cv7Vd/jRmPkrv2zERWTepvk7NR+rcrWZ3HfmYzefS8tRtic3XctzJ1/Z9GtFfdRyfctlOb6fsacH+o9QJz8ZcgqwBHqcAnoKibcTSU7QsmjZFnp87kq7bkMRdd66p6OyNj0daSONJXoaIyJk4kw6CSnr7YTyrZugLkrUbGryTwBv48RLNva81NdeVRJs23887Qa48/Lnnrxo7cwLPUYy0G0Bh+PKuJYL4+fv4LUPHOgmZWC3XWHxjpu89bmHClt8rf84OlvZ8qq1Ld+4fM8Yz5V8bjeXV63Fjz6G9ib/v3Q3EqiL+6XV24Nx9ZnPpetXqSi9S2V+PjVqQjSH6nxR6NnUlRVSW1HMg4YGpdANBffwWX6Cgd4Sg76bz70O8rnHfr6cHMU3k/fwzeRdDJywmT5jJPXfTdVxUe4WKzvVvLpNb1uee2+o+rXxlct8HAM38rnLEoZMWcP7X3kxbOIyzmsaic2DL5xnM8xjAct2n2Zd9A26vD+MIa5LOHApB00J7L+ciX/YPlUW982PXHnvyyn0+NaPdwd68/cPPHjFxp0ufSYYTYDedwKd+o5XiUvNk6IK5g+VeTvJDrUwaen3l7eH8cJ7o5TJZPa3UzYxb3sG/hsMeEYkM2VjEtO2GPDblIbf2mTmrr/Jyp1X2HboOgdP3+DkxZsq0uVqTCK34lN+XaGX/0oc+m9wuZgvGnWRyQVlflguy2uWF5t52byujCZ/uuVF37xsuZ581hKqAmB5brm/lhey6fPiWxY1rKB2z6iYZVnAIwA1A8s8mvcjsBJ/eEtFL+BSyS6m428+TGGVANTiIccoLppHYGTxfvOi5bE3v2iEU8ttWr79yLJsw+Ih+1W/AkzgVtuxWEe+r0BZjvFJ7JG/i+mmqj4nylw12jCqc3lN1pUIHfWLw3xKTH9DOafN50NeszTTsZr/BuavI9+jOZ5ePiJZr5afMy9bnscWy08NdNn5vXsPuFtUSnKSnngJK7udQvxtHXdup3D7RryqbbEqfDsffGlP567fqESeVr3GqTrfz3d34r/fkYbMEqfsQjtzXRUrgflDoJvVunlsBru1RMU40tnGUbkgBDKqGFU/qWMiIXyOvP6RCx/Yz2TLuTSu5kLwnuuM9luD97LDbDqTpQAmPnJVXMrKjm8dZ3Hudj6GMth3MZ3vJi6hTdfveOGdoaqNnvQUbd3Njg493XjxrZG4ei/m4rUrlJcUUpmfS01ujopwqc7PpKowywLoxkp5hoImvJf/oID+6VQBejSfeUTxlUcU33js5RuPXXzhvhnrMUt57n1HnpNknD5OtLV24PnuI2nVYyT//c8vGTZpMau2n2V+xA9qbmCI52oGjArELSCcq4YGQnde5r0vx+MQuIrIY7dZsu08bd4dxKBxS9hyUs/eSxnY+a2m+9eT+efH4/j7h+N448MJvPHhRF4fMJHX+k3kZVHo1hOMJkC3EaCPo6ONm4puafcIzB8FuRnq7XvL38dF3ZxFpf/9Uw9G+u1mzpZ0/CPT8IpMwXNTMtM26/HfmIZfeBILN8eydu81th26ysFT1zl54Qbnrt7mSkyCAnqSJg29tKEzuVykr2hRYTkld6soK62hstyYJVpd1YhYTXUjtTWN1NU20iAhag1ikvIvE6KP+s/v3zdFuZgvGMuxxQXzyAUvF8Pj3je/Zr5SzeuZn8v2n+RhPg7Z3s89zPsyryugMYOoWYUas0bNMFfjI+tZKPYW2/nZ79fyeH7pGFuu+3s+l/22PGZ5bj4vlu+b1/u1UY7P/HnzuuqcGhW0+TzKeRboqpuo+Xy2WE9B27yNlqN5H+bRtI1Hvk/Lz8hz8/qPGX8T0O/f+5G7d8vQJOu5E68lPk5MJinE7ZJImi6d6AMnmOAewJu9BtO66wja2XjQzmYSL/R04/n3nXmxhyttepigLrVUeslEmqOaLBWV3tKUK8Y0eWr2tTePJiUvEOnSz4mX+jvy2kfO9B3tz+yNp9h9NZcdl3JYtOM6kcdT6fVdgHKlSJr/633sCVi4mYu3MjhyScuOU3c4HneXaaEH6Dl4miqZ+3zXkbzQ1ZYOPd158Z+2uHoFc+HqFcqK86mUQlx52cp/Xp2fQVVhJnVlBdRW3OWB1Bq+/yOGgka8lh3jC59dfOa5h8+9pZbLXr6aEsUgjz0M8tjJFxNFoYfyl/fseKGHvXK3CNBf+ciNv38+gRe7DsJ9Zjjrd51i8qxwxvitYe7WKwyasABHn1DOJ5czZeE23vjIAbc5G4m6nsu2c2mqYmX/0dMZ6xfOaN9VvPfVZP4h2/xovIL56x+489oAd17tP5FXFdAF5uOVdbGZQGeb8XSyGUcHCUNsAXMpviUmIDdPcsvYrpeDmjf5y9vD1U16gN0CJg5MWF8AACAASURBVAWfZcZ6A37r0vBZr8Nrs4Zpm3QK6L7hiSzcfIt1e6+w9eAlok9e5cT5G5y9Esvlm3eIidPwy0B/mPb/E6BLBx1RPv9poFtCTC7EJ3nIeuYL+OfWt7yoLS5+s6o0w+dJxp+Fj+U+zMs/dzz/idfN58ni+/8Eepbv/dqy+Tu22O4fek5/7Zgs37c8vhbLvxnoxXfLSNGkknhHR0K8mIHEeJkYTUKToOX6tQR27jrGZP9l/PNDFxX5oKIfejsjPTubTVwvKinlUSi0BLrZFWNW7C1HUfAK6H1deKmfi/K1d+xtxwe2c5i4aB8zI84RsPoEUTeKGeGzRjVyeLHbEF63HsHi8AMcv5jMjJAtjJmygKU7LnLw5l2mh5/GZtRMky9YYtUn0votO1y9l3D+yiVKi/NU7ZaavCyq8zJ5CPR8aiuKeNAoQH+AoaABr7AjfDVtF5977WGg9wE+89jD11Oj+HbKHgZN2cmXEzdjYxuq6qA/9/5Ynus+mm7D/Bm3aC9DPVfwat8xBITuInL3Ob5zm8XsiJMsOxDPkEmLcZgWxqk7pdj7r+ZlmzG4ztnEscRKzuibGBsQQbdBnrzz5WS6fj2Zf3w6njc+GsffPhrP6x9Kl6IJvDpgAq/0d+flvhN4yWY8XazH0cXGaJ1txiFJSxLZYo5oaWP6e0nxLTGJaFHNt00RLvL3lBou73ztx1cTVzNh4SGC1t0maJ0ev7Vp+G7Q4705BZ9NOgLE5RKewMLNMazbe5mt0ZeIPnGV4+ev/+8AugCsxUXV/Pzn4CbrP8nDvN1fWte8jnk0X/hmtWdWjs1q/dHJQEvQPwO6xQ205fmUyetm9f3z59DyfMryE59T89/tSUbzsT1m/JeArk1JI0kaENzRk5hgIEnahcVruBOXTHJyBskpeZy+amDqvM30GOTFS9aSvDOGdj1GIREjbXramhog2NO216NK73FAb/maJdQfAl2SbCSyZTx/+3Ayr/V35/UB7rzzhRffTAxj7/VClu2PYaRvGK99NJLOPb8gcPF6Tl3RMX/VXvoNccdq0ESW7bnJiv13GDxllartLe3oOvaaRJu37U1Av0hpce4vAL2QB421cP8+hoJ6vMMO87XvLgZ672ag934+F5B7RjHYcy/fTt3Jl5OkBV0o7W3G8ReZTOw5hqF+6ziSVEvA6mO8N9CN79ceIWLvJT4cPpVle2+wcPtlpdBdgtZyMqGcYVNC6WI9Wk0Gb7mQxa6rBXzmukiFb3bp68CrH7jw1heTef0j6VY0ntc+GM+rA8bzSv/xvCzF0PqOVyDvbCMdoNxUuGFna6mnI+pcgG6q2aKALnMgEv3jiLlyZTupXGnlrKJj+oyaj/viY8zedIt5W+OYsT6BwLV6AtZl4LvBgM8WLb6b9c1AX7T5Juv2XGRb9MX/fUAX4D7m4volDv9u7z1uvy2h8IQgemL4yD7/TI/HnYOWr7U8J7/03PKzFuv93wZ6cRktgZ6cKPGzmWg1aSQkpJGsySU9rx5dwQOWbPiBT0ZPo0uPIbR/fzDtegyjXa9RtLUaQxsrW9pY2dHO6mF8uvknfEuIWz5vCXQj1CVj0k3B6W8fTlFuhI5W0nnIlr99NI6pS/dzSlfD3puZOM5ZwSt9vmKIow/X7+SjK4R1+69hM2QKr9mM5YOxM+n5nT8vfzCOztbjlUJv+44R6OcuXzACvSCLGlHneRnNCr22PI/aikLuWwDda+khvvHdzUCv3Xzuvc8C6Hv41lMU+kb6jA2mjZULz0nvUhsHXBft5U4lzFl/ij6DPVi04SQrdl6gx5dubDiWwIJNZ/l2/HwmzNnIqaQqvnD9ntc/dOJzt4W4zNvOII/ltO89llc/dOVlaT/Xz4lXP3BTKf2vfjBelVRQCVv9xiEF0USVC8AlKaiTlBvu46JMCm0JzFURLgVzSfWXOHMxcZe5qvmQDn3G8/IAD6xGLmDhTg3rTxcTvFdPwNrr+K2+TeBaA4ERmfhtSMV3q57A7RL1YjAq9E03WLv7AlsPXCD6xJUWCj1FuVx0hmzSJA5dZYqWGH3oxSYfekWdqcqi+NAfVlqsUy6XP9CHbgabJQTMy+b3/sjRvC/L0QJCymUjQH8C+z8NdDk/Lc/Lzz3/uXP5BOew5Xl+4nP6c8fyuNctj6/F8pMpdAkNktRoefwITY33KS+rQqdNJzlJlLmBpMRUkpPSSElOR5OURmJSBglJ2SSk5JGYehddXi1Rp2Jx8FpIx/cG0rbbV7zUd7Rqh9bG2lZFc7Tt9dPEIzPYLUcz1C2BLssCdCPMBVDjeUV8wv3cebnfBF7uJ5mmznTpa8sX7t+z6mgMp9PK2HTiJkOdfdkadYFD57X8EJPHJX09E+ZupXPvsbR+fwQvS3PlZqA74OK1mLOXzlNWkkdlQSY1JpibXS4C9JrKR4HuGXqQb/xkQnQXn3lFNQN9iOdeBnvtUgq99+jFakL0+R5jeaHnaEYERXKtAMJ2X2fUlFBCtl1k5pojvDnAloNXs5gbfojvJszHc/EujsaV0XOIl4q9f+OTcbwu8fcDxA3lyMv9XZS91N8FsVcGGLNujTCXm5+bOm9KjfeRyUznR0xcKgrmPR15vutYOvR2pb2VQNyZttKj1Woc//P2WN75agYu844SdiCT2ZsSmLs5SY0zN8QzI1JD0LpUgiKz8N+YzrQtevw26fGL1OMvLpeN1wnfdV4B/cDxKxw/d52zl8WHLlEuOpJSMtCl5pCWUUBW9l3y8kpbAL2WqipTPfRqM9Ab+LcB/Y+E9pNu2/LifhwIfutrlts1Lz/pMf271jMfl3l83H7N7z3t+FvP2y997mmP4QnXf3Kgm+Jhf1RNLu4poOt1GWiSUhFlnpyYpoCuSRbIp5uAnkVCcoZqIZaQks7tlCxOXEti8fp99B8hzSeG0sZqKK16j+J/ug2lTS/b5kxSiVO3zCi1BLp5WcBuCfVmhS6A6muEuoK5uBRU6QCpEDiav33qxMeu0/FZvYe9l7Xsllomp+JZFH6AyXPWM3/9KU4n1zJvwwU+sp+noNipj5tRob/rgLPnIs5cPEd56U+BXlmYSU1LoOfXMzUkmkF+EoO+i089LYDuZQL6xI1YjVrM892NE6LP9xjFIO+VnEltYvWBW3gt3E7ojit4LN7DG/3Gcib+LnNXRjHcfQHTQqOIjrnLu19N4m+fuPHKB+L2cKRzX0e69HM2zinIvEI/uaHJaKxiqeq/9HVVTUg6m1S5wFz5xE3Znkb/uLHglrhX2klp4V4udLKZQFsrV/7yji2te7jykdNKpi69yKKdBhbuMDBrQyKzNiQ128z1OqavS2d6ZDYBkh26WY/fRj1+EToCBOgbrrNmxzm27D/PgeOXTUCXei4moGsz0aXmmoBerIBeKFEuxZWUlZkaXFTVUV1dr6xGSsHW1lNXJ1Et/waF/jiA/Ltfs7zofwkmT/ue5XbNy//u7/Zr+zMfl3l83Prm9552fNrz9STrP+0xPOH6Tw90KWbTcI/y8ioM+kxSktOUItckiTJPpyXQE0WtJ2qIvxNPkj4NbXYRN3R5rNx7iu+mLuAfXzjzXK+h/Pd7Q2jda+zPA90EeEvItwS6WaV3thFwCciclCoXZS4uh1c+ENeDLDvx6ofO9Brhy4Q561m59QSLV+5iwer9TJwdyYej/Ph+wzlWRScywjucjtLDs7sDHXu6084C6BWl+T9R6AroZXlUVxRwr7GGH8WHnl+HZ8hBBvvvVS4XAfrAqXv51msf33lHMcRrd7NCl16iErL4XPeRfOYezMH4MracSiF4yxkWbjnHKL9w/vmRA1c0ZXy/YjeDXWYxynM5gWuO88bH4k5xUfbKB6LETcpcwVwigIznRaBujuuXm2CnPpLUZVTmSo2bSuAao44E5uIrN0avyPsK+qa0/1c/nMo3kzbgu/oG32/TMm+bjlkbk5mxXkzDzPUpzFyvZWZkKjMiMn8CdN9moF8jfPs5tj4D+uNQ9OSvmS/8J4HKk65j3qbl+ORH9O9Z80mOzXKdp1l+0vP0NOs9zf6fYt3fBHRRPAL0VEMWKZo0NAJ1cbWYzFKhJyXp0STEkZIYQ7ImgSS9gcSsAu4UVLPpTBz2c9byj28n8oLVSNpY/TzQzYrdPJoLfZndL0a4O6oqgZ1tHOjc156X+tvy8gAxe175QCAutdXdeeOTybwyYAKdrcfx5gAXvh7jwyffOjMrbCcrdl/m2/EL6DloKiO9V9Nv9EzaW9nS6j3JHp1Iu3cdcZ66UCn0yrKCxwK9uizXCPSGah7cu4chrw6v0IMMCYjiC6/dfOYZxRcyIeqzn6E++/nOew9fTdpEnzFLaNNb6pu7KaD3c5zHjis5HIktYMvxOwStOcLHLvPp/tUE4jJq+X7Zdj4d6U23LydhPSKALjb2SpkL1F//WNwu49VNTKJ+zDCXm53AXIFcwVwydY05AM0wVyVwH0Ydmc+5JFi16W5Lmx52qvtRtyGBjPDbxsIdWkL2ZhIUcQfvlTEERSYxPTKF6ZFaZqzXM2N9KjMiM5gRmf1YoAdK2OL6a4RvO8vWfec48INZocdy+UYiMeJyeabQnxyMjwPA08Cm5bqP296TH82fZ83HfY8nea3l+fg9nj/Jfn/DOr8OdEnNVT5040T+gwdQX39P/cxNTc0mJSXDBHIZjcsC9KSkDBKTskhKMpCckIAm4TYaTRIJySlci0vmmkTBFNZxPC4L/5W76PaNO1Jbpb3ApIc0kzAuy3PJ0DRmakrG5kNrb2VPh94OzdaxjxHonUxA79LfjpcG2PHyAAejKv/AlTc+kUbSU1WYnsRZ//2DcbzZdzQvvGrDF7b+RBy6zenkGkZ5r6JDz1H81z++5vmuw1UkR6dek5RCd5qykNMXzlJZ/utA/9EM9JCDfOcfxVeeu/lyapQKWRzibQH0yRKHvoR2fVzpPGA8f+02kp6jgog4qeVqZhMHb2bjEbyb97+bhs1wX2IzHzDt+y30GDiRjj1s6dzbgfa9bOlk48grA1wVzN/4xF0tG2HuRGcbJzqJWT8ssyC/ajo0A72lGhdVbnR9SR2eNj1sVeanJAtZj57L1OUnCD+ew4Id0jDjDn7hsQro3itiFcynR+qZEZmmYD49MofAyAIC1hcQsDEb/01pBG7QE7g2kRmrY1gccYm1W86wbe85Dhy7zA9nr3Pm0i0u3UggJk7bAuh3ycsvRVwuxSaXS0WFyYdudrnUtHS5SDy6KbGosYHGpoeFuVRi0YOnyMr78yDq8UfyOBD8KxB63PYev+c/96uP+x5P+tq/cv4e99kn3e9TrvfLQDdtzAx0+Z+/L339apsoKionO7uI1NRcdNpstCnZaDVZyn/+CNAT00lK0JKcoCEpUUtiko47iXruJKcTm5ROgj6fW8k5bD10k4F283ip93ief2s0L7w9hvbdnWjznj1tuznQ7n0H2neXKojmsrZ2qhxvB4G6ArvA3V65RzpZOyAqvYv4kJUf2Um5X0Spii/9lf4Sd2201/q78VpfBzp2/44uvYYz0HEW6w4nYqiD1YeS+dB+Hs93HUbr9+3p1EsUugO/BvSq0hyqyvNpqq/iQWMThtxafEIPMTxgH9967uFbj30MnrKPod4HGDbtAEN99vK1x2asxwbTtrcr7fo48T/vDuXvX0xi+vpTpDbArXyYtGQ3r37syt8/nYDbzO30HuTHK3ID6OWmEoE69zEqb6OfXNwrTsr1ZBxbAl2gLn1BZQLUmNSlXCsWri351SPwlr6wAnPJmJXXhnpHMmfLDRbsimPqstMErb9FYMRtAiPiCYxIIDAimemROqZHpDI9IoPp67IJiCjAb0MZAZsrmb61hFnb8pmzyYB/2BVmLz9P8NozrNt8iu17zxF97DLHm4F+h5h4LRp9Nob0fNKzisjOKya/sIyi4gpKS6sor6ihsqqOqup6ZdU1DdRIF5y6Buqkf2hjEw1NYo3N1niviab797j34D73f3yA/G+rx1NeQI8NV3zabfwrGHzaff2R6/8r3+Nf+ewf+Z3+l237yYEuNRykoMx9qK5pIr+gjGRNOhpNBikp4nrJIjkxg+RE46SoKPQkUeiJmSTcSTVFwkg0jF5ZssSsx6Uo08rEqq6U41cLmTjnAF0/9aHVm6No29WeNu/a0aarA+26OdKuu5j09hQFL5mbpjZy0lKutyXQHZUSNboXzBOBMhnoyssq5nqCGqUTkkR8iHWxceTV/o689YkLfUf4qabUB29XsOJgMl9PXMaL3ezobDWJtu844DhlgVLoVRWFj3G5ZKCAXpZPU10VP5qAPi30ECP89/Hd1D0MnbSPoR77GOYdbQF0qba4hOfes+XFHnb8tetw3vh8Ip7LD5INnE+rZ5T/Glr3GoV8r/e+DlBFtNp3d1M3mpesJ9G5zzgVcmj0j4saN7ugJBX/4fNO1sYiaEqZW8kkqDFD16zGZZSJZ5k0FRfLf705hBfeG02P74IYN/8A32+V2HKB+CWmrblAYORNAiNjCYyMJygykaBIDaLOp0ekMV385uty8Y8oYtqGCnw2VOK3voigyExmhicSEHyGeWHHCQs/QeTmU+zYc47oo1c4fuYGZ5VCj+dWvFZNiKZmFpCZc5ecghIK7pZzt6SS0vJqyitrHw90qd/S2EjDvaZHzAzzpgf3uffjA+7zo+Lyv8KUn3z2aUDwkw8/xQtPs58/et2nOOzfddU/+nv9L9r+UwO9yQLompQM1bHoxvVEYmNSjDB/DNATE9JISkglKdEI9OREPdrkNOJvJXH7ZgKJcsHqitBlNHDySh4LVv7AIPvv+VsfJ9q9N5YXu9rxQjdHnu/uSqsexjrb7XtIJUSL9nESwy5Q7+NAR2sBmShSy+xRY211SaAxR74I0EWxG9d15LUBTrzWT24Uw/nnZ+OYuGgv/mtOquSiR4DuMf+XgV6SQ2VZngK6VFw05NTiG3qYkQEC9L0Mm7yfoR77Ge4TzXBfUelRfDNlqwL6/7wzmlbdx/J8t5G8+vE4nOZsJQtYdzyZDx3n8GL3kcrF1LmPK+17ONO+hwudekl2p7uaE1Ax5OIbV64V6TrkoOYVzHAXt5TRzSLlFaQwmkStGF0t4iM3m/QFldh0afIsEUMf2i/BM+wkC7fHM3+bxJRfxnvlOXzXXCYwMobAyNsERt4hMDKJwMgUgiL1BEWkERSRQVCEKPQ8fCMK8V6bh/cqPT7L4vANvUTAkh/4ftlRlq09zoYtp9i17zyHj1/j1PkYzl+JQ4pz3U7UY8gwqvOsvBLyisooKqmkpKyKsooaKqrqqFTqvIGqmgaqaxupqWukVgG9icZ79xCIP7R7NN2//1Cd/6eB/r8IGL/LL5Jn3/fxiWi/w3n5zUAvKCwnPaOAq1fjOXniMmdPX1dQT1Lhi0YfulmhJz0W6KkK6PG3kpVKT4jTExebSnZ2LUm6Srbtv4nt5KW8/ckklcDyl25O/L/u4/mL1IBRfnWpY26EuhqVqjQqS+MEqQD9YTSHMUTP2HNTQb2/ObHGTal7cdN0sbbjZZuxvGQ9luff+VZVdOz2rQ9dv/GmXQ9HuvSerBS6gwno1RVFj1XolSXZVJTm0lhbqUroGnJq8As9zKiA/QwVoHvsZ9iUA4zwOaiAPtx3H4OmbsV6TDB/7TqW1r3sadVjNJ37O/HV5KUcSazBcfZm3vrSg3ZWtkjT7U69nelk5UInK1c69x6n1HlzUpAAXd3UBN4moKvnDuq5QF3OkYK5xJgL0KUCZg8xe6P1lI5Srrz9hS+Dp0QSuPYKKw+mM2djDNNWnsdnxXmmrbrEtNVXCIy4RYC4XCITCIhMIiAyhQCJXolIJTAinaCITAIjsvBbm4H3Si1TQ2KYNP8sHnMPE7D4EAuWH2bFumNs2naKqOhL/HDqJmcvxXH5RgI34jTc0aSTmllIZk4xOQWlFBRXUFxWTWl5jVGdC8xrWsK8ibqGJurF3WJS6M+A/jMZrb8DSJ6B/s9xbn8j0O9RWFRJTm4JMbeSOXHiEocOnub4DxdVs4tEUeNml0tSJkqhq8QjST4ylgi4E6dRKl2UuibRgDbRQOKtZFLiDWSkl5KRW8/52HxcAtbR9Ssv2lg589/dnflrDyfaqI5CxsYU0pyivUpIMiYliavADPTmGHWlWF1UZIaKT5c09/5ixgSbVz6Q0YXOfWRycTSv9LXn5b4OvNRXwhVH8eL7I1V9k5f6eCCZovaTjQq9uvIulSpT1JglKolFErZYWZJDRWkejbVVJqDXPgbo+xnhE80wn/1KoQ+auk350F943x7p3ymZsx37OtJ9qD9fui/l759OVJCWXyAS4SPt516WjFhrV7qIH1385yr80OhOMSpx44SxQN3yuZwfFV8u7hZJ1+/ppKxtD0davy91dgTm0unJg4mLjhO2L5WQPXqmLb+I74pL+K+6gu+qq/ivucGMSPGbm33nAnONCehaAiL0BEYaCIxMJXCdDr+VCXiHXGfy96eYMOMAE6fvZEbwARavOsSq9UfZuusU0UeucPJcLBevJXDtVgqxkrSmyyYt6y5ZeWXkFVZSVFJDSXmtSZ3XUllTR1VNPdW1RqsR33mDuFvMvnOT/7xZpT9T6M8A/OcA8O/9d3hioKsJUckSvQ+19Q8oK6+joLACnT5HqfQjh8+xc+chNm+O4tKlWDSaLHT6fDUK4FM0GehSMo1hjkkGUpJSEd+52fRJelITNBjuJJGSoCMpOYtEQykJ2U2EbL/Mh/Zzad3bgY4qEcaZTr3tadt9DG27j6Zjb4nG+GmWqaoCKEpUGmeYoN6prxud+45T1qWfsau9TCKqiUMbB16yseUlGzu6WNvTWdStTLT2tqdzbzceAfr5c1RXFlNZkP1I6r8AvaIkh/KyfBprq7nf0IQhW4B+xKjQPUWh72PYlH0M9z7AUO99CujfTt2GzdgQ2vSSrkQOqsZNW5kbkFLBfV0eVjOUYli97Olo5fCwD6qcF5NZRv2Yl403OSPcxV8uNVhEfUuUT6c+42jbQ0IXpS2fK//1j5G07ubEJ44rCNmtJ2S3gXmbEvFdcQ2PxWfxW3EN/5XX8V8VQ0C4FNxKJGhtMoFrNQSsS8E/QkyjLHB9CoHrZTmJaStuMn7WUcYFRDEuYCceM3cSuCiK4PBjrNxwjPXbT7Br/xkOHb/CmYtxXLmZzM04PfHJGaQY8snILiMnv5L8ohqKSuooLqulrKqGipoaKmtrqaqrU1ZTV0+tNIIW37maCLV0tZiXnwH99wbJs+39OW4QTwx0Fekik6IPQBrxVNfco7SsjpzcUpKSM7h4MZYDB06yYeMeNm/Zx7FjF7h1K8UIdm02Om2WMoM+m1R9tlGdPwJ0LemJiaQnxKNPTEaTpCdRm4M+v54bqVVsO61h/PztvPGJG399ezCtu42iQy9bI9QE6NJ3U3qWWvQtVfW5JZxPXAzWTnSQcD0babLshoBd6nx3lhuEGegSESOx3NZiDgroAnVlvwj0h9UWKxTQcykvK6BBAf0ehuy6ZqAP89zDMI+oZqBLYpH40L/13N4M9NYS791LzE4VLZNmIEpFS4lhZdI6z970/aXB9Vg6KLOlvZUdEs5pzqY1j+KmUW4W1RlKShdLXfkJdLGZqAD+/Dt2iL31eQDDPLcRFB7D3I2JzFgXh9/Km3iFXsEz+DK+y27gvzwG/5VxBKwRmKcQFK4jKFxqtujwX6fFd20yU5bfwm/dHXzXxjF52WVcZx/E0XsTLlPXMtFvPX5zt/N92D7CIg4TvuUom3efYM/BMxw+eYWzl8V3riEmPpU7miy0qYVk5VaQV1hD4d06iorruVtaS3l1LRW11VTW1VBZJ1Cvpaa+jrqG+odAb1blZpjL+AzozwD85wDw7/13eCKgy07FzaZU+gOjSq9vgKrqJu4WV5ORWUj8HQPnzt8k+uApNm7czYaNu4na94NS6xIFY9DnkmrIRa/PMcWuSzJSqskMqnGsPlmDPjkJbXIKmmQdCcmp3NZkkpRZSmJOFcdvGggM203f4X507CUNJ0RNy8SeTObZqs5I5r6l5uqNbVsAXTXEkKbKCurj6NTXVbV266xC/AToxpBHaaLRSRS6yTr3duWlPuJDt8N+8vecbqnQ88XtkkZFYQYVJbmUlwrQa7jfIEA3ulxGB+xDgD5cAT2K4T4H+M57H+JDH+y1AxvbEOVaMgLdThUtUyVqpRFIDzfa9XQ1VTZ0VB2XjBAfQwerUXSwGk17lZgl5RME6g8Tg5RCNwNd+czF1eLKy/0m08VmEq3ec+LFbs70Gx2C65yjzIyIY97GJKaGXDJa8BU8Q67hHXoD37Bb+C+/TcCKBAJXa5gebmD6mjSCwtMIWJuK/zo9vus0eK2Ow3PVTdyWnGZYwC6+mbCCse5hjPMIwztwLbMXbSNk1T5WREYTse0I26JOEnXkLEdPX+Xc1Xiu3U4hNjGVRG0W+oxCcgoqKLhbrdwt4nK5W1ZNRU2dUueVos7r66iuq6Omvt7kbjEq9Id+82dA/73h8Wx7f76bwtMDXWLRBer3oK7+AeUV9eQXlGNIzSMuXseVK7eJPniSiIhtrFi5nq1bozhz9hrxd/QYDHno9XncuWMgOVmqMaaSrDGYTIdGo0WjSSFZoyVZoyNRo+VmXAJxyVp0GTmk5xVxO7WYZTsvqxZs//hkonKJtOo6wghzi0bUjwN6e2tn2kvnHWnYIFBXKl2A7kynvk4I1KWYleWEotH/LK4XF7r0mUibd8ZiP3kepwToFRYul/x0qgtSqShMNwG9sBnoqQL0kEOM9o9iuOduhk+JYtjUKOVDH+qzjxF++xnivZO+tqGq2qIR6FKBcoyqN962xzjadXenXc9xqo6KRKV0EHeMlQnmvUcoqLeT0sSqHs6vAL2nM52t3enU250OvSTqZyof2C7Df9V1Fm3XM3djMr7L1Cwj0QAAIABJREFUb+Cx+CJTllxmypKreAbfwDv0Fn5hcfgvSyBghYagVXpmrElnxupMpq/JJCBc+oOm4rsuBe/weJwWnmTQtG18MG4Zn9jPY+y4BUzxCmbG7HAWL93GynVRrN6wj/U7j7Bj/0kOHDuvarhcvHmHm3e0xGlS0aRmkZZdSG5ROYUlVRSVilVSXF5lBLpytdRTXd9ATX0DtSbfeb24Wx6rzp8p9Gcg/vOB+Pf6mzwZ0E3fXyU8mYAu8ehm10txSTXZOcXKn347Xsu5CzfZd+AHwtdu4fv5y1iyJJzo6HPcvp2K3lBIcnKmimFP1qSRnCJmBrueZI2YGfKppOjS0admkZisJyFJhyGrlOxSiDqlwdErjL/1HsFfXv+Udu8PV/50UejShb6NlRNtejvTWhpqSC1vadBg7Uo7azdl7a2NDY872LioVnYdbZwwm/itlckEZG9TOGRvZzr3dqf126OxmzSXk+fOUlUuQJeORVlUK6AbLIBeZAR6vUmhhxxUQB/htYcRUwXsUYyYFs0jQLd7HNDl14co9HE/o9BHNyv0ZqArt4tRoZtjy80qvWNvF17uN4mOvd3569sSx+/OF27rWLYvk+BdqfivusmUYJn8vEnAqtv4rbiNT9gtBXOf0NtGmC9LImB5CkErU5m5Jo2Za/TMDNcyY62GwPAEfJZfw23eEb6ZtIaPHBfxqesiRnqE4uyxmGkBy5m7aCNhq/ewZmM04ZsPsGnPMXZGnyT6xAVOXY7hcmwit5J0JOjS0WbkkJFXRN5dAXolhSUVFJVVUlppUugWQBeY1zU2oWDeZKnIWy4/c7n8XgB5tp0/183hl4Eu0f/ia/kZoItKlwlSUekqjDGzgBRdFrfiUjh7/jpR+48Rvm4nISGbCF6yme3bfuD6tRQyMopJ1mSiE396Wi4GKSGglSQlccGY68KYSwnIRGqWSl6SbFS9LoeMtAIK8qu4fSeLpav30PszB9q9/RWt3hms/Mcd+7vTxmYCL1qPp5WycbxoPY7W1m606eNG2z4CdlfVI7O9tQui3MW/3sFGzIn21o7K795OfPO97ZW1t5IwwfG8+NYobCfO4cTZs1SWFRt7ijYDXU9FYRoVJXmUlwrQa7lvAfQxAVGM9NnL2GkHsPU/zEjfgwybtp+R/gf4zmcX/eyWNit0KVTWutdo2vQaq1S6sdKh+NIdVSkEsw+9gwpjlFBG8Z8/6kMXmEt253PvjmjO+JR4+r+8NZbn3nag13cLmLjwFEv3ZuC74irTll/FO+wKXkuv4BN2nWnLYvBdHovvsttMWxZPwIokFm7KYeZqA4HLtcxYlcb89RnMWZfIvPXxzI2IwXvxCUZODufjkTP5bMwMvnGaw3D3hTh6hjDZfznT569n4bKdLF27n9UbDxKx/Qhb951g79GzHD13lfM34rgWn8xtjYGk1Ez02flkFhSTX1xOUWmFAvrdskrKqmofVegNjdRawPxhZmhLmD9T6M8g/OeC8O/59/h1oBt5rvbZUqEL0OsbfqSqupHikiqyc4tJyywgWZdJzG0NZxTUz7Bhw1GWhuxi8cKNrF27h9Onb5KsySItvYC09Hx0+iwkSUmKe6UkSwXHLFKSc9AkZZssRz1PSc7FkJROekIyJekZ3M0pQpeSS/SxG4wcN4eXeo3guXeG0loiOD72opWNOy/YTOAF6wkK7ArqvV1VAay2fVxoa+2ManosvTL7OCuwt7ORaoeOiO9d+mW2MZn0PO1oNY5W/xzBWPfZHD9zlspSM9Czlf+8ukBnAfS7RqCbfOi+wdEI0Ef57MXWNxq7AAG6ZIruZ2TAY4De0wx0cbtI0TJTaWFV10YmRMVEYctonCQ1ToY+OilqqdBVLZauY5WrZYjHVgLXxLBwm5bpa2PxDL2E19LLCubeS68+BPoyAXocvsvu4L9c6q7oCFqRQtAKLXPC01mwQU/QyivMWHWOibN3MWL8Ur4YFcRnQ70ZNNqXkS4zcJz8PROmheA7dx1zQrexaPVewiIPsnrLETbu/oGdB88QffISJy/f5FJsAjcSNMRrU9GkZ2PIKSCrsJjC0goE5GIlFdVqQrSytp6qunqq6huofkSdP0zxl3T/n/rRnyn03xMiz7b157lB/HagPzCWAWhsgtq6e5RX1FJQVKbqbEiKdrJWoJ7CmXOxRO07T8S6aBYv2cDcuStZEryOfftOcCtWg96QR2paPlqdFPoyKvEUTTYaAbrZkoxwT0nKMQE9hRyNlrzUHApyy8nIrSH6dCLjAsN5+5NxvNB1BO37CJiN7hZxuTSbuGCUG8aZNtbOah2Be7tmt4y85kib3g4K5q2t7BGTPpkdrNxo9c/hRqCfPkuFAnqesUl0fhqPAr2Yhto606RoDb7BBxgbsJfR0/Zg62cE+ig/Y6boqMBohk7bTT97C4Xe01aVEzYqdONEp4KzqTiZEeRmsAvQH50ElfBESRySdnxdJK69hzGs850v/Rjtu5vZ6xNYuE1H0JpYJi062wx0gbl32DV8wm4yLeyWUuei0I1Qj8NvWRwBy+8wfUUCM1clMmNlDJ4LTzDGM5IvbOfz4VB/Phnqy1cj/fjOPhDb8XNx9VyMR+ByZizezPzluwgO38eKDYeI2P4DW6NOsffoBY6eu875m/HcSEjhlkyIG9LRZuWSll9Izt0S7pYLyKuUlUq4Ym0dlXVG37nAvKaxiboms7vlGdCfQfbPA9l/59/iXwa6xKXXNz5QmXrFpVXkF5WRlVesMvuStdnExOr44cR1du85xdqIvcxfuAbvafOYMXMJO3Ye4sqVeBXaqDfko9PlotXmkpKSS4omF43GPBrhLqrdkJxJdkoaORodGZpUUlOyMaSVUFAOZ2Pz8V28C6tvptKp52g69bZtrvHSvo8D7RSoHWnd24k2AntrAb4R+m17u6BUu3ou/ncHBfJHge5Kq38OMwH9HBWlJVTm51OTm2NS6FqTQs+nvLREAf2eUug1+C4RoO9RQLfzO4BdwCFG+R1ghN8BxgQdZJjvnhZAt6O19FyV6B2LxCmz4jaqciPIzcsyWfrQpOCWVFaUBhZuqlyw1fCZOMzYy5KdOhZuk/T7a4yfd4qJC87gGWpW5wLzG8rd8ijQRanfImBFLDPWxBG0IoZpSy4yYeYhRkyMxHpQID0+n4rN1558OsyXb22DGOk8E8fJC3D3DcV71mrmLt3OwlV7WBpxgDVbjrJx9yl2Rp9TLedOXo7lSryGOF0acToDyemZGHLyyCi8S25xKcWVVZRVVVNaJepcwhSN6ry6oUHBvNYEc6P//BnQ/50QebavP8/N418CusBcrKHpAbV1TZRX1XK3tErV2jBCvYCklCwuXrnDsRNX2b7rKGvW7iRkaSQ+PnMICFjAypWbOX78CsmaHPSGAmVanSh2sQK02gK0KfloU/KUeyUtJYs8QzZF6dlKoadqMki4k4Y2tZSSGtDnP2B91DW+GOPPPwfY8YrVSLr0GklnqzF07G2r/OFtrBxo3ceZ1tauRjOrdgG9MlHojo8AXTrdd7CyBPp5KkpLqcwvoCY31zQpqqVSfOjF+ZSXCNDruddwH0O2JdB3Y+u/H9uAg4yYto/hfvsZEySul13GKJdeLrTu6YBEurSWkrUyyStAtygbLMtmiD8czTA3glzi1aUpx/PvjlG1a76dHM6MyCssP5CqYsynLLmE+/wzTFxwjinBl/AMFd/5VbyXmoF+i2lhoszj8V0uk6OxBK66xZzIeOatj8Uv7Bxu03czyHkZbw2YTK+B07D+2of+g30YONKfYY6zGDt+Hm6eS/AIXKHcLfOX7yQ4PIqVGw8TueMkW/edJeroJY6dvcm563eISdKTlJ5NoiEdXVYOaXmFZBUVk19SRkllNWXVNcok/lwBXSJbTOq8tuke9coerar4zOXy54HNM/D/8X+LfxnojfceICZQr2u8R2lFNQXF5WTnF5OeVYA2NZvbd/RcuHybw0fPs23HIdas3U7o0vUEBS3Gy2su8+au4MCBs6Roxadegs5QhCHtLrl51RgMd9HrCtHr8knV5pKuzSZLl0WOLoMsXSaZuixStdmkJMvEagG6tDJ0GVVcupXFOO9g3rIeRqd3v6RL9+/o1HOEgvrz74/mRSsn2qrJ03G8aOVMaysBuKWJQn9obXpJvLvZ5TKH46fPU1FSRmV+4U+AXllcQEVJqQnoD1QcerNC9zUDPZrhPlFKoY+dLgp9Fza2wbTu6cyLPexVxcUXe0h7N1Hpdippqm0Pu+ZaK6qDkKlOvHFZgG6syyLt8iSN/y9vjeT1Dz1wmbOfeZtjmLv5Bl5hZ5gSfF6FJBrDEi8xVcWZX8Ur9BpeS6/hvVQmRGPxW56A/4ok/FfEq4iXGWtvsWjrHaaFnWCsTwQfj5lBzy89sf7ajw+GzODTETP52n4OI9zm4zB5MeO8Q/GcsZqA+RuYHbKNRSv3sCzyIOFbf2DTnjPsOniRgyeuc+pSHFdva4nTZpCclo0mLZvUHJkMNarzwvJKxM0iE6FiCujiPxegNzYiMK+7d5/6ewL1Z0B/Bs4/Hpx/1nP8LwHdCPP7NN67T4NcUI33kIkqmbQqKC4jO7+ItKw8NLoMYuNTuHD5FoeOnmP7zsNERO4hJGQ9s2Yuw9d3EQEBwUSu38+Vaxq0+iIM6cXoBeyGuxj0RaTqC0jT5ZGuy1EQF5ibLVOXSbo2E4MmE724YHR5aHWF3Lydwar1B/lmtCcvv/cVL/X4jpet7VR4YqtejvxPD2eet3LlhV5OvNjL4VF7BO6Oqst9M9AnCNAvUFFSTmWeAD3vUYV+N5+K4jIaahq41/AAfVbtQ5eL727G+u9jbKAR6CP9o7GdeUgB3XrsEiPQuzs0A12groBuAXMpomUZ9aKW1S8ISRhyUiCXdP4P7UOYvSGGuZtiCVx7ialLj+O+8BgeS87joeLLLzfD3DPkUaD7hAnQkwhcmcKMcA2zIhKYHn4dj0UHGTQ+mN6Dp/D+F870+caD/t/688mw2Xw1dh5DXRdiNzkYN+8wPAJX4jcvklkh21iwYjch4ftZtfGIUZ3vv0DUsWscOxvLhetJxCSkkiCT42k56DLzVKhiTlEJ+aXl3K0QV4sR5kao16kIFyPQxXcuQL/360C/L5OhZntWbfHPCqVnx/Xbb0i/DeimEgBN935U6twMdgF6TX0TFTX1FJc/hLohI5tkXRq34jVcuByjlPqOHUdYs3onwcEC9eVMmTKHqV7zCA3bpHzuicm5pIgyTxWwC9QLFdTT9bkK6Nm6DLK16eRo08jRpiPPs7TpZGrSSU9OQ1wzRQU1aPXFbN55Ejv3WbzdbxTtu32nOt+36zuOv/Z24zkFdEdaSYVDkym4WznRupczrXvJ6ETbXs4PFfqTAL2kjIbaRpoU0GvwC47GVnzootAD9mMrQJ8WhUyI2s06rIAuHYuUQldAf6jSZUKzuQqiqob4GKBLOKMo9J5O/P0TLwa6rcJn+XlC9+qYGXkD72VnmLT4COMXHMVDFLoAPfgKU0OuMDX0qjLPpaLQr+MlIYtht5m+SkITdQSuuINP6BVcZ+3nU7vv6fnNRLp+bk+3L8bS55sJDBjsx+cj5vKtwwJGTViCk2cY7n4r8JoRTtDCTcwL28WSNfuUOl9rUue7D13h8OlYTl28w7XbeuJSMklKzUGbmUdqTiFZBcXkFZdRWFZJcWXNI0AvrzYCXdwtEqooMFcKvelec2VFc4VFlVx0/x6NFiA3l85VtdB//JEHz8rn/mHlXJ/B+bfD+becu98M9PuqUNePNN03mkC9vvE+tQ33qK5vorxaoF5F/t0SMnJy0WdkkKxLJVZBPZbDRy6wZfMh1qzeTWjIZmbNWsEE9+k4Ofsw9/tV7I8+T0xsKjpxuSgTtV5IuiFfAV0gnqtNJU9raLZ8XSoFWgP5Gh05mlSy9TkU5VWRnlHGoeM3cPMJ5q2PpHG0Kx36T6BVv0k832ecUuhmmMv4Yi9HXlQwd1FQl4JZktzTsZfJ5fJrQC/Kp7KkjMa6RpoaH6DLqsE/WCJb9jLGbw92AfuxC4pmhG8Uo4OisZ99mGF+u+gzevFjgC6t30wlbZvHnwJdYN7JehzdB8/ELmgPMyNv8v3meLyWnmVq6Gmmhp7CI+QHVT3RI/gCHsGX8Qi5whQF82tMDb2GAnqYAP0Gvsvj+D4ykxkrtEyae5HhHjsYMOJ7/jHAibc/tqXH1/b0GTIW60GufPSdH1+NXsAw58XYTgrB1Xs5kwNX4zN7HTOXbGXBir2Eros2qvOdJ9mmGkHf5PTlJM5f03ArMYMEfS4pGfmk5hSRkXeXnKJS8iVUUSJbHnG31GEEej21jfdM6vy+BdAfX/tcIC4NLcx278ED7v/4o2pu8Qzo/17o/BZQPfvMk/2Nngro5nouDysvtgB6033qGu9T03CPqrpGdeEVl1eSW1ikoG5Iz0KjS+d2vI7LVxI4ceIG23f8wOrVu1i6dAuz56xk3PhARo2ZxMRJM9i4+SC3bqej0RaawF5Mmt4I9FxdOnm6VPIF4Fo9+VodhVo9hTKmaMlLMZCpSUWXlEZ6WiG5BTUkppYyM3Q71oPceclqOB16jaR9bztaK4C70KqnM616OvFiT1HmMjnpQhtlUmLWDPRhjG0GetkjLpeqAi0VBWmUF+Yp/3pDXSONjQ/QZlUroNsH7GWsBdBH+kUxdno0DrMPM9z3l4EuUG/Tw1jaVsrbtrUoeSslcF/uP1HB3H/1JZYfSGPe5njc5h1m0uITeC49w+TgE0xechzPsPNMCb3AlJDLTAm9wtSlV/Fceh3PsJt4hd3CKywW72W3CVh5hyWb0/BZfIkh49fz3me+dO4+hn/0t+e9zxywHuzCByPd+HikBwNHBTLEYQFjJoTgNHUZE3xX4jljLQHzNjA3ZAfBq/exYv0h1m0T3/lpdh+6zLFz8Vy+lcrVWANxmmySpCxEVhEZ+SVkFZSQV1xOYVkVxZW1lFYbIS4gN1q9cu0pdS7uFpPJpGiDamYhUH9oCuaqocUDBORmMwIdJL/ClD9nyrr4HQbZ4DN7dg7+zf8DTwx087+4Oj7pp6uKdD0EetN9mRz9kXqJeGm4R01dE1W1DSrypbisgvzCYjKzCzCk5ZCckkHMLS0XLsZz+Mhltm0/yuo1uwhdupmZs1cwecpsHJy8lc2es4Iz5+LRGkrQp5aRnCi+82yK0rIoTs/mbmoGhTqDAnmRVkuRTsddnY5CvYG81AyyU7PJSs8jI7OI9KwSsguq2R19Fkf3ALpaf8kr3b/lJVUOYAqteoznhe6utOs9gdbSSKOHC216OCtr28OFDj3deOHNYYwZP5sfTp2nvLiUitwCqnNyqcpLoyo/hfKCVMoKcqksLaexvkkBPSWzmoDgaBwE6L4PFfpo/33YCtBnCdB30mfUoscqdGlJ90K3sbzY3Z7WUg/eZG1lDuBdO17p78HgyRtYsitF2ewNsXiFnWP8/KNMDT2D59KzRgs7h2fYBaYuvcCUpReZuvQynmFX8Qq7ie/KO6pqYsBqHYFrUpm9ToPf0nN8OmYer0knqPeG8ve+trz3ifjNx/PhsMl8OnoKA8f68I1doHEi1COU8dNWMjVoLYHzNjF3yXaCV+5j1fojRG47wdaoc+w6eInoEzc5ceEOF25ouZmQQYIul5T0QtJySsgqLCenqIz8kkruVgjM6ymrrqeipoHKWqOJWKiWjkSmZCJJ95cJeQG6zOcoE0V+/4Gyew9+pKXJL0wxlSz3DOjPwPtvBu8fdbN/aqArsJuAfs/kbjG7XSSEsbHpR+ob7lNbf4+a2kbVGkx6PhaXVpJfWEpWtvjFc7mTlM6NGKn7EsehI5fYtuMYEZH7CA3bTNCMMNwnzcTW3pMRI93xCwhm+66T3LiVgU6bT4Y2i4LUTO6mZ3E3LZMifSp3dXruKqBrKdLrKDAYyE9NJzctk+z0bDLT88jKyKMw7y5p+jTOnT5HyOIQPvnGiTZvD+eF7u60tZpM+96TaW/lTpserrTt7mxhZqAPfTzQc9OoFKDnp1KaLw0uymhsaKKh8QGajCoj0P0fAt0+SDJH92E3PRrH2YcZMe1xQLenVXc7nu82lv/vjSFIe7oXezjTqpsjz70j1SVdsR65CJc5h5mzIY6ZkbcIDL+GzzJxqZxi0qITTAkxAT3sAp5hFy3sEp6S5h92FZ9ltwgKTyFgZQqBq/R4hSRj5xtN72/9eLP/aF7vM0yN3T51pOdAV/oPnsQnI7wYOGYaX9v5M9gpkNHu83DxDGWS32p8ZkQyc8FWFoTuYtmaaNZt/IFNO0+zK/oi+3+4zrFzcZy5ksSlWzpik7NIMuSjzywmI7eM7MIK8u5WUFhWTXFVHaXVDZTVNFgAvVH9+quuN7aYk65EzZ2JLIF+T2BuFBxS8lnMDHHL8RnQn/2S+KPg+p/Y7tMDXUrpCtDNRbrUxWJWQKa49MYH1DXcVypdOrBLv0cj1KtUc+nMrCJSdLnEJ2Y0Q/3w0cvs2nOSiPX7WRy8Hv/AYCZMnMGI0RMZPNSV8RNnsCp8D9euJqtIlwxNGpkaA/n6DMqycinSpxmVut6g1HmBIY38tAxy07PISc8mKyOXrPQcstKzyc4Q1Z7FrRu3WL52DwPHzKCLNFiWkrI27mo0NqR2pG13J5M506GnKy+8+RDoErbYrNBbAF0p9IZ7KpxTgB4YfBCngCjs/PZiH3QAhxkHGRu4D7sZ0TgJ0MXlYqnQzROj3e1p9b4d//32SJ5/z45W7zvyfFdpujGeAbahuC88ztyNd5gZGcvkJaeYvNhkS07hEXzaBPTzeIVdxivMGJYooYkSoijhiT5Lb+C77CYz1iQwKzwRjwUXGDx+K90G+tOx23A6vz+Iv1mPoOvHDvT8whXrbybw4dCpfDbKh6/s/PnOZQYjxs3GccoiJvquwHt6BEHzNjM/ZDchK/azZv0xNm0/w46oC0QdvsqRM7GcvpzIxZtarselcUcSydKLSMspJSu/gty7VeSXVCl1XlJd/wjQRZkbrUlNvkvP0EeBLurcGEarYG5S5pYANy+bQW4eRaD9ro//I4rvPwGlZ/v87TfZpwa6wPzHB0agm33pcpGYVZCMSqU3PjCq9LommqFeUUdxaTV5BeWkZhSisYD6+YvxHDl2hZ27T7A6fBffzw9nmt9i3CYE8s0QZz77Yiy2Dp4sX76Za5fjSbqdgj5RT64+g9LsAgoMGRTo05Xl69PJN6STn55JXnoWuRkC8Rwy07OUOk/VpSqw5+fkozEUsenATb4bH8p7n07mFSnI1XUUHd63pX13e9p1lz6bjoh7wwz00SaXi4Qt/hToBkrys40ul8b71Df9SHJGFdNDDuESuA97/ygcph/EceYhbIP2Yz8zGqc5PwN0BXUHWktrOPHtd3ekrZUbf/90Gl+5r1NulTkb4whae5OJi07ivvCEGictOsXkJaeZEnyWqSHn8Fp6USUMeS+NwWfpLXxCb+ETcotpoTH4hsbgH3aDmati8Fp0mkEuq/jngMm0eXsobd8ZROfug/l7v9G896kjvb50o/+QyXwywpuBY3wZ7DidMRPn4+CxiAm+y/CeuY7p87Ywb8kuQlZGszLiGBu2nWHnvsvsO3yd6OM3OXkxgQs3Urh2O5XYpCySUgvQZ5WQkSeulioKSmooLKuhuNKozh9V6GZ13kRNQxO1pp6hEl0l1tD00M0iQDf/T5ohLqMZ4C3HZ0D/7RB5BuA/z7n7bUA3KfRHgf7wAhJfuiQaqagXcb00Q72B8sp6iktqyM4txZBe1Az16zFazpy7TfShC2zYfJCQsE3MmLWMcROn4+Diy7CR7nw6cAyffDqCxYvWcOHsTdK02eSk5pGuSSfHIJmj2eQashTkcw0C82wF8xwF9Gwy0zLRSgRMpij1LNLFx55bxt1qOHYpjfF+K3nTehQv/O0z2r83lA7dR9Ne4sBVdIkj7Xs4///svXdU1fmd///n75zv+ZXd7GY3m012N8mkzSSTyYzjNKc41bGPvSsWFJBeBESkCUoHKYIFRFAURUWU3kUBEQXp9fbCpffq43fenwsjU3aTzWYz5oQ553Xe9yIz3vncz+fxeX6e71eRFPrWAx5kZBcy0N1Hn1rLwIyHPmu5dKnnAn2auo7+bwX6Lvfr7Pa8yV5v0ahrRqELS0WAXIL5bv5poTHEz4Q6f3mFG/t8bhFzR4NfYi12IYWY+WZiFZCHU/hdHMNE1WchNoEF2AYWYBdUiH1ICY6iAjTkAU7BlRwKqsQ5qBKX4Ae4BpfhHFiMk38uH6zz5KcLd/Gj323gPxZs4ge/Wc4vF23mtc/28ubyA7yzwoyP19vx+RYnVuxwYYOpJ3vsAjngFIqt+ykO+8bjE5hMQPg1Ik7f5nRCDkkpxaSmV5CeXUVGQTUF9xsprWzlQY2cJ806GtsNtCp7kIvxcp1icMUohr4RugZm1PngGL2DRstl1kcfGBFAnzT65uNT0rk2q8xnU2i/Dehfh/jc9/NAf36gNH+D+NO/i/820KXH0rkTjHhqTP96Otd2MeanC8UkoD4ys0k6ODRO/8AYPb2jaPQDdCi6aWrV8qROwcNHbdwrbyArr5IrqXnEnr3GiaCzOLsFc9DGiy07bFixZi8rVpvwyacbsbI6QvLFdOpq2lF2dCJrUaNVGFCL6fDNctqbOlC2q1B2KKUQCt1otcxaLkbbpb1dRX2jApl6gMonKsLP3mTx6gP83Qsf8OPX1/Pjt7ZK3Q5/9PYefrhwD//w4jq27D9KRlYhg2LIgkbPgEpsirbTr2mUPHQB9IHuXiYkhW4EunvwLUzdUjE5fA0T9zR2e9yaUedp7PNJZ7NIW9xyQoL2372yne8vMOFf3hRZNnv43qs7pPfv7wjEJiQf/+RGHMKLsQkpwCowH8uAPKwCjGrcTkBcikIjzIPRYPO6AAAgAElEQVSLcAguwSnkPofExKGgCg4FlOESWI57WAVOxwvYbHGOlxaZ84MX1/Efr27m5cV7ee0TU366YB2/W7yTN5bsZ9EKCxZ/Yc2KbS6s2uHK2t3ubDbzxsQ2gIOHI3DyPoO7/wX8Qq8QHH2dqHO3OZuYzaVrxdy4U0FGXjUF95oorezgQY2KmqZOGtt7aJGJ5moiE2oIXdcIXX3jdPeLGKNnQMB8nD5x3oj9mOGxGf9cqHOhyqelPQohHsRT4TOoC6X+TGDMKvS5AP/663mg/+kQmQfw83Ps/jSgz3x+SaELoEtQn00Hm818MXqZ4iKT2gJInvokg0MT9A2M09k1jFo3A/UWLTV1CiqqWikoqeHmnbskXEwnLCoJz2PR2B/yZ8ceJ9ZssmDDVis2b7NmwyZzTPcfIjjkHGVl9ei0Q8jaDcja9ShlehQdmplQo+hQSZaLQqZEhHzGQxcqXd4mo62pBa1Ki0rTJc0xvZpZhon9CX7x/ma+97vlfO+1dfzwrZ38y+smfO/X69hiepTMrCKGe4ckoPerVPRLQG+iV9NGt0rBQNd/AfSjadJGqImHUZ0LoG9xEZuix/n7V3by97/fyfdf3y1BXMD8Jx9Ystk5CefoUo6cqcQurBjLwLyZEEAvMAJdWCwB+dgFFmIfWIR9UBGOwSU4Bt/FKfgeh4QaD7qH4/EivCMqsffJ5AuTk/zufUteWLCTH/1mHS++vYs3Pz/IW59b8NLbW1nw8R7eXmrG+yst+WSdHat3uLHWxJ1N+73YftCPvfZB2Bw9hYtvHJ5BSfhHXCX8dBoxCRnEJ+dy5eZdbmVVkl1YS0l5G+VVSh7V6ahr6aZF1k+boh+5ZhBNp+gDNEp33zg9/eP0DIi017kwn7VbJhkWImFcPAHOAv3pDNBnoT4P9HnIPj+Q/Ut+F39GoBuV+mx62MT0U6SYEheZ0YIxbpROMjA0QVfvKHoBda0R6o0tWh7XyimtaCAzr4IrqbnExqUSEHoe16Ph7DFzY+MOW3buc8HCxofdpq5s2GLJjt32ePtFk5P/kNp6NR0dXSgUXSgVBhQyHQqZFqVMg1I2C3Wh0OVfhrK9HW1HM9qOJlSyDuRKDY1yA5lljdgej+Ptjbb88N1t/POb2/jB67skoG+eBXrfM6D3qTvo0zQbga5WfqnQRyamqe3o52jIbQ4cuc5ut1RJne/xSmf3DNBNjwmgJ7No6wn+4dVd/NPre/jnhXv59/cOsnCDN5sOJeJ2uhzP+Ec4RZZiITY+A0Vuef5MFGA9Y7HYBgiFbgS6Q1CxEeYhpRwSCj2kHOegYhx80zFzucDnm7z47SJTfv7adl58cw+/Xribtz615aMv3Hh/hQO//2APb3xmyqLlFnz4hQ2fb3JizS53Nu3zYruFH7ttAzF3DsfR+wxH/M9zLCyZkJjrMzDP49L1Em5mPiC78AmF95q4V9lBZY2aJ42dNHX00q4a+Ko67x2jp3/iD8Nc2HlSTDE2PsW4UOhS1fIs0IW4EOfjVzNbvq7K576fV+h/mwD8S8L2L/F3/fmAPmO9GIH+1U1S8fj7daXe2z/2DOq6AdoV3dQ3a6RJ7wV3H5N2p4SES3eIOnMVT79YzGy82bbXmX2Wnti5BGPrHMy+g56s22rNinX7sXP2J/VWKY+eKGiXdaPRDqCQC6gLxa6ToC7ZLjIFCpncGB1y1B3NdMvrMbQ+QtlSQ1tLA00yFapBKG4y4HshmyWWx/nZp2aSly4U+pdA7x+mV6OnT6XiGdDb6daoJKCPj08yLIDe3odn6B3M3G+y94jIaklnr/dtdnveYJ9PGvt909nqKoDuzz++ZsIP3jTl5x/b8aFJCBb+mXidf8SRMw+wDy+WQG4dXIBVUP5MiNfCMy/ELrAIuwCxFkrq3CFIqPNSnELucSi0jEOhFTj6Z7PNMox3PjflJ79bxb//ZiUvv2PCK4v28/oH1ny2xptVmwP55IsjvPGJGW9/bsZ7kjp3YOV2N9bv8WSbmdgIDeCAUxi2R2Nw9RPqPJETkVekTornU/JJvlnK9YwHZBU+obi8hbIqGeWP5Dyq01Lf2kW7oh+lbhiFdgCNYVjyzoXV0jsgqoy/TZlPGJW5aAI3F+hSquKzFEVxrs3aLfNAn4f0XwKiz9Pf8b8E9Fk/3bjOXmRzlXr/kHi0HqWrdxh91yAqXR8tMh2P6topraglK7+cKzfyiEu6zYmQBKyd/NltfhQzWz+c3COwcw3DwS0cK6cANu60571PNnPAypMLlzIlpW7omkCl7EUp75IsGGWHVrJeJE9dJkcpoN4hNk6b0bXW0i2ro1PegrKjjZbWDpoVnci6J2nonCK5sJ6ttoH89v1d/OjFZezY60JWViHD/cP0aHT0qlT0qmX0alro0XQ8A7rYOxif4klbrwR08zlA3+d9mz1eNxHqfL/vbba6XubdbQH8w6smkjJfan4Kp8i7HE+uxy6sEPvwImm1CRaqPBfroDysg/KxDhLqvBBbYa+E3EWocoegopkoxCmkkENh4s8KsAvIYY/LBV54fSPff2ExP35pGS++uZVXPzBlwWJz3l/mzJodgWzYHcZn69x581NzCejvr7JiyaZDrN3tySbTY+w86M9euxAsXaM4dOwcR/wTOBZ2iaCYa8Qk3iE5rYTrWSLfvIrCsnrKq9uoqlNQ+UTGkyYNTR1dyDUC5COoOgfRdQvvXHjm/5nNMrMJKiqRvwS6yCASG6KimGge6M8TVOY/y3d3I/0fAV08ps59bDV66U+ZlDZIn3nqc1W71D99chpRGCLKuEWf686ePqnlrlLXRWO7iqraVkrKaridfZ+LKbkER1zC0S2MA9a+WDoGcjw0mRPhl/ENvcgR3zMcdPTHxOwIqzaYs3mHDX4nTlP5sI3enqfo1IMoOgx0tKhpb5ajEuq7Q4GyQ0C9A3VHG9r2FnSS7dKOql0mpTTKOtS0d+holwuvt5fyqg78Tpxj4RvL2bPHhtzsIkZmgN6jUtGj7qBH3UK3up0erZrBnj7GRAuEsQmqW3vwCrsjDYPYJ6DudZv9vhlYBuZgdiJDAvqOI1dZanaKl1e6Se+FIneKLJEyWsTvWQWJXiwC5M9CFA2JtEQBc/ugYpzD7+Ee/YAjURU4h5VgH5iDa0Q+7qfy2Xc0iQ82u/PTN7fxo999wU9fXcdLb+9gwUcHeGuJNe+tcGTNrhPsto1lm/lJFq92YsHH+yWgL14t7BZn1uzyYKvZcXZJ3RTDsT5yCmffOLxDkjkeIcbKXSc26TaJqblcyyzmdv498suqKJuZEVrTIqdRpkWm6ZVUua5nFG33MAYB80HR1E2E2PyckDZBpYpQqQGXKO8XMBctckVMMybFTFXoHKD/d1IV556785bLdweh+RvAn+/Y/8lAF9ku3wp0BNBnYT67flWxj09NMzwuLtwRegYGMPT1ou8R5d7dtKu01DZ3UF7VQG7RQ1JuFhERew037xgO2gdg4RBIYOQ1QmJuEnzqugR1Z69obF2C2WnqysZtNuzY5cChQ/6k3SyhqV6LvK2L9mYN8jYNKpkGVYcSVYeAuwy1iA4B9g4pZ12kOs6Gqk2BqlWFWvx7LRoaqpo5FXKaM1FxlJc+YESUpqu1dKuUdKuFMm+hW9NBr07DUE8/Y2MT9I9O8LilG6/wDCw80jA9epN93nc44JvJwYAczI7fkQC+x+sG291SMDuewaGoUhwjSrAOzuVgQLYEfgF1Uf1pEySKhWYiMBe7wPwvNz+dQu/iJFIUgwtxCMzDKTiLw5HZbLILZ+EqK370+hq+96sl/MdrG3lx0W5e/cict5fZ8eFaVz7f4sEWizBMD51hi0Uw7yy35vVP9rNo2UE+WmvPsq0is8WTbeYn2GMTgrlzJHYepzl8POHL5ltiRui5y5lcvJnDjZxCMoruUvSgkoonNTxuaqK+Q0arWouyswdt9xD63hE6+0R6orBYBMSNIdISn8F8pj3ubL8WAfQpY7tm0bLZWOr/TKHPA/3PB4d50P71Hcs/K9BF17rZjJepp6KbnTGMzZBmoT7NxPS01Lt6cHSU3qFBuvpFV71e9L29KPRiw0xJVW0LJWVPuJ1TwemEdLxOnMPSMYj91scJjhad++4QfT6Tk2dv4RuahLvfaRwOh2Jh7cOu3YfYusUGW+tjJJ2/Q2VZM/K2brSKHlQyHSqZGpVMiUqmQC0ThUcC6sJPV6DuUD6LdiWqdjWqNhFaOkWaZXWrVNTU3iSjV99Dl0pDl0pJl1pGl6aVLo2MXp12BuiT9I9M8Li5G5+ITCy9brHf4xb7fTIw88vC/ESmBPP9frc54HdbgrsAuVDj5icyJP9cQF1S5zMwtw3K5VnkYR+Uj0NQAQ4i3zyoEIfgAhyD83EMzsXm+C3WW0Xw208PSG2D/+m3K/iX333BrxaZ8PuPzXlruR0frndjxS5fNluEss/pNGZucWwwC2ThZ+a8scSM91fZ8NlGJ1btPMJGUx92HAzA1D4cK7cYDvnE4xF0Cf/o65yMT+dMchaJN3JJySjkduE9cu9XcO9xNY+aGqlrF1OIFMh0nai7RGn/EJ1SvvkYvRLMRUO3CalTp+jW+WVr3AnRHvdZSEMspkQTLiPUBdClni3fUhU6V4H/odfzCv2vD17zN5xvfmd/ZqBjBPos2Gc3Sr+m2CeeTjM+PcXw+Bj9I2ISjeh53UvXQB+a7q4ZlS420ZooKH1CQnI2fkHCRw9mn6UvYbGic18u8VeKiLtcQOS5dEJOXcU3OIEjnlHYOfhjus+NdWvMOXjAk3Mx16m834yirUvKWVfJtEaoy1VGsAuYS3BXopapvhodGtTtWpStGhTNarrVffTq+jFoutEptBhUGgxqJQa1DIOmTQJ6n17HUK9Q6M+AfiwyCyvvdMy80jngm4XZ8WxMj92WLBUBc4uALAncFv5ZCLUufHWjOs+WbBahygXI7URvlpmwD8rDISgfx6B87APzJJi7nCzBPigH06MprNwfxguLRO78Kr7/m9X824KN/OKdnbzyibk0aWjxejeW7jjGugPBHDgcj7XnRQ56XGCt6Qle+Wgfby07yOK19izd6sqavZ5sPXgcE5ugGXV+Bjf/JPwiUwk5c4uYpCzOp+Zx5U4RtwrukVf2kLuPqqlqbKJBLpS5mla1BoWhG23PTGn/wCg9Q+P0CWU+ItouT0oFQ1IV6MzQ55HJcebG6OQEowLoM1A3Al2Iha/2a/lDAP/6n88D/ZtwmAfmX98x+d8H+qwFI6A+JwTQxYU6OCqGFQzQPdBH92A/ul7RoMlAU4eaqtp27j9sJjk1n4Cwi9i7hmNmc4KwmDTiLxdxOa2c5LQyElIKSbpWTMSZGxw7EYfL4XDsbP2xMPNh0zob9u50Ieh4PMV51bQ2alF26FHJ9KjkwoIRnroA+bfAXMBdAL1DKyl0uZiYVCdH3qRE06GVgN75DaDLkYAuLJfRZ0D3jcrG2icdcwF1v2zMT2RLBUWmx25JytwyMFsqGrIKzsXUNx3LoBxpE9RqVpkLeyVIKPKvhkNQHo5BeRwKzedwRDGuEYXscklk4UoX/r9ffsH//cJyvv+btfzr7zfzszd38ZvFZixcZs8H64+wbNdx1uwPZtPBkzj4XZOmKll5JrJqzzF++4EJ76yw4qP1jizf7saG/T7ssglin0MYVm6ncPKJxyskhbCzGUQlZBGXUsCltCJu5AhlXsW9x3U8bBA2i5x2nRalwYBMp0fd1Yuud0BqvCWabvUOj9MnLBZJlYscc2MYW+IKZf5NoI9NTUhtcmctl9msFgH12cyWrwP7D72fB/pfH7zmbzjf/M7+7ED/tgtHsmG+RbWLKTIj42MMDA/ROzhA9+AAnf39qLt6aFPqqG1WUFnTTnp2BZGnr3PILRLTg8c4cuwcV9IekFHYQFpuDamZD7l25wGXUks4cz6TkPAreHuf48jhGBxsQjiwx5NdWw9xcP9R0q4V0dqgRa/qRyNy1dtFhakOrVyDRq7+Sqhl6hmg69DKOtHJDOg6DOjEa3kneoUWvVKNXiUGacjQq9voVMvo0WkZ7OlldFSoz3EeNXdx/FQOtkJ1H7uDxYncmaIgseYYQ2x6BudiHZyHgLpNSB62ofnYigEVM4p8Vo2L1T4gFwFzW/9MHINy8IgpxSv2Lhuso/n5u/v4Pz/9nP/nhRX866vb+Ombe3jxAwsWLHHkXZFjvs6dz3ccZ6NFBHuc47HyvoJnRDY+0TmS5fLZVjepUnTRSms+2XCIlTvd2SCyW6wCvvTOj/hf5ETkTSLjszl7uZCLN0u5kV1B9t1H3K2qp6qhjZqWduplclrUKjp0OpSGLsR8UGkCkehtPjxGn2iFO6PMZ2FuHPZsnA86OjHO3Hg2iehZq9x5oH/zwp6H3d/mMflugD6j2sXgATGVfUhS6YN0D4qWqQPS2DG5lPGi4WFNG9kFVcRdyMTj2DnMrU/g5BZF0rVSskuayb7bzJ2CWm7n10h5z8nXSjl3PofwkzcIDrzKMc8LHLKPwMLUl3273LDYd4TYiGQq7zeiVfSibNehVXQaoS6afCmegV0CukwjtROQgC7vQi8TYUAvAV2HXqmZA/T2GaBrGOzp+QrQ/WNzsT+egaVfBpYB+YhcclHGL8D9LMR7Y0gwDxP9ywuwD87HQfLF83EKLuBQSCFuEXdxCMzFITCHQ2Lw8/E0Pt7mxb+/sZXv/+YL/vl36/jRa1v52Vt7eWmxFa9/7sz7a735bKs/n209zhf7wthpfxYLj8scCriFb0wBR8PvsNM+ksXrnVj4uTnvf2HLks0ufGHiyeYDwm4JltS587F4vEPFFKI7xFzIIzG1lGsZD8goekzRgzoqnrRQ0yKjrl1Ok0JJm0aDvLMTXW8fhoEhuodG6BkenYG5MSVRgrnwyyeMfc1FOuLYtwx8lkbKTU7MDLAwborOA/1vE17zN61vfu/fGdDFhunktLggJxkZEyp9mB6xQTo4KA0FVhv6aFXoefikTWoHcOlqISeCL2HlEIylQzCnL+SSc7eZu48U5Je1kH+/iYz8am7cecjlq/c5n1DI2TN5RISmc9znEkcOxWJrEcC2jXZYmLoTGhhPdsZ9muvF5qgOjVDpSr0Edo1Ci0ahQS1Xo5ZpJaBrJFU+A3R5F51yA3qFDmG56NVCocvRa9rp1AiFrmGgu4cRMbVpyKjQA07n4eCfgfXxTKwCBcwLsQktwCY0/6sRVoBNWAG2AubhhdiHFeIQIjY6BcgLcA4pxCW0kCMRJbiGFeIYmMNul2Te33CUf/n9Wv7+10v4p5dX8W8Lt/DzRQLmlixYaoT559uDWb03gtV7w9hiFct+t4s4nEjjaEQO/ufu4nTiGmtMj0uDn99eacWH64TdcoR1+3zYbhmAqWM4th6nORKQxImom0TE5XDucjGXb1VwK6+a3Ht1lD5qoqqxg/oOFU0KNW0aLfJOPeqeHgwDgxLMe2dg/sxmEfspxslDs+r8jwe6McNlrt0ibJdve1L8r342b7l8Ew7zwPzrOybfHdC/ptKFl947NET34JCk4sT4MZmmm0e17RTdq+VaWinh0ddxcI3A9KAfYafSJKA/ajJQVqPk/mOZ1MkvM6+WtPTHXLtWyZXkByScu8upk5kE+V3F8/A5bC382bXViV3bHDjiGkLa9QLqqluQt6vQKPRolZ1olHoE1NUS1LWo5Xo0cmGzGIHeKYCu6KJTqadTraVTraJTI6dT04FBI6dbq2agq5vh4XEpv/pRUxeBZ/JxDMjA5kQW1qKyM7QIGzEObgbgs6tteCFSnCzE7mQRDuHGoqBDwTMwF0APKeSwKDbyz2C7fQJvrfLgn367nu+9tIQfv7GKn7y9kRcW7eSlD81ZsNSJ99Z6s2R7MF/si2aj+Wk2HTzNbqcL2Phc50h4Dn5nSghJKMPSI5FPNh1mwZIDvL/Gjk83ubDaxJNNZn7sFoVER07hdCwOb9GA6/RtYpKKSLpeTmrmYzKL6yh60ET5E2G1KGhW6mjT6JF3GlD3dKPvH6BraPhLm6V/bIJBMVRczKEVvVmkPHOjOpdGyf0RCt04kciYPTXrnc+u/xW8v+3P5oH+1wev+RvON7+z/zHQxYXwh2JaTFafE9IsR1F89NSYwijmQA6NjtI3LEaODUlDgTv7hlDp+6iu76D4/hNuZtzj9PlbuB+LxWS/B34hyWSXNFAv6+Vxs45HjRrKqjsout9Cdl4jt2/Xkp5WR+qVRyTFl3I6KoewgOv4HI3D9qA/O7c6sWndQcz2uZCSnMnjyibkbQLoPWhV3agUOlQKzZehlguf3YBO3o1e0YVeYUCv1NGp1qDXKI1A17Zj0MjolkbQPQN6lQD62XycAjOx8c/GJrgQ27BibMILsQ4veBYnC7A5WSiFbUQRdpFFOJwswim0COeQIlxCinANFWsejoGZrNwXws8XmfK9X63hh7/fwK8W7+TXH+7glSUHeH25DQtXOPD+Og8+3xHIGtMoNlqcYYtVHCYOiVgcvYZLUBa+MSUEJ1QQdqGCfYfO8O4qO179eB8frXdi2XZ31u07xraDARxwjuSQ73ncAy9KaYoR8RnEXy3mWlYltwuryS9r4H51K48ahdWiok2tR6YzoOruQdffh2FwkN6RUfpHx6Viq2/CXEB9LtAnvtVyGZ+xWyYmJ2dGzM0AfU6PftE0TkD7D52XX//z+QEXf8JB+/pBnH//3z/x/ozH7H8G9Dl90aWL6D95PyUaJX1LSHNIJR9dAF2kMAqVPkzP4DBd/UNouwakdgAVj5vJKizn4rU7nAiLY+seZxzcIrh0o5jqFi3tukFq23XUtGipqtNRXqWl9J6K/Nx2MtMbuXmtmsuJ5cTF5hEZehNfz3gcbYLYv/sI2zfZsXrZXgL9zlFxv4nuznG69MMo5XoUMjVy0aFRIZfALjZRdYoedMoudMpOdCodeo0avUZBp1aOQdeBQSvDoFXS12VgcHiUrsFxHjYZvgJ0a9GvPKxYArnVyXysI0QUfCVsIgsR4SBlrtzD/WQZnlFiEEUpVsfSeGeNG//66ma+9+vl/PD3X/DiYhNe/nQ/ry615I2Vdixa68xHmz1YbhLI2gORbLY8ww67BPY5X8bGJx230AL8z1YQmfyE6Ms1eEfmst40gEUrbHh76UE+3XCIL0y82HzgBHvswrByP81h/yT8T92UslrOXyvkWtZ9MksekVdWw71qo9VS166mRaWnQ9eJwtCFtreXzoEBeoaHGRyfYGD825S5KON/BvNRyTsXQB//MgTIJycnmZwSMcXU1DSTk9NMTT2V5tuK808avjKHSX9WQP93/2N/xov0v31nmv+7v1Oofpff158O9NkLaNo4wUhMMfrPYnoK5saUSC+bGTJtbNo1KQ38HRwRQ4DFZPdhuvuH0PcMIlN3U9Mgo6i8itSMLCLPXcLczgdzu+NEnkul5GEDjYpOGuSd1HXoedJs4FFdFw+qOim7r6Ewr4PM2w3cvPaYy0n3STibT2ToDQnqTnbBmO4+yqa1tmzdYI+rUzCpKfkoZD2olT1o1F1otXp0Og06saq70Sp70Sq70Ko60aq16DRqdFoBdBkGXTsGnQC6gt6vAL2LoHMFHArKwiYgG2sxpPlkMdYRhVgJmEcWYB311bCJKsQm2gj0Q2EleJ96iGtIEdvszvPa545Gi+XXKySY/3zRBn7zkQmvLbXijZWOvLvWlY+3eLBitz/rzMLZbBXDTvt4TF0uY+2VhmtQHn6x5ZxMesKpKw2EnK/Awi2RpVuO8u5yG95bYc2SjS6s3+vLDstgzJyjsfeOxyPkMqFn73Dmch7J6SXcKiwjr7yK4ofVVNQ1UtMqo0mho11rMFot3d3o+vqkfZHekREGJyakGJJSE/8zq+XblfnEDNCnJJgbgT41B+jSuSdA9rz8Mw/Vv1mozgN9Ygboo2KAgZjwLloCiB4fw2gMAzR1aKmoriezsJiElFu4+USyz9ILr4BYbmTfpbpFRYu6h0ZFNw3tvdQ29fL4SRePH3dRfk9NYV4rmbdrSbv+kKuX73P+XA4RYdc45nUWJ/tgLM192bbZgc0brHCw9eVKcha1NUKV96AVfUfUnaiUnWhVvWgE0FXdaNUC6Dr0Wg2dOiWdOjkGfcdXgD4wPIphwKjQjUDPxFbkm4cWYXuyBJuIQmwi8rGJLMA2stAYUYXYRhViF1WEfXQRTpHFHI64i71fFiv3nORX71rwD79ay/d+tZp//u0afvLGZn7zoQkLllrwxkp7Fkkw92S5yQnWmYnNz1PstD+HqetFrL3TOBych0/0fcISazmT2krkpVpcA26zZo8/7660551lVnz4hT3Ltrix+YA/e+xOYuV+BtcToojoOlEXsklILSY1u4yse1WUPKrjXk09VY2t1HUoaVMLZd4jqXPNjDrvHhqib3T0zwr06aln6vxLmM8DfR6if+M30udHoY+KfOQxKfqHR6XGXd39I3T2DiPTdFHd1EZR+QOu3ckjMDIRc3tfHN2DOJN0g7LqFlrVvbSo+mhWDNDQNkBtQw/19b1UP+qk/L6Cwvwmsu5Uc/vWQ65eucv5c1lEhKXg5xOHh/spHO2D2L3LhS2bbbA09+D8uZuUlTbQ2iR6qnejkgvVbgS6Rih1jQGdRkenXotBr8KgV9Cl76BLL6wXBb3dBgaGRunsH6ey0UBwXAHOwbNAL8buZAm2JwuxjSjALqIA+8hCKRyiipAiuhhHEScLsPC+wdIdQfzHAhP+z78t5e9+vop/e20rP31jO79+dzevija3Esyd+WiLB8t3G2G+2SqanfZn2OeaiLXPdQ6H5OIbU0ZwQjWnU9s5n64gKO4BJvZneH+1Mws/teDtpVZ8vM6R1Ts92H5QqPNTOHifxyP0KiHnMjh9uYBL6fe5VfCQgspaKupbqahvpqa1gyaFBpm+G01P/5feeVSxdhgAACAASURBVNeQ8M6H6R/7MwN9eprpqafPngqfJ5iLp4S/cbDM//9/N+fAcwV00b9DlH0PjozTPzRKz8CIpNJV+l4aO5RUVD/hTn4pMfGiWddJHNwC8D8ZT2ZhFQ0d3bSph6RokQ/S1NZHU0svDQ1dVFdrKC9vp7Cwjtycam6nV3D1ShHn4+4QGZFCSPBFjnmfwdU5DAszLzZvtGHdF+b4+8aRl1WNvG2IHgNolAMzVowR6MKOEUDvnAG6odMI9C69UgJ6/+AI+t5RCeih5wtxDc3CPjgXu/C7OESW4hhZjFNkIU5RRcaILMI5qhjn6GIOCYUenoep51VeW+bE919cz9//YjX//JsN/Pj3W/nVor38/hNL3lhqx5vL7HlzuQMfb/ZkxR5/1pmHs8VaKPMzmLqKbJZU3EJz8I29T8iFamKutXI+XcXZ6+0cDc1j1S5/3lxiwxtLLFm03IbPNjizYa8ve+xER8WzuB6/yInoNGIvFZKQWkpqdiVZd6spfdxEdYucR41t1MuEOtejMvSh7xtE29tH50A/kjofGWFgbIyhiQkpZguIRsRw56/knc/mnn/NP5+YYHJigqnJSaYmp5ieEjEH6DP23/PitkifYx7o8ze17+AceK6APjw6gQhpqLQoCR8co7tvRNoc7VDpqGlopuj+Q66m5RISmcChI0Ec9jrJhSu5VNVp6dCMouycQK4boV0phmb00drRQ2NLJzV1ah48bKO4pJacnErSb5WSciWP8/G3OR1zg/DQyxz3PY+baxSWZn5sWmvPis8OYGMRSGryA9TyKZSyQZRyAfMeOvU96HWd6PVa9J0qOjsVGAwyugxyujuV9PUY6B8cRtM9xP0nasIvFON5qhC3U6U4n6rgUPR9PM5W4BP3AO9zFRw9fR+36BLcT5XidaYMx5AcVptH8u9v7uYfX1rHP764hh+8vIF/X7CNX76zl99+YM6rn9jw9vJDLF7rzmdbjrH2gBHkuxzPYXo4EUuvFJwC0vGIzMf/XDnhF2s5e6OD1OJ+Em6r8T11H1OnJJZs9uGVxWa8/ok5H6x2YPnWI2wy9eOAYyQOHnF4BacQdiaTc5dLSLlTSUZxLcWVTVQ8aeVxk4yGDhXtmk5UBtE1UzRbG8LQP0iPsFqGRxgYHZ3TbGsW4rO9zEXF5yQTE3NjgomJZzEL8+nJSQnmT6emefo8q/N5hT4P8+8A5uKp6DkE+iTDohRc9PcYEiPJRujsEQMwumhqk1NR9YT0rELOXUjF0y8Ke5cgfAPOk1vUwJOmbtrVQ8j1Q8h1/ci1fbSrRD/zThrFMOp6BQ8eNlFS8picnHJu3SomJSWXpMQsTsemER6awnHfRA4fimHfTh+2rHVj/SoXTHcGEh50nbLSZrTqPvS6PhQKLQqlCt0M0PUGBZ1dMgwC6AYV/b1GoKu7hrhXo+ZkUgleMUUcibmHS+wDXATQT5fjceouR6NLpPA8dRef2PtY+dzk850BvPDOPv7fF1bwDy+u5l9f3cDP3trJSx+YSsr8zWVOvLfKjU82+LB8RxBr951km/VpTBzjpYIha++rOAfdxjOqgID4CqJS6olLl3MxW09yjoHwpDrsfW6xbu9J3lvhwmsfW/COUOcbXaXslu3mAdgcOYP7iUsERaUTe6GQizfKySiqp+hBG+U1HTxqkFHXqqJDbUDd2Yu+exBDr9jQHpY2tsV+yMCMjSZ1TxwbZ3R8YiaEGp+F+DN4zwX57OvJiUkkmE9O8VTE14AuPd4/V/L8u3ncnrc55o/7cwv0YdFKVVLpo3T1DUsDMDqUGqrrmsnOv0fK9WxCIhI5dDgcR9dwziXmUnivlfq2bmT6AZSGAdSGARS6HjpUBtpkOppaVdTWtVP5sI6Su1Xk5N4jPb2Y1NQiEhNzOR17m/DQVPx8LnHI7jTWZlGYbPFnw0ovtm44gqdHFNk5pbS2qdDoulBptOg6tegNavRdSvQC6F0KerrUDPZ1ISwXtWGYezUaI9BjCzkSU2oEepQYRnEXz6hiPKNL8Dp1F/eTBew5lMh7a9z5yesm0ubnP720hv9YuIlfvrudlz8yZcESS95a4chHGzxZsuU4q0zC2Hgglh3WcexxuIDZ4UvYeIsc89t4RxfiH1dGZEo9CRkqLuV1kZChJfxiPa6BueyyjeezDcdY+KkNby6x5qO1h1i5w4NNB46z1y4cV98kTkSkEX0+n6TUCtJyail60CEVclU1KKltVdGiMNosuh4B86EZmI/QL8FcAH1U2hcRQB+ZA/PR8T8MdClNUbJZ5gB9JkXq6fQz/3we6PMgm7+ZGc+B5xfoMyq9X6j0ATFzcgCV6MLYKufu/Sqycu8Tl5COt28cDs7huPuc48rNch7UKmnTdaPuGUDXO4imqxelSKNT6miXqWlulVNb10zlwxpKSivIybvPnYxyrqWWkpiYT2xsBuGhtwjwTcPz8DWcrC9iuiOGNStcWLZ0N07OXly9foe6xlbUOj06gw591wzQu41A7+1SM9TXTf/AKGrDKPdqtIQnleAZW4hbbCnOQqELoEeW4BtTirfwzQMy2O0Qz+8WW/L9X67j7362ih+8uIEX3tjObz804fefmvD652a8tcKW99e4snyHP1/sDmOT2Wl22iRi6nQZc5cr2HpexzUwA5/oAgLPlxOeXE3cbRmX8ru4IJR5ciPOAbnstk9k5Y4gFi134dUPLXh3pQNLt7qzfp8vu6xDsHI7jU/odSLi8ki4WsaN7DoKymWUPdHwsEHLk1YdzQo9cl3PTG/zIbokZT5K//CYpMwlhT5iBPqwgLlU/WkEubG0/79W6ALoUpqi8M1nQqhzZiqHZtNk54E+D/R5oP81AH10koHhmVF1fYPoDL3IlDqqa5spq6jlRloJEVGpuHud5oClH5Gn08kpqaeuzYC6exh9/yD63h60XV2otXrkSg0dEtQV1Na3UVlVT0lpNfkF1dzJeMi11HskJhZwOjabU1E5BAek4+56CTurs5gfCGHDBjs++mQzW3dYER6ZwKOaVpSaLrSigMagR2PQoO/U0mPQM9DTS1//OKrOMUpngO51WgD9Ls6xFbhG38M75h4nTpficOwGq00C+dXb+/i//uVjvv+LNfzb77bwwkITXnpvL699up+FSw/w9kpr3lvjxMcbj7JmXygbzaLZYROPqfNlLN2vYed5jSMB6fhG5RMcf5/I5GpO32whKVfH+WwdYVdapErTPU4XWbUrhPdWuvHah1a8utiMT9aLJlzebDX3x+xQJIdPXJD6nJ+7UsCV2+Vk322gok7NwwY1Na1amhSiHW4Pmu6Z3ub9og2y6MkzzsDImFQoJorFhkbHGR6bkNT5LMTnrlLF59f8cuGZz/rmYhNU2gidAbpUwDAP9HmP+jvyqJ/3G8dzrdCFlz44IsaSjdEr8tJFOpymi4YmGVWPmikofMyVq4WERaTg5HqSwx6xEtSzChpokvWgMnSh79PT2WtAZ+iUoK5UG5Arumjv6KSpWUf1EwUlpfXk5ddIUE+9fp+Llwo5n5BLTOxtgkOu4uV9HqdDUZibB7Bt+xFWrbZk5WozLKy8KHvQgkZUlmr7aJNrUKr06DWd9Br6MXSN0q4aouSRhrDEYnzj73I4pgT7qFJcou5yNLIQS/dLLF5zmJ+8upUfv7xJAvkv39zDK4stpOyV99c4s2iVPYvXO7Nk21FW7vZjvVkou+zPstc5kYNHr2Lvd4vDgbfxCLlFwKlswuJLOZVcxbm0Zq4UGUjM1RN6pRGHkEJ2OCaxwewUH67xYMFH1rz87n4WfGjGx2udWL/Hm332YTgfO09g7HVikm+TfKeAO3crKX7UwIOGdmraVTQpRVl/D+ouAXOx8Tlu7GcunqpGxR7IBKNjxhgbn2R8YsoYX46Mmx0dN8XkpIjJL8OYyTJrsYjVqM6NvrlQ5/MK/XmHyvzn++6emJ57oAtAiPmSfYMjdPcOotP3Sh628MLLyhvIyKwgLiEDX//z2DuH4+p+mlNncymtaKOhXY6yU4m+txNDTxd6Qw9aXR9qTT8KVT8d8n6aW7upeiynrLyFopJ6cnJrSL9TwZXUQs4n3eHUmWsEh1/A69g5nF3OYGMTw46dPqxcZcvylQexsPIlJbWEuqZO5JpBWlp1aJQ9dOuH0OpGaJYNUFylJeJiKd5nivA4d58jcQ9xOlnATodzUrrgL97Ywc8WbOXnr2/nV2+a8MoH5ry51I7Faw/z2RZPPtl0lGU7j7FmfyCbrU+yy/E0+w8nYeFxBXu/m7iGZOIdmU3wmVxOJZYQl/qYi3daSM5VkZitxjfuAVbHM9h5OIWN1nEsXufFm5/Zs+AjS974xJIPVtrzxY6j7LYOwv7oaXzDUzidnMmlO7ncKS2l6NEjyhsaeNzaRqNKTYde9GjpQy888wGRxWKcNDQ8NsXI2BRj41OMj08xMT7F5ISxRH9icnpm/uczmE8ImH9Z+SmqP7+qxmdhLtZ5oH93kJgH9F/PsX+OgD7ByNgkI6PPYnhMVJDOqHQx3aZ/GENXPwqlnuZmBdXVbZTcfULqjWKiYlM57HkKO+cwPHwTSEwppKislrpWhbQxKjIwOoUN0zWE1jCIWmycavuRKXupb9JISv1hlYyy8jYKS+q5k13JleuFxCdlEH3mOsHhVzh2/BJHPZOwc4zCZK8Pa9bbsnSFKabmHsTGpXHvQSst7d2oVf3otcMoVMPUNvdSUKEi9molx+PucvR0CZZBWXxxMJoFn9vy09e28IuF23n5fVNeWXyABR9b8s4yBz5a58bn27xYaeLH6r3+bDAPZZtdNLudz7LfPRHrY6k4+N/CLSwbn5hCgkQDsisPSbhRQ9LtJpLutHLmRiO+Z+5x0OcGW+ziWXUgms+2B/DqxzYSzN9eYsNHqx1ZudWNHRYnsHGLxiMwkYj4dJJvl3DnbgVFjx5TXt/Ao9ZW6uQK2js7Ufb0ousboGvAOKRiUHxPomPi+BSjAuYT0wiAi14rUr+VyafSahzoLIAu4C5+55tAl3LMZ7NZ5qyS1fKlf/6s+5bo3yIBZz7LZd6GmT0X/obX5w/oMypPKD0RAhRCpYuMl/7BUXp6h9DpupHJNDQ1yamqaiYnr5KkKzkERSRz2DsGR/coPE+cN0L9XhN1zQYU2hH03ePoe0YQGRna7gE0XX0odT20tGtpbNFS16ih5omaB1Wiw2Mjt3MquXy9mLikLE6dTSc8Oo0AYcH4XsDRNQpTi2Ns3ObIp8t2s3OvK8ERyRSU1NHa1oNKNUxrxyCVTwxk3ZURd6MavzNFWBy7xpJ9IfxysTn/9toWfvXWTl798ABvLbXm3ZWOfCzmfG7xYpWJH2tNA9hgHsIW60h2OsSy1zWeA0eTsPRJwTUsC4+ofPzOlhKa9ICYqzVczu6Q4nxaIyeTKnEPz8bk0Hk2WsWwfE8I76334tVP7Xjp3f0s/FSU+DuyctsRth7wxcI5nCMn4gmKucb5q7ncLhI2Sx3l9Y08am2jTi6nRaOVYK7pH6BzcJie4TH6Rd3ATAvc0QmRWz41A/OnTE0+CwH2uUAXQylEc7a5Cn1aqv4UOebfDONG6Nzub88bwb/2ef6GoTKv6L87Rf/cAH1k1KjQR8emEPEVoI8Jb1akMY7RL1S6oQe1Skd7u4q6unbul9dyJ7uMC1eyCYm+got3DBaOgXgHJpJwpYT8e63UtvQi042i6hpF3T2EpkfEoOQDtym6aO0w0NxmoLHZwJMGHQ9rlBRJUH8oQT3+Yg5xiblExqYTEJqCl995nI9EY2kXwO4DHqzdZMOaTTbYHwomv6ieJ/UGqp50UnBfRmpWPTHJ5dj7XuHTbV787N19/Pj1rbz2mSVvfG7J28tsWLzmEMu2erJ+XyCbDoSw9WA4O2wiMREgdz7HfrcEzD0uctDnMvb+N/A9W0rghQdEpjzh7K1mkrLl3Lrfy6VshdQO1843lS1W0SzbdYJPtviw6IvDvPKxFb94y4RXFu/nvZV2rNjqxtb9xzjgEIzLsTP4R17m9MU7pGbdo7CyjoqGFh61tkvKXMBcLjZ/Z2E+0wpXNNoamZhmdGKasVllPtsJUTTPmgkB9AkB+znAN6r3GZtlpvrzW2H+FWU+C/WvAfR5ezsP9Pknhu/gHHhOgC4ALiYXTTI6Pv1lzCp0odKF9SImAA0Pj9Lf34/BYECt1tLWpqC2ro3yh41k5FUQfzmbExHJOHhEsdfmBC4+cZy6kEtmSTNVzV3Uy3tp0fTRpuunQ9+PvHMQuW6QDvUArfI+mtt7aGjpoqZRR0W1nEIB9dyHpNy8S1JKEQmX8jlzPovI2DQCwq5w2PM09i4n2W95nK27j7BxhzNm1ic4HpxMeGw6obHp+ISlssc2jFUmXryzyo5XPjXn9aVWfLjBhU83ubF0mwerdvmwbt8JtludZJdtNHscYzF1OYeFeyKO/jdwCkjDOTidw+GZeJ7KJ/BCBTE3Gkku1HGjrI+rJV0kZClxCclis/UpPt95nM+2HePTrd68u9qZ1z615Hcf7Oe1jw7w/ipbVmxzY+uBY5g7hnLY9ywnz90k4WouN3LKKKiopVLMBG2XS555u74TVU8v+oEhekbG6BsztsEdFmX7k9OMSepbKG6jtSJALTY7ZzNUjOszuBsh/5TpyW8q8blAf5bRMgvx2Rafz6nNMvem8h1czPPK+LtTxs/Lsf/OgS71RJ8UqlzAXHiw04zNQH0u0CXYi+yJ0TGGR4bo7+/BIDJX1Bra2hXUN8u5V1nPzewyYi9l4B2WxAGnEMydT+Lmn0j0xQJuFTdQ9EhOVauBOmU/jQLi2iHUPZNou6dQd06g0I7Srhyioa2bagH1xzIK7zdwJ6+KmxkVpNws5WJKEecv5hEbn0ngyWt4+1/ExeMsNk6RmFoGsnWvF1v2eLLTzJed5r6sM3Fn2eZDfL7ZWZrR+dnmw3y+zZ21psfZYBbIVssQdtqcZI/DKSwOx2PpnoiN1yXsfVNwDryJd3QeRyNzJJAfj79HREoN5zNlXC7UczFfS8S1BpxCstlsd47Pd4fwwUZv3l13lA82HOX9ta4sXGLFgo/NeOszCz5aY8fqnUfYbuHHQZdwjvjFEXLqGheu5nEz+z4FZU94UNfKkzYlTSoNHfpO1D2iL4sR5tKkITFdSIB8aprx6aeMT4kxcMI+mfXMBbxnNjlnNz2lbJVppieePos/BPQvM1rmAn3ORTsXoM/b63mgzyv07+Ac+MsAfTbbbM4qnqInp42qTnirxsrBacYnnkoxNvFUgrt4nB+RAD/FmMigGBtnbGyI4ZFe+vu7JaiLis0OlZbqxg4KKp5wJesukYm3OBxwFiv3k1i6R3A4IIHwhCyS0h+QXSbjfn0PD9tHqJWPINdPou0SMYVaP4FMPUKLYkCqOn3cqKW8WkZRWSO5JU+4k/eQmxnlpNy8R1JKCbHxOYSfysA/7CZeJ67i7JGAhUMEJub+bN/vx+a93qzd6c46Ew82mR5jm/i5ZRA7rELY4xDFfudYLNzOYXU0ATvvS7icSOVwYBruobfxjMjiWEwBQQnlBCaUE5pcRczNRhJyFCTmqoi4WodLeA7bneL4aPsJfrfUhddWurNwlTsLVx5m4XJH3lxuxxtLDvLuciuWrHdi/W4PTKwDsD4ShUfgBcLP3CTxWgF38ispLH/Cg9oWnrQpaBI5+3oxPu6bMB+efMqoAPnTp0w8hYmZ7/EZ0L8G89lmWpNPefplIPVjQZoZN9MgX5wUc2Pu1BRpeoVQ6PNA/8oxmHs85l9/9fz4GzwefxGgz1b0za6z16kY7CugLjIeBNDHJ58yMQkTU0jr2ORTREj+7Pg041KMMzY+yOh475dQ7+w2oO3qpkWh4UF9C5llj7iYUUj4heu4BZ/l4NFQDriGYOt9Gu+TNzh37SFpd9UU1AxT0TTCk9YBWmX9dCiH6FAN0aYYpFU1SJOin7r2bh4LpV4j415VC0VldeSW1JCR94jrtytJSrnPucRSTsWVEHaqgOOhGXj6p3LE7zIOR+Oxco7h4KFoLJ2jsXaNwdbtNHbuZ7F1P4edx3kcfS7ifDyFw4HXcQ+5hU9kNn6n8vE/UyRlroQlPSD6Wi2xN5uITWvm1M1GwlJq8IwtZqdzAu9v8uTFjy35+fuW/HyxPb9d6s5rK4/y2jIXXvnUhjeWWfP+aluWbXFh8z4vTO2CcPCIwSf0ElHxt0m+WUJW8WPKpfFx7dR3KGlRaaWJQxLMB7+qzI0wh7GnMC5g/lR8h+I7ezqj0I0wlzY4xSbnbMz2X5kEppgzxXmO+p49Mb5t/baL83lT5XM/z7d93vmf/c0D93/7Zvw/B/qsrflfrV+bZjR7vc6KMfG4LgpQJgTQBcz/INCHGRsfYHRskOGRQfpEm9b+AZSdXVIb1/u1jWTeqyQ5o4CTF1JxCzqN2eFAdtn6YeoYytHga8QkV3C9QElRVQ8lDzQ8eKTlcW0XTxr7qG0W6nyIJtkYDR0j1LYOUt3YTVW9hvIaGaUP2ygqaya7qIHrdx5z+UYVF1IecDapjOj4YsLP5BEck4XfyZt4BaVwNCAZDxGBl/EKuoJ3SApeIVc5GnQVj5Dr+ETcwu9UJv6ncwiJKyQsoYSTSfeITC4n+uojzt5q4sytFgITH2AXkMZ6y0jeXO3CL947wL8u2M6/vraNn76zjxc/seG3nzvy6nInFq5w5K2Vdnywxp4VO9zYZu6HmUMoDkej8QtP4tSFNK6kF5Nz9zEVNa00yLS0KHUSyJVd3Wik9reD9IiBI2Pj0kDn4clpRqaefgXmQp0bn7SMGSsia0XKXJmeYmpOGDNYnhpV+VemNP8RQP/6bLlZMM4F6PP2evYzzq/zEP8LngN/OtDFBfRHflDpepwL9bnX8JynbGMqm9GGEXCXxtMJr1akw43PxgTj40KljzI6NsqIGJwgZpEODtHZ249C10lDh5yK2kbyyx9xPfcuZ69mEBCbjLNfDLusvNls6oHFoQiCTmVxK6eNnCIFBXfVFN/XcbfCwN2KLgpKtdL6oHqQ6oZx6lrHqGsbpLqli8o6LfceKSiq6CD/fjuZRc3cyKrlcloVianlJFwrI+5KKbGXioi6kMfJ+Gwi4rOJPJ9LZEIeURfyibyQR8jZTMLP5xJ9sZjTKfeIu1HJlex6Em9XE5f2kOiUe/jH5eMams4Ox7N8sOkoL35ozk/eMpHip2/v5oW39/CLRfv49QemvPTJfl5ZasbClQd5d60tn211Zv1+b3bbBWN7NJYjJy5w/OQlTp2/xuW0LLKLyyh7XEdNSweNMjHYWYei04Cmuwd9X780Oq5neESaNjQwPs6Q2ASdfsqYeKoSqvxL20x46FNMTouYllYJ5k8nmXo6xTRTTD+d5ulT0VBrToj3MyENBH3eoPw/+Tx/5LXxx15D87/3x/Pmb/lY/c+A/sec8LPKfS7Qv+W1UO2znvpsjvJs3vLc3h9flpKLbn2iR8jYhDSPVDSCMkK9F6VOR1OHnKr6Zoof1pBeWMaFG9mEnk3B2ScKU1tf9hz0lTYxfQNTiUss53JqHdfvtHEzS87NTBnpWQru5KjIzNOQXaAnu0hJWl4Dt4vqyb7XTH5FO4WVcgorFeRXyMkt6yC7tI3MkhZuFTRyI7eOq1k1JN95xMX0hySlPSTp5kMSb1Zy4eYDEm484Pz1cuKulXEmpZSYK3eJvlREeEIu7iHJHDgcwcaDPizdeYQFy6z49fv7+ffXt/Mvr2zih7/fxE/e3MkvFu3lxQ8O8PKHFrzy6QEWrjzA22sP8OFmK1bsdmaL5THMXMNxOhaHT3gKoWduc+biHa6m55BfWsqDJzXUtrXRqlIhE5ksXTMzQAcGpcEUYrBz38xwCjEPdHhykrHpmY3QGd9cPF0JmE+I4c0C6E9nY5JJAXRECKhPP4P6HJB/CfQ/5lz6a/qdeaD/0YLvbxnAf+7/9/99oIsb6yzU/7N1pj3Hlxulc2AxW1U4C3exzuYzC7iL/tqiLatoz/oVqOs7aVGoqG5u597jejJLHpCclk9U/A28AuKwdg5h30E/TC0DsHc9LW1ohkTnEJNwn/OXH3HxWi2X5kRi6mPOpNzn7PUy4m9VkpjxiEtZT0jOqiM5q57LM3Elq4HkjDou3q7lws1q4lOrOJtSyZnLD4i9VE7UhVLC44sJOp2Hd9gt3Pyv4uidhJXbOfY5RkndDj/Z4MTrn+3nxXe38cKbW/jBb9fww5c3SIVIYuzcL942+f/bO/O3KM5sj88fcue5d364c2d5kkxmknGJSzbNGBWJikZRcUM2UUHcUEEwQcCgIi4QF+KGxiWK+64oQYkiLiioCLJvbS/Qezd87nOquqQxmMc7NwlGG57zvEV1N9BvVX3q9HnP+R7+MiCYNz8M453BkfQeEkW/EbMZND6aoZPnMiZ8KdPnpzL3iywS1uSwavNhNu+5wJ7DhRw5e428qze4ee8e9x8/5nFjA3VKM2cTLQrILUpTCpG/VSRwpdOQQ4W51e3uBLpSGCSfptpxtoupIBePXDXxzjWYq0DvoNMj10Cujb8lVr/Q/+oDug/oPXAO/CpA/6kLQAvHiIeuAl1dZFMXTNXFti6hGAGIp0BFRJ8E6gJ0kWcVqAuEFE/daKROp6OivoF70hjjzn3OF9zkyOmrbNtzmtT0HGIWryN4ZjLjJfMjPJWImPUsTNxB8tqjZGy6wIatl8iSkvrtV8jcdYX0nHzSci6zclceqTsvkro9j9RteaRk57Fi8wWSvj5HUtY5kjaeI2n9WZavPcWyVcdYuvIwsSsOMS9xP7OXSDplNpNnbWTExCSGjInnA7+F9PlkDm8PDOW/35nIf709jt+/NYb/eCuA3/9NxjH84Z1A/ue9KbzxfjBvfyQgj6DPp3N4338+gwMWMzRwMQEhcUyKSmTm0tUs+WorqVn7ycw5xa7D33PkoZAKNQAADeVJREFU/G0uXC2n8FYlJQ8eU1lbR11LC01Goye0YsFgtaoeuUfyts1uV+bVquSbu5U0RTXcIqmKntCYpCpKmEUDueKPi0+ufivhFtoF5Z7PzD91NrxCj2lv1zf6wP4rngMvB9C9YupKFpsnc0LLnvgR0D1Vh4rX7nQrOtveUG+VmLrZjL6tlSajnuqmZh5U1XKztIKrN+5zOq+YvbmXycw+RlJaDpHz1jA1fAVjJi9l1MQlTA5LYWHCdpYl7yV5zRHWZJ4hPfsCKdnn+CL7DIlbTrNs80nis06yZP0xFqzOZc6KvYQt28H0RVsJis5i4uwNjI/IYGzoGkZPT8NvYjKfjElgoN8ieg2O4u/vR/BmvxD+0mc6f3w3iD/8LZD/fHMcf+o1RRHoEpGuP/WZ7LEg/vzeZP7afwpvDJjK2x8E03/YbAaNWsCICcv4fHoKQTNTmBGTwtzEdJav3cba7INs2XuafccLOJF3m++LKrhZ2siDSpFBeELzEyNPWs0YLFZMNinh95hVbdQtvV2l96dV5teTc253qyAXmHcPdBXfXVEuwRbFN3+FaP0Cb+VXvIif3it9f/O1v3n0ONCVS0NCMZLJJl66l/2kl+4pZpGP/FLYYnNJsYsLizQidkiYQLrlCLBERMpEo15PtTTIqKznVmk1BUUPOXXhFnsO5pOedYjE1J3MWrCWiTMSGTUhluFjYhgVGMukGUmER2cQnZBN/PpcFm/IZeG6g8xPP8C81fuZ+9U+olK+ZeYXOYTGb2da7FZFROvzyHUEhKUzcsYq/KakMmhsAh+MXMKAEYvo82kM7w6ewz8/ieKdj2crUrlv9A/lr+8F89aAEMVTf2vADN7oP503+k/lrYHTFIj/c1AofYeEM3DYLIYELGB00DKmRKQROT+T+cs2EZ+6mbTMXWz99hgHTuRzMq+Yy9fKuH6ninvlTVTU6KltNKEzWJDGIWYR1XK6u5iS9y+5/1I85IG5TVJHPSmkDjeIqQui6rqHuhDajrtDA7oKcQG5ZnJ8X6svH1xfe7j2xI325QC658P4iwNd+7ivjgJ0qVoUs7ldWF0OrC4bFqeFNkcbrbY2jAJ2kyrI9bj+CWUVTRTfrSX/WjmHTlzjmz3nWZ15kPjkbUTFSmHQl4ybGseoCYsYGbiQ0VPjGB2+nIDZyYyPSSNoUQbBcVlELP+GsIRsgpdsZsrCLCbN28i4ORkERKYzMnwVfjNWMnRKMp8EJvLhmKUM+GwRff3m0WdYjLLdb8R8+g6LodenUbw7eBZ/l7j4R+G8+3GYYr0Gh/HekAgGDp/FYGlcPW4RoyfFMSkkibCoNSyI28LylG9JW7efr7cfJufgKY6du8LlH0ooulPBvfIGHlXpqG0wKUqTTwxWWtucWKyijijg7moavBV9Fg/ItX12rUbADS4xT5ZLV6B34FZA7pVq/noFW9T7lg/oPqD3wDnwUgNdvPVOaEi+c+fPWnWiEo5R0ugklU5MFu4kG8OOzW3F4jJjcZppc5gx2SzozRaajGZqW9qoqDNy71ELV25UcvrSXQ4cFy2Y86zJOkTciq1ExaYTPCuJoNBlBIbEMzQwmiET5jJ00jyGT16A/9TFjA1LZExIAiOnxeEXtJhPgxbjH/oFQ0MS+de0eAYFLeGjCbF8OH4hA8fOo9+oaPp+Noe+/rPpO2I2ffwi6T18Jr2HzaT3UGlqEU6/4ZG87z+Hj0ZFM3i0QFy88SVMCv2S0KhVzFm4ntiELXyZupuMjUfJ3nGRb7/L5/jZQi4WFFN0+wGl5XVU1uioazTR2GJGZ7BhaHU8hbnNJsVcUrTV1dRiLpSCLocLnjWtTsAb6O6ODo93rnnkXWEuaec+D90zCT1wkfeEp+j7mz1zvH8jQP/pUIyAXioWpRTd0dGOAxcOHNjbrdjaLVjdFqwuC2anlVa7DYPVjs5sp9Foo7rZTGmFjht36ykoquTM5bscOHaVrbtPsXbTAVLSd5KYuoWFieuZGplAYOhiAqbMY8SEOQz7fCZDx0YyJCCCQZ+F8MHw6fQfMZ1BQXMZOCmKfuMj6TsmnD4BYfQeHa7ayDB6fxZKL/8Q/jF0Ku8MnUav4cH0HRFC/5HhfPx5FP+aEIPflFhGT49TcuanRiYROW81sQmbSPoqh9XrDpK15SQ7d1/i8NFizl94yJXCCm7eqaSsvJqq2hYam03onpjRG6wYTHZMHpibLS5sVjc2mywod0otaJILAnAN2j81dgE63Xvl3vVDPqD3zAXuA+vrNe+/s9vtvAxms9uxKsJbNkxtZqx2h6KfrXnl3cXWJW9dNRXoTkVbpB1nhxtnhxNHhx17hw17uw2b24bVZcfslKpHJ612FwabG12bk5rmNh7VGiitaKa4tJYrxeXkX1MXT3NPfs+u/afZuPUAKzO2s3zlJmITM4iOXUl49BdMmrGAwKnzGDspilHjZ+E3PpIhgZF8PC6CDwJCGDAymP7+0+nnP43+/sEM8NhA/2De95/Bx6PDGDJuFn4T5zJqygLGh8UTFLmc4OhkIhasInrxGhYv38CKtGw2bDrAjj2nOZCbz4nTReTll1J0s4b7D/U8rpYuTE+UvqsGk5U2s3jjdi9zKPssFmkNp0oUK0BXCrikiEu1p9ILWsXuc0btuMj8K8emmzCLD+ivF0x8N4+eP96/i4+P52WyuPh4xL5KS+OH69cVqHvD3HtbA4a2z+UpTnIpYPdAHScOsQ4Xjg4Jx7ixtbdjbQerGywuMNpc6NrsijZ6RV0LZZX1lD6q407ZY67dvM+lK7c4faGQI6cus+/QWbblHCZzy17WbtxJStomklIySfxyA/GJ0tc0nflLVxMV+xWR81OImCux7i+JmLuCmTHJRMakKDZzbjLhUUnMksyURatYGJfBksSNJKzYTPKqHazduJ/N3xxnx+5T5Ow7Qe7x85y79ANXrpcoIZWSsiqlMUdV3RMamtto0VvQmyyY2qyYLQ5sNim8klZwkuYpGjmd0NaqbpWuQU/TD7V1CS2s1V3KqHfYq/N52vyLRIsaP5fQS9ewi89D7/mL3QfcV/8YvLRA16AunvpTYHhlwMg+gYaAQnu802sEDepK+KXDrYZiJByjhGVUcSkRmLJ1gLW9A6mENFpt6FrNNOqNNOoMVNc387CihpLSRxTfvq9YQeEtzl8s5NjJSxzMPcO+/cfZs+cIO3fmsm3bIbK3fsfmTfvJzNzL+nW7WZu+i/Q1O8lYm8O6jN1etoeNG/ay6evv+Cb7CDt3nGDP7jPs23ue3EP5nDp5nbyLJRQUlFBQWEzRrduU3H/Ag4pKHlVVU9PQSEOLDp3RpOTdmyxW2qw2LDaH0qDZbnfhEH0cJWdfbQmnVeAqUgrSuFnSP58BuvaJR8ZnH5Ofu8yxZ01Dm39lfE74xQf0Vx8mvhtGzx/jlxroAnWLza4A+1mPT4O5gEJ7zBss4q07FYALxDWQq5KvohL4rIlGidXdruiVtNocSkqfodVKk7Spq2umoqqe6loBfC33yiopvlXG1cJbXLl6i/z8Yi5evM65cz9w5kwhp05d5cSJAo4evUxubh6HDl7kcO4ljhy+zJHD+YodPfI9J08WcvZsEXl5tyn4vpTCwgdc++EhN25UcOdODWVlDZQ/auRRZT1VtQ3UNjTT0KyjUadHZzBhaG2j1WLDLKEqu0MpsJLK2afyCJ7uQNLfU4HxM/BWgC3g9jIBtsyjCu5nH3sBoMtN1+uYaMfGB/Sev9h9wH31j8ErBXSBhzfUJaaueuTa+GOQPwt2tWGDLPKpi4NWmxtjqxWdvhWJTcvY1GKkrr6Fisf1VFQ28LC8jrL71dy995iSu5WUlDzm9p1KiovLuV50n2vXyigqElCXc+PGI8WKix9x61Yld+/W8OBBI5WVT6iqNlBVpae6Wk9tnZEGSTVsbuOJ3oLBaFX+D+mr2mq20eYBuXyCkaIqBeROlypkpnjfmgfugbmy3qCB+vmj9/x15413t8/7Ncq2D+i+lD25g/vsV5+D3yTQuztPNE/QGy5K8wWPZveLbotct/wu7Uu2BWKapox0VRJBMLPVganVit5oQac309xiorHJQGOTkcYm2TZRV6+nukZHVXULNVLUU2t4ajW1BqqqddTVGWlqtqDXOzCaXOgNDvQGO3qDNMS2YTSJomS7x7Req6Jho+rYqKP6s7fejbrdGVLpDKU8H+byPr3nrzt4d7fP+zU+oHvOnO5OUt++Xx1wr9tN5aUHutVufxpSEbh6XxMadGWfBnTv8UegeSYG/9zHvXowKAt9yuskpqx2rreL6qDom4gwmN2hxK0ldm2WsnmzjdY2G6ZWm+JRG01WDEaLkj4onrZiBrkRWDGa7LRJGqEdHM5OsztATMkTt3t6rHp6rqp9V1VPXG4yWpaJgFZVPhSIa9Z9iESD8nPf/4vO0/Oe183xkGP0Wn15n6i+7a4Xrm8+frH5+M0C3RsOcn54g1zb/n8By7O4J1kbT61D1foWqViH24nd5ehqTgc2MYeYGgZRoe/EYnvW5IYgYRHp9NO185oGXG1UFyc1SKuj9pj3e1S9cIG4tz3fI/d+7c+9rR0DbZRj9Fp9+aD1i0Gri1fnm+cu8+wDendepif97inIFaiLTol8qzrfrnYnznaHx+w42zWTfU5FH1zAr5obh7urqQ0hJIfbk8fd3f/RZZ/23Bd9ftfwyb8DbA3GP8f4iwL9ebLM/4f9CiR+zjuODzRdQPNvQfjnOPFes9/xv9rcyc5QVSUzAAAAAElFTkSuQmCC;" vertex="1" parent="WIyWlLk6GJQsqaUBKTNV-1">
          <mxGeometry x="290" y="262" width="180.48" height="98" as="geometry" />
        </mxCell>
        <mxCell id="_Lx0LoCC1SIo9x9nNZ3i-11" value="" style="endArrow=classic;startArrow=classic;html=1;" edge="1" parent="WIyWlLk6GJQsqaUBKTNV-1">
          <mxGeometry width="50" height="50" relative="1" as="geometry">
            <mxPoint x="400" y="260" as="sourcePoint" />
            <mxPoint x="400" y="150" as="targetPoint" />
          </mxGeometry>
        </mxCell>
        <mxCell id="_Lx0LoCC1SIo9x9nNZ3i-12" value="" style="endArrow=classic;startArrow=classic;html=1;" edge="1" parent="WIyWlLk6GJQsqaUBKTNV-1">
          <mxGeometry width="50" height="50" relative="1" as="geometry">
            <mxPoint x="460" y="260" as="sourcePoint" />
            <mxPoint x="650" y="150" as="targetPoint" />
          </mxGeometry>
        </mxCell>
        <mxCell id="_Lx0LoCC1SIo9x9nNZ3i-14" value="" style="endArrow=classic;startArrow=classic;html=1;" edge="1" parent="WIyWlLk6GJQsqaUBKTNV-1">
          <mxGeometry width="50" height="50" relative="1" as="geometry">
            <mxPoint x="120" y="148" as="sourcePoint" />
            <mxPoint x="320" y="260" as="targetPoint" />
          </mxGeometry>
        </mxCell>
        <mxCell id="_Lx0LoCC1SIo9x9nNZ3i-15" value="" style="endArrow=classic;startArrow=none;html=1;exitX=0.653;exitY=-0.007;exitDx=0;exitDy=0;exitPerimeter=0;entryX=0.151;entryY=1.031;entryDx=0;entryDy=0;entryPerimeter=0;" edge="1" parent="WIyWlLk6GJQsqaUBKTNV-1" source="_Lx0LoCC1SIo9x9nNZ3i-22" target="_Lx0LoCC1SIo9x9nNZ3i-1">
          <mxGeometry width="50" height="50" relative="1" as="geometry">
            <mxPoint x="140" y="400" as="sourcePoint" />
            <mxPoint x="280" y="330" as="targetPoint" />
          </mxGeometry>
        </mxCell>
        <mxCell id="_Lx0LoCC1SIo9x9nNZ3i-16" value="" style="endArrow=classic;startArrow=none;html=1;exitX=0.422;exitY=0.035;exitDx=0;exitDy=0;exitPerimeter=0;" edge="1" parent="WIyWlLk6GJQsqaUBKTNV-1" source="_Lx0LoCC1SIo9x9nNZ3i-24">
          <mxGeometry width="50" height="50" relative="1" as="geometry">
            <mxPoint x="400" y="400" as="sourcePoint" />
            <mxPoint x="390" y="360" as="targetPoint" />
          </mxGeometry>
        </mxCell>
        <mxCell id="_Lx0LoCC1SIo9x9nNZ3i-17" value="" style="endArrow=classic;startArrow=none;html=1;entryX=0.953;entryY=0.998;entryDx=0;entryDy=0;entryPerimeter=0;exitX=0.5;exitY=0;exitDx=0;exitDy=0;" edge="1" parent="WIyWlLk6GJQsqaUBKTNV-1" source="_Lx0LoCC1SIo9x9nNZ3i-25" target="_Lx0LoCC1SIo9x9nNZ3i-1">
          <mxGeometry width="50" height="50" relative="1" as="geometry">
            <mxPoint x="700" y="500" as="sourcePoint" />
            <mxPoint x="640" y="400" as="targetPoint" />
          </mxGeometry>
        </mxCell>
        <mxCell id="_Lx0LoCC1SIo9x9nNZ3i-19" value="&lt;b&gt;POSTEDEV1 :&amp;nbsp;192.168.1.18&amp;nbsp;&lt;/b&gt;" style="text;html=1;strokeColor=none;fillColor=none;align=center;verticalAlign=middle;whiteSpace=wrap;rounded=0;" vertex="1" parent="WIyWlLk6GJQsqaUBKTNV-1">
          <mxGeometry x="120" y="170" width="160" height="40" as="geometry" />
        </mxCell>
        <mxCell id="_Lx0LoCC1SIo9x9nNZ3i-20" value="&lt;b&gt;POSTEDEV2 :&amp;nbsp;192.168.1.19&amp;nbsp;&lt;/b&gt;" style="text;html=1;strokeColor=none;fillColor=none;align=center;verticalAlign=middle;whiteSpace=wrap;rounded=0;" vertex="1" parent="WIyWlLk6GJQsqaUBKTNV-1">
          <mxGeometry x="323.82" y="160" width="160" height="40" as="geometry" />
        </mxCell>
        <mxCell id="_Lx0LoCC1SIo9x9nNZ3i-21" value="&lt;b&gt;POSTEDEV3 :&amp;nbsp;192.168.1.20&amp;nbsp;&lt;/b&gt;" style="text;html=1;strokeColor=none;fillColor=none;align=center;verticalAlign=middle;whiteSpace=wrap;rounded=0;" vertex="1" parent="WIyWlLk6GJQsqaUBKTNV-1">
          <mxGeometry x="632" y="160" width="168" height="40" as="geometry" />
        </mxCell>
        <mxCell id="_Lx0LoCC1SIo9x9nNZ3i-22" value="&lt;b&gt;WSINTEGRATION1 :&amp;nbsp;192.168.1.10&amp;nbsp;&lt;/b&gt;" style="text;html=1;strokeColor=none;fillColor=none;align=center;verticalAlign=middle;whiteSpace=wrap;rounded=0;" vertex="1" parent="WIyWlLk6GJQsqaUBKTNV-1">
          <mxGeometry x="70" y="440" width="198.38" height="40" as="geometry" />
        </mxCell>
        <mxCell id="_Lx0LoCC1SIo9x9nNZ3i-23" value="" style="endArrow=none;startArrow=classic;html=1;exitX=0.331;exitY=-0.012;exitDx=0;exitDy=0;exitPerimeter=0;" edge="1" parent="WIyWlLk6GJQsqaUBKTNV-1" target="_Lx0LoCC1SIo9x9nNZ3i-22">
          <mxGeometry width="50" height="50" relative="1" as="geometry">
            <mxPoint x="88.1225300000001" y="533.4681999999998" as="sourcePoint" />
            <mxPoint x="280" y="330" as="targetPoint" />
          </mxGeometry>
        </mxCell>
        <mxCell id="_Lx0LoCC1SIo9x9nNZ3i-25" value="&lt;b&gt;WSHEBERGEUR1 :&amp;nbsp;192.168.1.12&amp;nbsp;&lt;/b&gt;" style="text;html=1;strokeColor=none;fillColor=none;align=center;verticalAlign=middle;whiteSpace=wrap;rounded=0;" vertex="1" parent="WIyWlLk6GJQsqaUBKTNV-1">
          <mxGeometry x="480" y="420" width="192.2" height="40" as="geometry" />
        </mxCell>
        <mxCell id="_Lx0LoCC1SIo9x9nNZ3i-26" value="" style="endArrow=none;startArrow=classic;html=1;entryX=0.847;entryY=1.095;entryDx=0;entryDy=0;entryPerimeter=0;" edge="1" parent="WIyWlLk6GJQsqaUBKTNV-1" target="_Lx0LoCC1SIo9x9nNZ3i-25">
          <mxGeometry width="50" height="50" relative="1" as="geometry">
            <mxPoint x="700" y="500" as="sourcePoint" />
            <mxPoint x="461.9974400000001" y="359.804" as="targetPoint" />
          </mxGeometry>
        </mxCell>
        <mxCell id="_Lx0LoCC1SIo9x9nNZ3i-27" value="" style="endArrow=classic;html=1;entryX=0.008;entryY=0.43;entryDx=0;entryDy=0;entryPerimeter=0;exitX=0.661;exitY=0.426;exitDx=0;exitDy=0;exitPerimeter=0;" edge="1" parent="WIyWlLk6GJQsqaUBKTNV-1" source="_Lx0LoCC1SIo9x9nNZ3i-32" target="_Lx0LoCC1SIo9x9nNZ3i-33">
          <mxGeometry width="50" height="50" relative="1" as="geometry">
            <mxPoint x="120" y="582" as="sourcePoint" />
            <mxPoint x="277.3625599999999" y="584.5922" as="targetPoint" />
          </mxGeometry>
        </mxCell>
        <mxCell id="_Lx0LoCC1SIo9x9nNZ3i-28" value="" style="endArrow=classic;html=1;exitX=0;exitY=0.5;exitDx=0;exitDy=0;exitPerimeter=0;" edge="1" parent="WIyWlLk6GJQsqaUBKTNV-1" source="_Lx0LoCC1SIo9x9nNZ3i-34">
          <mxGeometry width="50" height="50" relative="1" as="geometry">
            <mxPoint x="658" y="565" as="sourcePoint" />
            <mxPoint x="490" y="583" as="targetPoint" />
          </mxGeometry>
        </mxCell>
        <mxCell id="_Lx0LoCC1SIo9x9nNZ3i-29" value="&lt;b&gt;Sauvegarde NFS&lt;/b&gt;" style="text;html=1;strokeColor=none;fillColor=none;align=center;verticalAlign=middle;whiteSpace=wrap;rounded=0;" vertex="1" parent="WIyWlLk6GJQsqaUBKTNV-1">
          <mxGeometry x="516.43" y="600" width="119.34" height="40" as="geometry" />
        </mxCell>
        <mxCell id="_Lx0LoCC1SIo9x9nNZ3i-30" value="&lt;b&gt;Sauvegarde NFS&lt;/b&gt;" style="text;html=1;strokeColor=none;fillColor=none;align=center;verticalAlign=middle;whiteSpace=wrap;rounded=0;" vertex="1" parent="WIyWlLk6GJQsqaUBKTNV-1">
          <mxGeometry x="140.72" y="585" width="119.34" height="40" as="geometry" />
        </mxCell>
        <mxCell id="_Lx0LoCC1SIo9x9nNZ3i-24" value="&lt;b&gt;WSNFS1 :&amp;nbsp;192.168.1.11&amp;nbsp;&lt;/b&gt;" style="text;html=1;strokeColor=none;fillColor=none;align=center;verticalAlign=middle;whiteSpace=wrap;rounded=0;" vertex="1" parent="WIyWlLk6GJQsqaUBKTNV-1">
          <mxGeometry x="309.63" y="400" width="188.38" height="40" as="geometry" />
        </mxCell>
        <mxCell id="_Lx0LoCC1SIo9x9nNZ3i-31" value="" style="endArrow=none;startArrow=classic;html=1;" edge="1" parent="WIyWlLk6GJQsqaUBKTNV-1">
          <mxGeometry width="50" height="50" relative="1" as="geometry">
            <mxPoint x="390" y="530" as="sourcePoint" />
            <mxPoint x="390" y="440" as="targetPoint" />
          </mxGeometry>
        </mxCell>
        <mxCell id="_Lx0LoCC1SIo9x9nNZ3i-32" value="" style="aspect=fixed;pointerEvents=1;shadow=0;dashed=0;html=1;strokeColor=none;labelPosition=center;verticalLabelPosition=bottom;verticalAlign=top;align=center;fillColor=#00188D;shape=mxgraph.mscae.enterprise.server_directory" vertex="1" parent="WIyWlLk6GJQsqaUBKTNV-1">
          <mxGeometry x="50" y="535.7" width="90.72" height="126" as="geometry" />
        </mxCell>
        <mxCell id="_Lx0LoCC1SIo9x9nNZ3i-33" value="" style="aspect=fixed;pointerEvents=1;shadow=0;dashed=0;html=1;strokeColor=none;labelPosition=center;verticalLabelPosition=bottom;verticalAlign=top;align=center;fillColor=#00188D;shape=mxgraph.mscae.enterprise.server_farm" vertex="1" parent="WIyWlLk6GJQsqaUBKTNV-1">
          <mxGeometry x="291.62" y="535.7" width="198.38" height="126.95" as="geometry" />
        </mxCell>
        <mxCell id="_Lx0LoCC1SIo9x9nNZ3i-34" value="" style="aspect=fixed;pointerEvents=1;shadow=0;dashed=0;html=1;strokeColor=none;labelPosition=center;verticalLabelPosition=bottom;verticalAlign=top;align=center;fillColor=#00188D;shape=mxgraph.mscae.enterprise.server_generic" vertex="1" parent="WIyWlLk6GJQsqaUBKTNV-1">
          <mxGeometry x="660" y="507.2" width="72.72" height="151.5" as="geometry" />
        </mxCell>
        <mxCell id="_Lx0LoCC1SIo9x9nNZ3i-35" value="" style="aspect=fixed;pointerEvents=1;shadow=0;dashed=0;html=1;strokeColor=none;labelPosition=center;verticalLabelPosition=bottom;verticalAlign=top;align=center;fillColor=#00188D;shape=mxgraph.azure.laptop" vertex="1" parent="WIyWlLk6GJQsqaUBKTNV-1">
          <mxGeometry x="340" y="80" width="116.67" height="70" as="geometry" />
        </mxCell>
        <mxCell id="_Lx0LoCC1SIo9x9nNZ3i-36" value="" style="aspect=fixed;pointerEvents=1;shadow=0;dashed=0;html=1;strokeColor=none;labelPosition=center;verticalLabelPosition=bottom;verticalAlign=top;align=center;fillColor=#00188D;shape=mxgraph.azure.laptop" vertex="1" parent="WIyWlLk6GJQsqaUBKTNV-1">
          <mxGeometry x="590" y="70" width="116.67" height="70" as="geometry" />
        </mxCell>
        <mxCell id="_Lx0LoCC1SIo9x9nNZ3i-37" value="" style="aspect=fixed;pointerEvents=1;shadow=0;dashed=0;html=1;strokeColor=none;labelPosition=center;verticalLabelPosition=bottom;verticalAlign=top;align=center;fillColor=#00188D;shape=mxgraph.azure.laptop" vertex="1" parent="WIyWlLk6GJQsqaUBKTNV-1">
          <mxGeometry x="49.999999999999986" y="70" width="116.67" height="70" as="geometry" />
        </mxCell>
      </root>
    </mxGraphModel>
  </diagram>
</mxfile>
